<?xml version="1.0" encoding="utf-8"?>
<!-- Generator: Adobe Illustrator 15.0.2, SVG Export Plug-In . SVG Version: 6.00 Build 0)  -->
<!DOCTYPE svg PUBLIC "-//W3C//DTD SVG 1.0//EN" "http://www.w3.org/TR/2001/REC-SVG-20010904/DTD/svg10.dtd">
<svg version="1.0" id="Layer_1" xmlns="http://www.w3.org/2000/svg" xmlns:xlink="http://www.w3.org/1999/xlink" x="0px" y="0px"
	 width="180.5px" height="71.6px" viewBox="0 0 180.5 71.6" enable-background="new 0 0 180.5 71.6" xml:space="preserve">
<path fill-rule="evenodd" clip-rule="evenodd" fill="#FFFFFF" d="M170.45,42.9h-15V38.35h15V42.9z M170.45,33.3h-15v-4l-1.4,4H140.8
	l1.5-4.55h28.15V33.3z M170.45,23.75H144l1.5-4.55h24.95V23.75z M180.5,14.15h-33.35l1.55-4.5h31.8V14.15z M180.5,4.6h-30.2
	l1.55-4.55h28.65V4.6z M180.5,71.6h-25.05v-4.55h25.05V71.6z M180.5,62.05h-25.05v-4.6h25.05V62.05z M170.45,52.5h-15v-4.6h15V52.5z
	 M130.45,4.6h-30.2V0.05h28.7L130.45,4.6z M133.6,14.15h-33.35v-4.5h31.85L133.6,14.15z M136.8,23.75h-26.5V19.2h25L136.8,23.75z
	 M125.35,29.3v4H110.3v-4.55h28.15L140,33.3h-13.3L125.35,29.3z M125.35,42.9H110.3V38.35h15.05V42.9z M128.4,38.35h23.949
	l-1.5,4.551H130L128.4,38.35z M149.15,47.9l-1.601,4.55H133.2l-1.55-4.55H149.15z M95.05,11.8c0.367,1.034,0.601,1.817,0.7,2.35
	H40.1v-4.5h54.1C94.434,10.05,94.717,10.767,95.05,11.8z M95.55,23.75H80.2V19.2h16.05c0.033,0.466-0.033,1.233-0.2,2.3
	C95.884,22.433,95.717,23.183,95.55,23.75z M93.3,28.75c-0.5,0.667-1.217,1.483-2.149,2.45c-0.967,1-1.75,1.716-2.351,2.15H50.15
	v-4.6H93.3z M83.65,0.9c2.333,0.667,4.567,1.9,6.7,3.7H40.1V0.05h35C78.7,0.05,81.55,0.333,83.65,0.9z M92.95,42.9h-42.8V38.35H88.8
	c0.534,0.367,1.25,1.051,2.15,2.051C91.717,41.267,92.384,42.1,92.95,42.9z M100.25,67.05h25.1v4.55h-25.1V67.05z M83.65,70.75
	c-2.1,0.566-4.95,0.85-8.55,0.85h-35v-4.55h50.25C88.217,68.85,85.983,70.083,83.65,70.75z M94.3,62.05H40.1v-4.6h55.6
	c-0.033,0.566-0.217,1.366-0.55,2.399C94.85,60.85,94.566,61.583,94.3,62.05z M100.25,57.45h25.1v4.6h-25.1V57.45z M96.35,52.45
	H80.2V47.9h15.25c0.166,0.333,0.35,1.066,0.55,2.199C96.2,51.134,96.316,51.917,96.35,52.45z M144.35,62.05h-7.899l-1.55-4.6h10.949
	L144.35,62.05z M138.15,67.05h4.5L141.1,71.6H139.7L138.15,67.05z M125.35,52.5H110.3v-4.6h15.05V52.5z M65.15,47.9v4.6h-15v-4.6
	H65.15z M65.15,19.2v4.55h-15V19.2H65.15z M35.1,9.65v4.55H0V9.65H35.1z M35.1,0v4.6H0V0H35.1z M25.05,23.75H10V19.2h15.05V23.75z
	 M10,28.75h15.05v4.55H10V28.75z M10,38.35h15.05V42.9H10V38.35z M25.05,47.9v4.6H10v-4.6H25.05z M35.1,57.45v4.6H0v-4.6H35.1z
	 M35.1,67.05v4.55H0v-4.55H35.1z"/>
</svg>
