<?xml version="1.0" encoding="utf-8"?>
<!-- Generator: Adobe Illustrator 15.0.2, SVG Export Plug-In . SVG Version: 6.00 Build 0)  -->
<!DOCTYPE svg PUBLIC "-//W3C//DTD SVG 1.0//EN" "http://www.w3.org/TR/2001/REC-SVG-20010904/DTD/svg10.dtd">
<svg version="1.0" id="Layer_1" xmlns="http://www.w3.org/2000/svg" xmlns:xlink="http://www.w3.org/1999/xlink" x="0px" y="0px"
	 width="138px" height="135.75px" viewBox="0 0 138 135.75" enable-background="new 0 0 138 135.75" xml:space="preserve">
<path fill-rule="evenodd" clip-rule="evenodd" fill="#FFFFFF" d="M121.55,31.3c-0.267,0.467-0.566,0.784-0.899,0.95
	c-0.301,0.2-0.684,0.317-1.15,0.35c-0.467,0-0.884-0.083-1.25-0.25c-0.6-0.233-1-0.75-1.2-1.55c-0.233-0.8-0.184-1.466,0.15-2
	c0.333-0.533,0.833-0.883,1.5-1.05c0.7-0.167,1.316-0.117,1.85,0.15c0.334,0.167,0.65,0.483,0.95,0.95
	c0.267,0.467,0.4,0.867,0.4,1.2C121.9,30.417,121.783,30.833,121.55,31.3z M130.45,38.9l-1.05,0.55
	c-0.733,0.4-1.267,0.667-1.601,0.8c-0.166,0.067-0.399,0.283-0.7,0.65c-0.3,0.367-0.699,0.95-1.199,1.75
	c-0.967,1.467-1.551,2.317-1.75,2.55l-0.301,0.4L123,43.75l1.25-1.7c0.833-1.133,1.25-1.733,1.25-1.8c0-0.033-0.217-0.067-0.65-0.1
	c-0.399-0.033-0.916-0.05-1.55-0.05h-2.2l-0.699-1.7l0.55,0.1c0.434,0.067,1.45,0.15,3.05,0.25l2.5,0.15l3.15-1.5L130.45,38.9z
	 M125.8,45.9c0.367-0.333,0.634-0.5,0.8-0.5c0.167,0.033,0.301,0.217,0.4,0.55c0.134,0.367,0.2,0.633,0.2,0.8
	c-0.033,0.167-0.167,0.367-0.4,0.6c-0.3,0.267-0.483,0.566-0.55,0.9s-0.017,0.717,0.15,1.15c0.5,1.2,1.666,1.533,3.5,1
	c1.833-0.533,2.75-1.367,2.75-2.5c0-0.6-0.15-1.083-0.45-1.45c-0.334-0.367-0.75-0.55-1.25-0.55c-0.3,0-0.483-0.033-0.55-0.1
	c-0.101-0.1-0.217-0.35-0.351-0.75l-0.25-0.85h0.9c1.133,0,2.05,0.617,2.75,1.85c0.2,0.333,0.333,0.633,0.399,0.9
	c0.067,0.233,0.101,0.667,0.101,1.3s-0.033,1.05-0.101,1.25c-0.033,0.2-0.183,0.467-0.449,0.8c-0.301,0.367-0.784,0.733-1.45,1.1
	c-0.066,0.033-0.15,0.067-0.25,0.1c-0.601,0.3-1.217,0.517-1.851,0.65c-0.633,0.133-1.05,0.2-1.25,0.2c-0.233,0-0.566-0.067-1-0.2
	c-0.5-0.167-0.916-0.383-1.25-0.65c-0.033,0-0.05-0.017-0.05-0.05c-0.333-0.3-0.633-0.684-0.899-1.15
	c-0.4-0.9-0.584-1.733-0.551-2.5C124.917,47,125.233,46.367,125.8,45.9z M103.4,10.25c-0.167,0.367-0.284,0.55-0.351,0.55
	c-0.033,0-0.416-0.216-1.149-0.65c-0.334-0.167-0.617-0.3-0.851-0.4c-0.267-0.067-0.416-0.083-0.45-0.05
	c-0.1,0.1-0.699,1.15-1.8,3.15c-1.1,1.967-1.684,2.983-1.75,3.05c-0.033,0.033-0.133,0.017-0.3-0.05
	c-0.167-0.067-0.35-0.15-0.55-0.25l-0.75-0.4l0.399-0.65c0.567-0.966,1.25-2.183,2.051-3.65c0.767-1.467,1.133-2.233,1.1-2.3
	c-0.033-0.1-0.4-0.317-1.1-0.65C97.4,7.717,97.1,7.567,97,7.5c-0.1-0.1-0.116-0.25-0.05-0.45c0.1-0.367,0.217-0.583,0.35-0.65
	c0.167-0.033,0.467,0.067,0.9,0.3c0.399,0.2,1.399,0.733,3,1.6c1.566,0.867,2.383,1.317,2.45,1.35
	C103.65,9.683,103.566,9.883,103.4,10.25z M106.9,11.9c1.5,1,2.283,1.583,2.35,1.75c0.033,0.067,0.017,0.15-0.05,0.25
	c-0.033,0.133-0.101,0.25-0.2,0.35l-0.35,0.35L108,14.2c-0.4-0.267-0.917-0.617-1.55-1.05c-0.601-0.433-0.95-0.65-1.05-0.65
	c-0.034,0-0.117,0.083-0.25,0.25c-0.167,0.167-0.334,0.367-0.5,0.6l-0.65,0.9l1.55,1.05c0.4,0.267,0.767,0.517,1.101,0.75
	c0.3,0.233,0.449,0.383,0.449,0.45c-0.033,0.033-0.083,0.117-0.149,0.25c-0.066,0.1-0.134,0.2-0.2,0.3l-0.35,0.4l-1.5-1.05
	c-1-0.667-1.534-1-1.601-1s-0.333,0.35-0.8,1.05c-0.5,0.7-0.717,1.05-0.65,1.05l2.101,1.45c0.3,0.2,0.55,0.383,0.75,0.55
	c0.233,0.2,0.35,0.317,0.35,0.35c0,0.167-0.116,0.367-0.35,0.6l-0.3,0.4L99.6,17.5l0.25-0.4c0.167-0.267,0.367-0.567,0.601-0.9
	c0.6-0.8,1.416-1.917,2.45-3.35c1-1.434,1.55-2.2,1.649-2.3C104.616,10.45,105.4,10.9,106.9,11.9z M110.4,16.5
	c0.333-0.167,0.75-0.25,1.25-0.25c0.366,0,0.649,0.033,0.85,0.1c0.233,0.1,0.55,0.3,0.95,0.6c0.3,0.2,0.566,0.417,0.8,0.65
	c0.233,0.267,0.4,0.5,0.5,0.7c0.233,0.434,0.35,0.9,0.35,1.4c0,0.466-0.116,0.833-0.35,1.1l-0.35,0.4l-0.601-0.6
	c-0.267-0.233-0.416-0.4-0.45-0.5c-0.066-0.133-0.05-0.267,0.051-0.4c0.133-0.267,0.149-0.55,0.05-0.85
	c-0.134-0.3-0.351-0.583-0.65-0.85c-0.333-0.233-0.616-0.367-0.85-0.4c-0.233,0-0.483,0.1-0.75,0.3
	c-0.267,0.167-0.367,0.45-0.3,0.85c0.066,0.367,0.35,0.983,0.85,1.85c0.5,0.833,0.783,1.45,0.85,1.85
	c0.101,0.4,0.051,0.783-0.149,1.15c-0.334,0.566-0.816,0.95-1.45,1.15c-0.6,0.2-1.233,0.183-1.9-0.05
	c-0.833-0.3-1.566-0.85-2.199-1.65c-0.434-0.566-0.667-1.15-0.7-1.75c-0.033-0.6,0.133-1.133,0.5-1.6l0.3-0.35l0.65,0.55
	c0.3,0.267,0.483,0.45,0.55,0.55c0,0.066-0.066,0.233-0.2,0.5c-0.167,0.367-0.2,0.7-0.1,1c0.066,0.3,0.283,0.617,0.649,0.95
	c0.233,0.167,0.434,0.3,0.601,0.4c0.199,0.067,0.416,0.1,0.649,0.1c0.634,0,0.967-0.183,1-0.55c0.066-0.4-0.166-1.033-0.7-1.9
	c-0.633-1.034-1-1.8-1.1-2.3c-0.066-0.5,0.066-0.967,0.4-1.4C109.7,16.883,110.033,16.633,110.4,16.5z M92.7,4.3l0.85,0.3v4.7
	c0.033,1.3,0.033,2.417,0,3.35c0,0.9-0.017,1.35-0.05,1.35c-0.1,0-0.233-0.033-0.4-0.1c-0.633-0.2-1.017-0.383-1.149-0.55
	c-0.134-0.167-0.2-0.5-0.2-1v-1l-1.6-0.65c-1.101-0.4-1.717-0.6-1.851-0.6c-0.1,0-0.2,0.05-0.3,0.15
	c-0.134,0.133-0.267,0.283-0.4,0.45c-0.233,0.367-0.449,0.583-0.649,0.65c-0.167,0.066-0.467,0.017-0.9-0.15
	c-0.434-0.2-0.684-0.317-0.75-0.35c-0.066-0.067-0.05-0.133,0.05-0.2c0.101-0.066,0.884-0.933,2.351-2.6
	c1.5-1.667,2.45-2.716,2.85-3.15c0.467-0.433,0.7-0.7,0.7-0.8C91.25,3.867,91.733,3.933,92.7,4.3z M91.55,6.05
	c-0.267,0.3-0.767,0.9-1.5,1.8L89.15,8.9l0.55,0.25c0.3,0.167,0.666,0.333,1.1,0.5c0.434,0.167,0.717,0.25,0.851,0.25
	C91.783,9.933,91.9,9.25,92,7.85c0.033-0.533,0.05-1.017,0.05-1.45c0-0.433-0.017-0.667-0.05-0.7
	C91.967,5.667,91.816,5.783,91.55,6.05z M87.55,3.35c-0.066,0.2-0.149,0.3-0.25,0.3C87.233,3.683,86.934,3.633,86.4,3.5L85.05,3.2
	c-0.1-0.034-0.217,0.15-0.35,0.55c-0.134,0.4-0.367,1.283-0.7,2.65c-0.533,2.2-0.833,3.383-0.9,3.55
	c-0.066,0.3-0.449,0.367-1.149,0.2c-0.3-0.066-0.467-0.2-0.5-0.4c-0.033-0.167,0.033-0.6,0.2-1.3c0.399-1.567,0.733-2.917,1-4.05
	c0.267-1.1,0.383-1.667,0.35-1.7c-0.033-0.034-0.45-0.15-1.25-0.35C80.983,2.183,80.566,2.067,80.5,2s-0.05-0.267,0.05-0.6
	c0.101-0.333,0.2-0.5,0.3-0.5c0.134,0,1.217,0.25,3.25,0.75c2.101,0.533,3.25,0.8,3.45,0.8s0.267,0.083,0.2,0.25
	C87.684,2.9,87.616,3.117,87.55,3.35z M85.45,31.55c1.434,1.4,2.583,2.717,3.45,3.95c0.866,1.233,1.666,2.667,2.399,4.3
	c0.967,2.267,1.584,4.733,1.851,7.4c0.066,0.8,0.1,1.566,0.1,2.3L81.8,49.45c-7.833-0.034-12.333-0.034-13.5,0
	c0.467-0.034,0.95-0.1,1.45-0.2c1.366-0.3,2.517-0.967,3.45-2s1.517-2.283,1.75-3.75c0.066-0.5,0.017-1.15-0.15-1.95
	c-0.166-0.833-0.383-1.466-0.649-1.9c-0.434-0.7-1-1.35-1.7-1.95c-0.667-0.567-1.367-0.967-2.101-1.2c-0.533-0.2-1.233-0.3-2.1-0.3
	c-0.833,0-1.533,0.083-2.1,0.25c-1.333,0.4-2.433,1.133-3.3,2.2c-0.867,1.1-1.35,2.333-1.45,3.7c-0.033,0.8,0.033,1.517,0.2,2.15
	c0.167,0.6,0.5,1.283,1,2.05c0.767,1.167,1.767,1.983,3,2.45c0.7,0.267,1.433,0.417,2.2,0.45L43.15,49.5c0-0.267,0-0.55,0-0.85
	c0.067-2.033,0.217-3.566,0.45-4.6c0.533-2.267,1.316-4.333,2.35-6.2c1-1.867,2.283-3.633,3.85-5.3
	c2.367-2.533,5.117-4.466,8.25-5.8c3.1-1.367,6.367-2.067,9.8-2.1c1.6,0,3.183,0.133,4.75,0.4c2.467,0.434,4.784,1.2,6.95,2.3
	C81.717,28.45,83.684,29.85,85.45,31.55z M83.475,72.8l0.125-0.1c1.134-1.033,2.301-2.017,3.5-2.95c1.567-1.2,3.2-2.283,4.9-3.25
	l1.55-0.9c0.033,0,0.066-0.017,0.101-0.05c0.033,0,0.066-0.017,0.1-0.05c0.033,0,0.066-0.017,0.1-0.05
	c0.101-0.034,0.217-0.083,0.351-0.15c0.066-0.033,0.149-0.083,0.25-0.15c0.033,0,0.066-0.017,0.1-0.05l3.351-1.5
	c1.466-0.6,2.983-1.133,4.55-1.6c0.05-0.017,0.1-0.033,0.149-0.05c0.847-0.263,1.722-0.513,2.625-0.75
	c0.204-0.051,0.412-0.102,0.625-0.15l0.851-0.2c0.066-0.033,0.133-0.05,0.2-0.05l0.399-0.1c0.101-0.034,0.184-0.05,0.25-0.05
	c0.033,0,0.066,0,0.101,0c0.767-0.2,1.449-0.35,2.05-0.45c0.566-0.1,0.866-0.133,0.899-0.1v0.1c0,0.2-0.083,0.7-0.25,1.5l-0.1,0.65
	c-0.033,0.1-0.05,0.183-0.05,0.25c-0.367,1.6-0.7,2.917-1,3.95c-0.934,3.233-2.267,6.367-4,9.4c-0.304,0.548-0.612,1.09-0.925,1.625
	l-4.476,6c-0.068,0.062-0.135,0.13-0.2,0.2C99.534,83.854,99.468,83.928,99.4,84c-1.167,1.233-2.4,2.417-3.7,3.55
	c-1.3,1.134-2.417,1.983-3.351,2.55l-0.125,0.075c-0.55,0.321-0.824,0.514-0.824,0.575v0.05c0.033,0.033,0.483,0.066,1.35,0.101
	c0.3,0.033,0.667,0.05,1.1,0.05c1.167,0.066,2.434,0.2,3.801,0.399c1.399,0.167,2.666,0.384,3.8,0.65
	c1.5,0.366,3.149,0.85,4.95,1.45c1.833,0.633,3.233,1.2,4.199,1.7l0.601,0.3h-0.05l-0.801,0.6c-0.733,0.566-1.699,1.184-2.899,1.851
	c-0.038,0.021-0.071,0.047-0.101,0.074c-0.036,0.021-0.069,0.038-0.1,0.051l-1.65,0.899c-0.55,0.265-1.083,0.506-1.6,0.726
	c-0.601,0.275-1.2,0.533-1.8,0.774l-1.75,0.675c-0.839,0.299-1.672,0.565-2.5,0.801c-2,0.566-4.217,1.033-6.65,1.399
	c-1.1,0.167-2.866,0.25-5.3,0.25c-2.4,0.033-4.15-0.033-5.25-0.2c-1.167-0.166-2.717-0.449-4.65-0.85c-1.966-0.4-3.35-0.733-4.149-1
	c-0.063-0.02-0.121-0.036-0.175-0.05l-0.25-0.075c-0.272-0.095-0.53-0.186-0.775-0.275c-0.309-0.062-0.5-0.095-0.575-0.1H70.1h-0.05
	v0.05c0,0.033-0.017,0.05-0.05,0.05c0,0.101-0.017,0.25-0.05,0.45l-0.05,1.3c0,0.067,0,0.134,0,0.2v3.4h-3.05v-2.65
	c0-1.767-0.067-2.684-0.2-2.75c-0.033-0.033-0.233,0-0.6,0.101c-0.367,0.066-0.767,0.166-1.2,0.3c-0.967,0.3-2.25,0.633-3.85,1
	c-1.486,0.31-2.87,0.576-4.15,0.8c-0.103,0.017-0.203,0.033-0.3,0.05c-0.146,0.021-0.304,0.038-0.475,0.05l-4.3,0.25
	c-0.033,0-0.066,0-0.1,0c-0.108-0.001-0.216-0.001-0.325,0c-0.03,0-0.063,0-0.1,0c-2.4,0-4.167-0.066-5.3-0.199
	c-2.1-0.301-4.217-0.733-6.35-1.301c-2.1-0.566-4.017-1.199-5.75-1.899c-1.533-0.667-3.267-1.55-5.2-2.65
	c-1.933-1.133-2.95-1.833-3.05-2.1c0-0.134,0.566-0.434,1.7-0.9c1.167-0.5,2.35-0.95,3.55-1.35c4-1.334,7.967-2.084,11.9-2.25
	c1.6-0.066,2.417-0.117,2.45-0.15v-0.05c0-0.055-0.242-0.229-0.725-0.525c-0.116-0.075-0.241-0.15-0.375-0.225
	c-0.934-0.6-1.85-1.283-2.75-2.05s-1.9-1.7-3-2.8c-1.3-1.334-2.35-2.467-3.15-3.4c-0.767-0.967-1.567-2.083-2.4-3.35l-2.85-5.075
	c-0.278-0.596-0.545-1.188-0.8-1.775c-1-2.3-1.816-4.733-2.45-7.3c-0.083-0.317-0.159-0.617-0.225-0.9L26.05,61.2
	c0-0.034,0-0.067,0-0.1L26,61c-0.067-0.6-0.033-0.917,0.1-0.95c0.467,0,1.75,0.267,3.85,0.8c2.133,0.5,3.8,0.95,5,1.35
	c5.533,1.9,10.4,4.433,14.6,7.6c4.233,3.2,7.867,7.084,10.9,11.65c1.167,1.8,2.2,3.583,3.1,5.35c0.9,1.8,1.717,3.684,2.45,5.65
	c0.433,1.2,0.65,1.733,0.65,1.6c0.033-0.2,0.05-3,0.05-8.399l0.05-9.5h3.1L70,94.25l0.4-1.2c1.166-3.366,2.683-6.6,4.55-9.7
	l0.35-0.55c1.767-2.833,3.75-5.416,5.95-7.75l0.05-0.1c0.066-0.033,0.134-0.101,0.2-0.2l1.65-1.65
	c0.012-0.012,0.028-0.021,0.05-0.024C83.281,72.979,83.372,72.888,83.475,72.8z M58.05,83.875l-0.025-0.025L58,83.8
	c-0.048-0.072-0.098-0.147-0.15-0.225c-0.047-0.071-0.098-0.146-0.15-0.226c-0.047-0.069-0.097-0.136-0.15-0.199
	c-0.046-0.068-0.096-0.136-0.15-0.2c-0.045-0.067-0.087-0.134-0.125-0.2c-0.045-0.065-0.087-0.132-0.125-0.2
	c-0.045-0.064-0.086-0.131-0.125-0.2l-7.875-8.574c-0.683-0.586-1.383-1.145-2.1-1.676c-1.05-0.774-2.15-1.5-3.3-2.175L32.4,64.95
	c-0.566-0.2-1.066-0.35-1.5-0.45c-0.4-0.1-0.617-0.15-0.65-0.15c-0.033,0.033-0.033,0.066,0,0.1c0,0.167,0.133,0.667,0.4,1.5
	c0.3,0.966,0.65,1.966,1.05,3c1.267,3.133,2.767,5.967,4.5,8.5c1.767,2.533,3.85,4.866,6.25,7c2.4,2.1,5.017,3.85,7.85,5.25
	c2.8,1.399,5.983,2.517,9.55,3.35c0.433,0.101,0.883,0.2,1.35,0.3c0.433,0.067,0.733,0.101,0.9,0.101c0.3,0,0.483-0.017,0.55-0.05
	l0.05-0.051c0-0.033,0-0.066,0-0.1V93.2c-0.034-0.033-0.05-0.066-0.05-0.101c0-0.033,0-0.066,0-0.1l-0.25-0.6
	c-0.333-0.9-0.9-2.134-1.7-3.7v-0.05c-0.9-1.767-1.7-3.233-2.4-4.4c-0.033-0.033-0.066-0.083-0.1-0.15
	c-0.026-0.025-0.042-0.05-0.05-0.074V84L58.05,83.875z M76.275,87.8c-0.356,0.697-0.748,1.514-1.176,2.45v0.05
	c0,0.033-0.017,0.084-0.05,0.15C74.384,91.917,74,92.866,73.9,93.3c-0.034,0.101-0.051,0.167-0.051,0.2s0.034,0.066,0.101,0.1
	c0.066,0,0.149-0.017,0.25-0.05c0.267-0.066,0.916-0.184,1.95-0.35c2.033-0.367,4.233-1,6.6-1.9l3.35-1.45
	c0.2-0.1,0.4-0.199,0.601-0.3l2.25-1.2c0.066-0.066,0.133-0.116,0.2-0.149c2.5-1.533,4.833-3.4,7-5.601
	c0.066-0.1,0.149-0.183,0.25-0.25L97.1,81.6c2.367-2.633,4.351-5.533,5.95-8.699c0.9-1.801,1.7-3.684,2.4-5.65
	c0.033-0.033,0.066-0.083,0.1-0.15l0.15-0.45c0.039-0.116,0.072-0.225,0.1-0.325c0.02-0.081,0.036-0.156,0.05-0.225l0.051-0.15
	c0.1-0.267,0.166-0.5,0.199-0.7c0.101-0.433,0.15-0.717,0.15-0.85v-0.05l-0.05-0.05c-0.134,0-0.783,0.184-1.95,0.55
	c-6.167,1.933-11.434,4.6-15.8,8c-0.527,0.415-1.044,0.849-1.55,1.301L77.65,85.3c-0.053,0.087-0.103,0.17-0.15,0.25
	c-0.103,0.166-0.202,0.332-0.3,0.5L76.275,87.8z M89.35,62.725c-0.062,0.11-0.129,0.218-0.199,0.325
	c-0.032,0.042-0.073,0.092-0.125,0.15c-0.237,0.313-0.68,0.863-1.325,1.65c-0.767,0.933-1.233,1.5-1.4,1.7
	c-0.033,0.033-0.066,0.066-0.1,0.1c-3.441,3.344-7.241,5.561-11.4,6.65c-1.399,0.367-2.983,0.617-4.75,0.75
	c-1.8,0.134-3.283,0.134-4.45,0c-1.633-0.233-3.133-0.533-4.5-0.899c-1.367-0.4-2.717-0.934-4.05-1.601
	c-1.133-0.566-2.133-1.149-3-1.75c-0.9-0.6-1.85-1.35-2.85-2.25c-2.3-2.1-4.167-4.583-5.6-7.45c-1.3-2.664-2.075-5.356-2.325-8.075
	c0.034,0.295,0.093,0.47,0.175,0.525c0.133,0.067,0.283,0.25,0.45,0.55c0.167,0.333,0.25,0.566,0.25,0.7c0,0.2,0.217,0.567,0.65,1.1
	c0.467,0.567,0.9,1,1.3,1.3c0.633,0.533,1.133,0.9,1.5,1.1c0.333,0.2,0.7,0.333,1.1,0.4c0.6,0.1,1.25,0.1,1.95,0
	c0.7-0.1,1.333-0.284,1.9-0.55c0.534-0.267,1-0.566,1.4-0.9c0.367-0.367,0.8-0.867,1.3-1.5c0.333-0.467,0.55-0.717,0.65-0.75
	c0.1-0.067,0.2,0.017,0.3,0.25c0,0.1,0.033,0.183,0.1,0.25c0.067,0.1,0.15,0.15,0.25,0.15c0.067,0.033,0.117,0.083,0.15,0.15
	c0.066,0.034,0.1,0.083,0.1,0.15c0,0.1,0.184,0.35,0.55,0.75c0.4,0.4,0.8,0.75,1.2,1.05c0.167,0.1,0.417,0.217,0.75,0.35
	c0.333,0.133,0.65,0.267,0.95,0.4c0.5,0.133,0.9,0.217,1.2,0.25c0.333,0.033,0.783,0.033,1.35,0c0.6-0.067,1.034-0.15,1.3-0.25
	c0.3-0.1,0.733-0.333,1.3-0.7c0.333-0.233,0.667-0.483,1-0.75c0.333-0.3,0.567-0.55,0.7-0.75c0.267-0.4,0.533-0.767,0.8-1.1
	c0.167-0.167,0.267-0.25,0.3-0.25c0.033-0.034,0.1,0.033,0.2,0.2c0.367,0.567,0.883,1.15,1.55,1.75c0.633,0.6,1.217,1.033,1.75,1.3
	c0.434,0.233,0.8,0.383,1.1,0.45c0.267,0.033,0.7,0.05,1.3,0.05c0.4,0,0.801-0.017,1.2-0.05c0.367-0.033,0.667-0.1,0.9-0.2
	c0.566-0.2,1.083-0.434,1.55-0.7c0.467-0.233,0.7-0.417,0.7-0.55c0-0.067,0.017-0.117,0.05-0.15c0.033-0.066,0.1-0.1,0.2-0.1
	c0.066,0,0.149-0.05,0.25-0.15c0.133-0.1,0.25-0.233,0.35-0.4c0.233-0.333,0.417-0.566,0.55-0.7l0.4-0.5
	c0.1-0.133,0.167-0.217,0.2-0.25c0.066,0,0.116,0.033,0.149,0.1c0.067,0.167,0.2,0.35,0.4,0.55c0.066,0.1,0.134,0.183,0.2,0.25
	c0.033,0.066,0.033,0.117,0,0.15c-0.066,0.1,0.3,0.517,1.1,1.25c0.834,0.733,1.334,1.1,1.5,1.1c0.101,0,0.25,0.017,0.45,0.05
	c0.2,0.067,0.384,0.133,0.55,0.2c0.667,0.267,1.467,0.316,2.4,0.15s1.75-0.5,2.45-1c0.433-0.3,0.833-0.617,1.199-0.95
	c0.4-0.367,0.667-0.667,0.801-0.9c0.233-0.333,0.433-0.7,0.6-1.1c0.2-0.367,0.283-0.55,0.25-0.55s-0.033-0.033,0-0.1
	c0-0.1,0.033-0.2,0.1-0.3c0.134-0.233,0.233-0.283,0.301-0.15c0.066,0.1,0.133-0.034,0.199-0.4c-0.066,0.467-0.166,0.983-0.3,1.55
	c-0.267,1.5-0.6,2.767-1,3.8c-0.267,0.8-0.684,1.75-1.25,2.85c-0.399,0.8-0.684,1.333-0.85,1.6
	C89.593,62.315,89.476,62.523,89.35,62.725z M120.6,97.3l0.551-1.1l0.85,0.05c0.967,0.1,2.283,0.167,3.95,0.2
	c1.666,0.066,2.45,0.05,2.35-0.05c-0.1-0.101-1.066-0.634-2.899-1.601l-2.75-1.399l0.35-0.65c0.1-0.167,0.2-0.316,0.3-0.45
	c0.066-0.133,0.134-0.2,0.2-0.2c0.134,0,1.434,0.65,3.9,1.95c2.5,1.334,3.75,2.033,3.75,2.101c0,0.033-0.184,0.399-0.551,1.1
	l-0.55,1l-1.649-0.1c-3.767-0.2-5.65-0.233-5.65-0.101c0,0.033,0.283,0.2,0.85,0.5c0.567,0.3,1.25,0.65,2.051,1.05l2.85,1.45
	l-0.7,1.45l-0.75-0.4c-1.533-0.767-2.934-1.466-4.2-2.1c-0.233-0.134-0.449-0.25-0.649-0.35c-1.434-0.733-2.15-1.134-2.15-1.2
	S120.233,98,120.6,97.3z M135.25,53.25c0.134,0,0.233,0.1,0.3,0.3c0.066,0.2,0.15,0.617,0.25,1.25l0.15,0.75l-1.2,0.8
	c-1.9,1.3-3.167,2.183-3.8,2.65c-0.634,0.467-0.934,0.717-0.9,0.75c0.033,0.067,0.267,0.05,0.7-0.05
	c0.533-0.133,1.616-0.317,3.25-0.55s2.467-0.316,2.5-0.25c0.033,0.033,0.1,0.283,0.2,0.75l0.1,0.7l-2.95,0.45
	c-2.833,0.434-4.566,0.733-5.199,0.9c-0.233,0.033-0.384,0.033-0.45,0c-0.101-0.034-0.167-0.1-0.2-0.2
	c-0.066-0.267-0.134-0.683-0.2-1.25l-0.1-0.95l1.95-1.35c1.733-1.2,2.816-1.95,3.25-2.25c0.399-0.3,0.583-0.483,0.55-0.55
	c-0.033,0-0.684,0.1-1.95,0.3c-1.3,0.2-2.634,0.417-4,0.65c-0.2,0.033-0.333,0.017-0.4-0.05c-0.033-0.066-0.083-0.267-0.149-0.6
	c-0.066-0.4-0.066-0.667,0-0.8s0.267-0.2,0.6-0.2c0.3,0,0.867-0.083,1.7-0.25c0.767-0.167,1.917-0.367,3.45-0.6
	S135.083,53.25,135.25,53.25z M129.3,63.75c0.066,0.067,0.134,0.283,0.2,0.65c0.066,0.567,0.1,1.233,0.1,2v1.15h2.301l-0.15-3.75
	h1.4l0.1,3.7h2.5v-4.2h0.55c0.267,0,0.434,0.034,0.5,0.1c0.066,0.067,0.134,0.25,0.2,0.55c0.066,0.466,0.1,1.45,0.1,2.95v2.35h-2.3
	c-1.633,0-3.066,0.05-4.3,0.15l-2.05,0.1l-0.101-1.1c-0.066-0.634-0.1-1.601-0.1-2.9v-1.85h0.55
	C129.066,63.65,129.233,63.683,129.3,63.75z M130.85,73.1c-0.033,0.067-0.149,0.101-0.35,0.101c-0.467,0-0.816,0.166-1.05,0.5
	c-0.267,0.333-0.384,0.8-0.351,1.399c0,0.801,0.301,1.417,0.9,1.851c0.566,0.467,1.417,0.717,2.55,0.75c0.7,0,1.267-0.101,1.7-0.3
	c0.4-0.167,0.733-0.483,1-0.95c0.167-0.233,0.283-0.684,0.35-1.351c0.067-0.633,0.051-1.017-0.05-1.149
	c-0.033-0.033-0.149-0.066-0.35-0.101c-0.233-0.033-0.467-0.066-0.7-0.1l-0.95-0.1l-0.149,0.8c-0.034,0.366-0.084,0.583-0.15,0.649
	c-0.066,0.101-0.25,0.15-0.55,0.15H132.1l0.101-1.15c0.1-0.866,0.184-1.449,0.25-1.75l0.1-0.55l1.3,0.101
	c0.9,0.066,1.634,0.166,2.2,0.3l0.9,0.149l-0.05,2c-0.034,0.934-0.084,1.551-0.15,1.851c-0.066,0.333-0.217,0.717-0.45,1.149
	c-0.333,0.7-0.75,1.2-1.25,1.5c-0.5,0.301-1.149,0.483-1.95,0.551c-0.333,0.033-0.683,0.033-1.05,0c-0.366,0-0.633-0.017-0.8-0.051
	c-0.9-0.199-1.667-0.616-2.3-1.25c-0.634-0.6-1.017-1.3-1.15-2.1c-0.133-1.267,0.05-2.333,0.55-3.2c0.534-0.866,1.267-1.3,2.2-1.3
	c0.267,0,0.434,0.017,0.5,0.05s0.066,0.134,0,0.3c-0.066,0.233-0.1,0.517-0.1,0.851C130.95,72.9,130.917,73.033,130.85,73.1z
	 M134.6,82.95c-0.6,0.033-0.933,0.083-1,0.149c-0.066,0.034-0.233,0.584-0.5,1.65c-0.3,1.066-0.449,1.667-0.449,1.8
	c0,0.066,0.083,0.167,0.25,0.3c0.133,0.101,0.316,0.217,0.55,0.351c0.399,0.267,0.633,0.483,0.7,0.649
	c0.033,0.134-0.017,0.45-0.15,0.95c-0.134,0.334-0.217,0.517-0.25,0.55c-0.066,0.067-0.2,0.017-0.4-0.149
	c-0.267-0.134-1.55-1.017-3.85-2.65c-1.866-1.3-2.884-2.066-3.05-2.3c-0.167-0.233-0.233-0.467-0.2-0.7
	c0.033-0.033,0.116-0.366,0.25-1l0.2-0.6l1.55-0.15c0.9-0.066,2.2-0.184,3.9-0.35c1.833-0.2,2.916-0.3,3.25-0.3
	c0.333,0,0.5,0.066,0.5,0.199c0,0.167-0.067,0.467-0.2,0.9c-0.066,0.3-0.15,0.483-0.25,0.55
	C135.35,82.866,135.066,82.917,134.6,82.95z M132.15,83.2c0-0.101-0.5-0.117-1.5-0.05c-1.034,0.033-1.834,0.1-2.4,0.199
	c-0.267,0.067-0.35,0.15-0.25,0.25c0.1,0.101,0.616,0.467,1.55,1.101c1.233,0.8,1.867,1.2,1.9,1.2
	c0.033-0.034,0.149-0.467,0.35-1.301C132.033,83.767,132.15,83.3,132.15,83.2z M78.55,2.75c-0.066,0.067-0.366,0.083-0.899,0.05
	c-0.334-0.066-0.567-0.117-0.7-0.15c-0.101-0.066-0.167-0.167-0.2-0.3c-0.1-0.533-0.467-0.883-1.1-1.05
	C75.017,1.133,74.5,1.267,74.1,1.7c-0.166,0.167-0.25,0.383-0.25,0.65S73.95,2.833,74.15,3c0.166,0.167,0.716,0.45,1.649,0.85
	C76.167,4.017,76.533,4.2,76.9,4.4c0.366,0.2,0.633,0.367,0.8,0.5c0.5,0.367,0.733,0.883,0.7,1.55c0,0.633-0.25,1.183-0.75,1.65
	c-0.967,0.967-2.317,1.217-4.051,0.75c-0.733-0.2-1.267-0.5-1.6-0.9c-0.366-0.367-0.55-0.867-0.55-1.5V5.8l0.8,0.05
	c0.366,0.033,0.6,0.083,0.7,0.15c0.1,0.033,0.149,0.15,0.149,0.35c0.067,0.4,0.217,0.717,0.45,0.95c0.267,0.2,0.65,0.317,1.15,0.35
	c0.366,0.033,0.649,0.033,0.85,0c0.167-0.033,0.351-0.133,0.55-0.3c0.267-0.2,0.417-0.434,0.45-0.7S76.483,6.167,76.25,6
	c-0.2-0.2-0.783-0.5-1.75-0.9c-0.366-0.167-0.733-0.35-1.1-0.55C73.033,4.35,72.8,4.2,72.7,4.1c-0.601-0.533-0.8-1.2-0.601-2
	c0.134-0.8,0.601-1.4,1.4-1.8c0.533-0.3,1.267-0.383,2.2-0.25c0.899,0.133,1.6,0.417,2.1,0.85c0.267,0.233,0.483,0.55,0.65,0.95
	C78.616,2.25,78.65,2.55,78.55,2.75z M63.45,3.4c-0.2-0.566-0.417-0.95-0.65-1.15c-0.333-0.3-0.733-0.517-1.2-0.65
	s-0.983-0.167-1.55-0.1l-0.9,0.15l0.1,0.7C59.317,2.983,59.4,3.8,59.5,4.8c0.1,1.1,0.183,1.9,0.25,2.4l0.1,0.55l1-0.1
	c0.267-0.033,0.55-0.1,0.85-0.2c0.3-0.1,0.55-0.184,0.75-0.25c0.333-0.2,0.633-0.534,0.9-1c0.267-0.467,0.4-0.9,0.4-1.3
	C63.75,4.433,63.65,3.933,63.45,3.4z M65.35,3.45c0.333,1.533,0.083,2.8-0.75,3.8c-0.4,0.5-0.9,0.867-1.5,1.1
	C62.5,8.617,61.633,8.833,60.5,9c-1.333,0.167-2.033,0.25-2.1,0.25c-0.133,0-0.35-1.433-0.65-4.3c-0.133-1.167-0.233-2.184-0.3-3.05
	c-0.1-0.833-0.133-1.267-0.1-1.3c0.066-0.067,0.566-0.15,1.5-0.25c0.9-0.1,1.667-0.15,2.3-0.15c0.767-0.034,1.4,0.05,1.9,0.25
	C64.217,0.95,64.983,1.95,65.35,3.45z M54.8,2.3L53,2.75c-0.5,0.1-0.933,0.217-1.3,0.35s-0.55,0.217-0.55,0.25
	c0,0.267,0.1,0.667,0.3,1.2c0.2,0.534,0.35,0.784,0.45,0.75c0.1,0,0.7-0.133,1.8-0.4c1.1-0.267,1.65-0.383,1.65-0.35
	c0.033,0,0.083,0.2,0.15,0.6l0.1,0.65l-1.75,0.4c-1,0.233-1.55,0.417-1.65,0.55c-0.067,0.133-0.017,0.633,0.15,1.5
	c0.133,0.567,0.3,0.85,0.5,0.85c0.133,0,0.783-0.15,1.95-0.45c0.467-0.1,0.883-0.183,1.25-0.25c0.367-0.066,0.55-0.083,0.55-0.05
	c0.066,0.066,0.15,0.283,0.25,0.65l0.1,0.55L55.1,9.9c-1.233,0.3-2.067,0.517-2.5,0.65c-0.5,0.2-0.867,0.267-1.1,0.2
	c-0.233-0.033-0.383-0.183-0.45-0.45C50.95,9.833,50.6,8.467,50,6.2c-0.6-2.4-0.9-3.65-0.9-3.75c0-0.067,0.033-0.117,0.1-0.15
	c0.033-0.033,0.083-0.05,0.15-0.05c0.2,0,1.117-0.2,2.75-0.6c0.667-0.167,1.25-0.3,1.75-0.4c0.533-0.133,0.8-0.183,0.8-0.15
	c0.067,0.066,0.117,0.283,0.15,0.65V2.3z M46.15,4.65c-0.7,0.267-1.1,0.434-1.2,0.5c-0.034,0.033,0.066,0.383,0.3,1.05
	c0.233,0.667,0.533,1.433,0.9,2.3c0.833,2.133,1.267,3.283,1.3,3.45c0,0.066-0.067,0.15-0.2,0.25c-0.133,0.1-0.317,0.183-0.55,0.25
	l-0.75,0.3L44.6,9.5c-0.867-2.2-1.3-3.367-1.3-3.5c0-0.1-0.066-0.15-0.2-0.15c-0.133,0.033-0.533,0.167-1.2,0.4
	c-0.333,0.133-0.617,0.233-0.85,0.3c-0.267,0.067-0.417,0.083-0.45,0.05c-0.1-0.067-0.2-0.25-0.3-0.55l-0.2-0.5L46.8,3l0.3,0.5
	c0.167,0.367,0.233,0.583,0.2,0.65C47.267,4.217,46.883,4.383,46.15,4.65z M40.85,15.05c-0.033,0-0.367-0.583-1-1.75
	c-0.667-1.3-1.333-2.6-2-3.9c-0.667-1.333-1-2.033-1-2.1c0-0.1,0.233-0.25,0.7-0.45c0.467-0.2,0.733-0.267,0.8-0.2
	c0.066,0.067,0.75,1.333,2.05,3.8c1.267,2.5,1.9,3.783,1.9,3.85c0,0.034-0.233,0.167-0.7,0.4
	C41.167,14.933,40.917,15.05,40.85,15.05z M33.3,9.65c-0.1-0.233-0.083-0.4,0.05-0.5c0.233-0.167,0.483-0.316,0.75-0.45
	c0.233-0.133,0.367-0.167,0.4-0.1c0.067,0.1,1.283,1.967,3.65,5.6l1.05,1.6l-0.4,0.25c-0.233,0.2-0.566,0.434-1,0.7
	C37.5,16.917,37.3,17,37.2,17c-0.1,0-0.3-0.067-0.6-0.2c-0.333-0.167-0.667-0.367-1-0.6c-0.3-0.2-0.783-0.5-1.45-0.9
	c-0.467-0.233-1.183-0.65-2.15-1.25c-0.733-0.466-1.133-0.7-1.2-0.7c-0.066,0,0.067,0.233,0.4,0.7c2.033,3.1,3.05,4.717,3.05,4.85
	c0,0.033-0.05,0.1-0.15,0.2c-0.133,0.1-0.283,0.2-0.45,0.3L33,19.75l-2.3-3.5c-1.534-2.3-2.317-3.517-2.35-3.65
	c-0.033-0.1,0.133-0.283,0.5-0.55c0.333-0.267,0.75-0.533,1.25-0.8c0.066-0.033,0.417,0.117,1.05,0.45
	c0.667,0.333,1.417,0.767,2.25,1.3c0.867,0.5,1.6,0.917,2.2,1.25s0.9,0.483,0.9,0.45c0-0.1-0.117-0.317-0.35-0.65l-1.7-2.55
	C33.817,10.533,33.433,9.917,33.3,9.65z M26.6,15.15c1.667,1.8,2.733,3.033,3.2,3.7c0.467,0.667,0.7,1.267,0.7,1.8
	c0,0.633-0.333,1.333-1,2.1c-0.667,0.8-1.35,1.3-2.05,1.5c-0.367,0.1-0.667,0.15-0.9,0.15c-0.267,0-0.583-0.066-0.95-0.2
	c-0.3-0.067-0.95-0.567-1.95-1.5c-0.967-0.967-1.85-1.917-2.65-2.85l-0.6-0.75l1.2-1.2l1.85,2.1c1.167,1.333,1.933,2.15,2.3,2.45
	c0.367,0.3,0.767,0.45,1.2,0.45c0.667,0,1.216-0.3,1.65-0.9c0.4-0.633,0.45-1.233,0.15-1.8c-0.067-0.133-0.317-0.45-0.75-0.95
	s-0.933-1.05-1.5-1.65c-1.3-1.434-1.95-2.167-1.95-2.2c0.034-0.066,0.25-0.267,0.65-0.6l0.6-0.5L26.6,15.15z M19.4,30.35
	c0.033,0.667-0.2,1.283-0.7,1.85c-0.3,0.333-0.7,0.566-1.2,0.7c-0.467,0.133-0.917,0.133-1.35,0c-0.3-0.066-0.6-0.233-0.9-0.5
	c-0.3-0.233-0.533-0.517-0.7-0.85c-0.367-0.733-0.3-1.483,0.2-2.25c0.5-0.8,1.2-1.2,2.1-1.2c0.367,0,0.633,0.033,0.8,0.1
	c0.2,0.066,0.434,0.2,0.7,0.4C18.983,29.133,19.333,29.717,19.4,30.35z M7.85,39.25l-1.75,3.7L5.6,42.8
	c-0.333-0.1-0.517-0.2-0.55-0.3c-0.033-0.033-0.017-0.167,0.05-0.4c0.1-0.233,0.217-0.483,0.35-0.75l1.1-2.45
	c0.434-0.933,0.7-1.467,0.8-1.6c0.066-0.066,1.35,0.45,3.85,1.55c2.5,1.133,3.85,1.783,4.05,1.95c0.033,0.034-0.033,0.25-0.2,0.65
	c-0.133,0.4-0.333,0.867-0.6,1.4c-0.6,1.3-0.983,2.133-1.15,2.5c-0.1,0.3-0.216,0.467-0.35,0.5c-0.1,0.033-0.317,0-0.65-0.1
	c-0.1-0.067-0.183-0.133-0.25-0.2c-0.066-0.066-0.1-0.117-0.1-0.15c0-0.133,0.25-0.75,0.75-1.85c0.5-1.066,0.75-1.617,0.75-1.65
	s-0.317-0.2-0.95-0.5c-0.567-0.267-0.933-0.35-1.1-0.25c-0.167,0.133-0.467,0.7-0.9,1.7l-0.65,1.5l-1.1-0.6
	c-0.033-0.033,0.2-0.6,0.7-1.7c0.533-1.1,0.783-1.667,0.75-1.7c-0.034-0.033-0.434-0.217-1.2-0.55L7.85,39.25z M3.45,46.65
	c-0.067-0.033-0.017-0.283,0.15-0.75c0.167-0.433,0.3-0.65,0.4-0.65s0.883,0.2,2.35,0.6c1.467,0.433,2.983,0.883,4.55,1.35
	c0.4,0.133,0.733,0.267,1,0.4c0.233,0.1,0.35,0.183,0.35,0.25l-0.3,1.1c-0.1,0.333-0.2,0.583-0.3,0.75
	c-0.066,0.167-0.183,0.267-0.35,0.3c-0.167,0.067-0.617,0.167-1.35,0.3c-0.733,0.133-2.067,0.333-4,0.6
	c-0.867,0.133-1.333,0.233-1.4,0.3c-0.033,0.033,0.034,0.083,0.2,0.15c0.2,0.1,0.45,0.183,0.75,0.25l2.7,0.8
	c1.133,0.333,1.816,0.517,2.05,0.55c0.233,0.066,0.35,0.133,0.35,0.2c0.033,0.067,0,0.283-0.1,0.65c-0.1,0.3-0.233,0.534-0.4,0.7
	c-0.133,0.133-0.267,0.15-0.4,0.05c-0.034-0.066-0.967-0.367-2.8-0.9c-2.367-0.667-3.783-1.083-4.25-1.25
	c-0.5-0.167-0.75-0.316-0.75-0.45c0-0.167,0.083-0.55,0.25-1.15c0.133-0.466,0.25-0.75,0.35-0.85c0.1-0.1,0.283-0.167,0.55-0.2
	c0.867-0.167,1.333-0.25,1.4-0.25c0.667-0.133,1.633-0.283,2.9-0.45c0.566-0.066,1.083-0.15,1.55-0.25
	c0.434-0.066,0.667-0.117,0.7-0.15s-0.1-0.117-0.4-0.25c-0.3-0.1-0.684-0.217-1.15-0.35c-0.966-0.267-1.966-0.55-3-0.85
	C4.017,46.867,3.483,46.683,3.45,46.65z M2.85,59.6c0.233,0.167,1.3,0.733,3.2,1.7l2.9,1.45l-0.05,0.8c0,0.2-0.033,0.383-0.1,0.55
	c-0.066,0.133-0.117,0.2-0.15,0.2c-0.133,0-0.683-0.25-1.65-0.75c-0.267-0.167-1.467-0.8-3.6-1.9c-1.5-0.8-2.383-1.283-2.65-1.45
	c-0.267-0.167-0.367-0.333-0.3-0.5c0.066-0.267,0.117-0.55,0.15-0.85c0.033-0.233,0.066-0.367,0.1-0.4c0.066-0.1,0.233-0.2,0.5-0.3
	c0.333-0.133,1.783-0.483,4.35-1.05l3.05-0.7c0.767-0.2,1.167-0.283,1.2-0.25c0.034,0.067,0.017,0.383-0.05,0.95
	c-0.033,0.433-0.083,0.7-0.15,0.8c-0.067,0.067-0.25,0.133-0.55,0.2c-0.5,0.1-1.466,0.3-2.9,0.6c-1.667,0.333-2.65,0.533-2.95,0.6
	c-0.3,0.034-0.467,0.067-0.5,0.1C2.633,59.433,2.683,59.5,2.85,59.6z M8.85,67.4L0,67.2v-1.7h2c1.3,0,2.783,0.05,4.45,0.15l2.4,0.1
	V67.4z M0,70.95V70.3h0.9c0.5,0,1.2-0.05,2.1-0.149c0.733-0.101,1.9-0.2,3.5-0.301l2.3-0.1l0.15,2.3c0.066,1.367,0.05,2.3-0.05,2.8
	c-0.1,0.534-0.367,0.934-0.8,1.2c-0.4,0.3-0.867,0.417-1.4,0.351c-0.567-0.034-1-0.217-1.3-0.551C5.1,75.517,4.95,75.3,4.95,75.2
	c0-0.101-0.067-0.15-0.2-0.15c-0.033,0-0.067,0.033-0.1,0.101C4.617,75.217,4.6,75.3,4.6,75.4c0,0.233-0.15,0.449-0.45,0.649
	c-0.267,0.167-0.767,0.334-1.5,0.5L0.9,77c-0.167,0.066-0.267,0.066-0.3,0c-0.067-0.033-0.117-0.184-0.15-0.45
	c-0.133-0.533-0.133-0.883,0-1.05S1,75.184,1.7,75.05c1.066-0.233,1.7-0.467,1.9-0.7c0.2-0.199,0.267-0.716,0.2-1.55l-0.1-1
	L2.35,71.9C1.417,71.967,0.833,72.033,0.6,72.1c-0.233,0.034-0.383-0.033-0.45-0.199C0.05,71.733,0,71.417,0,70.95z M6.45,71.6
	c-0.833,0.067-1.284,0.117-1.35,0.15c-0.067,0.033-0.05,0.434,0.05,1.2c0.1,0.8,0.217,1.267,0.35,1.399
	c0.233,0.301,0.55,0.45,0.95,0.45c0.367,0,0.667-0.149,0.9-0.45c0.133-0.133,0.217-0.316,0.25-0.55s0.05-0.583,0.05-1.05v-1.3
	L6.45,71.6z M10.4,83.6c-0.033,0.2-0.183,0.467-0.45,0.801c-0.333,0.399-0.733,0.733-1.2,1s-1.067,0.483-1.8,0.649
	C6.283,86.217,5.733,86.3,5.3,86.3c-0.4,0-0.867-0.083-1.4-0.25c-0.967-0.3-1.683-1.033-2.15-2.2C1.283,82.65,1.267,81.566,1.7,80.6
	c0.333-0.767,0.95-1.383,1.85-1.85c0.867-0.467,1.883-0.7,3.05-0.7c0.933,0,1.65,0.134,2.15,0.4c0.467,0.3,0.917,0.85,1.35,1.649
	c0.167,0.267,0.267,0.551,0.3,0.851c0.067,0.267,0.1,0.7,0.1,1.3C10.5,82.95,10.467,83.4,10.4,83.6z M5.85,79.85
	c-1.3,0.233-2.2,0.667-2.7,1.301c-0.5,0.633-0.533,1.383-0.1,2.25c0.267,0.533,0.7,0.899,1.3,1.1c0.667,0.167,1.4,0.134,2.2-0.1
	c0.534-0.134,0.934-0.267,1.2-0.4c0.3-0.167,0.6-0.384,0.9-0.65c0.233-0.233,0.383-0.433,0.45-0.6c0.066-0.134,0.1-0.4,0.1-0.8
	c0-0.4-0.034-0.684-0.1-0.851c-0.033-0.166-0.15-0.366-0.35-0.6c-0.3-0.333-0.7-0.55-1.2-0.65C7.05,79.717,6.483,79.717,5.85,79.85z
	 M10.05,88.7c-0.167,0-1.183,0.366-3.05,1.1C5.1,90.533,4.133,90.9,4.1,90.9c-0.067,0-0.2-0.184-0.4-0.551
	c-0.2-0.399-0.3-0.666-0.3-0.8c0-0.033,0.083-0.083,0.25-0.149C3.817,89.3,4,89.217,4.2,89.15c0.433-0.134,1.783-0.65,4.05-1.551
	c2.167-0.866,3.283-1.3,3.35-1.3c0.066,0,0.233,0.4,0.5,1.2c0.2,0.566,0.3,0.917,0.3,1.05c0,0.134-0.083,0.283-0.25,0.45
	c-0.633,0.634-1.517,1.583-2.65,2.85c-1.167,1.267-1.767,1.934-1.8,2c0,0.034,0.066,0.034,0.2,0c0.167-0.033,0.35-0.1,0.55-0.199
	c0.433-0.167,1.4-0.551,2.9-1.15l2.25-0.85c0.066-0.034,0.217,0.183,0.45,0.649c0.233,0.434,0.317,0.684,0.25,0.75
	c-0.066,0.033-1.05,0.434-2.95,1.2l-3.4,1.35c-0.9,0.367-1.434,0.567-1.6,0.601c-0.133,0-0.283-0.15-0.45-0.45
	c-0.133-0.3-0.283-0.684-0.45-1.15l-0.2-0.649L9,90c0.367-0.366,0.65-0.667,0.85-0.9C10.05,88.833,10.117,88.7,10.05,88.7z
	 M14.75,94.8c0.233-0.033,0.433,0.066,0.6,0.3c0.133,0.134,0.35,0.483,0.65,1.051L16.5,97l-2.45,2.55
	c-1.633,1.7-2.417,2.566-2.35,2.601c0.033,0.033,0.633-0.134,1.8-0.5c1.1-0.334,2.15-0.65,3.15-0.95c1-0.267,1.567-0.4,1.7-0.4
	c0.1,0,0.383,0.384,0.85,1.15c0.5,0.733,0.716,1.149,0.65,1.25c-0.067,0.1-1.267,0.866-3.6,2.3c-2.367,1.4-3.6,2.1-3.7,2.1
	c-0.066,0-0.15-0.05-0.25-0.149c-0.1-0.134-0.183-0.283-0.25-0.45c-0.233-0.4-0.316-0.616-0.25-0.65L15,103.9
	c1.833-1.134,2.9-1.817,3.2-2.051c0.3-0.199,0.167-0.216-0.4-0.05l-1.5,0.45c-0.566,0.167-1.367,0.4-2.4,0.7
	c-0.633,0.2-1.316,0.399-2.05,0.6s-1.167,0.3-1.3,0.3c-0.1,0.034-0.283-0.166-0.55-0.6c-0.3-0.434-0.45-0.7-0.45-0.8
	c0-0.2,1.217-1.533,3.65-4c0.5-0.533,0.933-1,1.3-1.4c0.333-0.399,0.483-0.6,0.45-0.6c-0.034-0.033-0.083-0.05-0.15-0.05
	c-0.066,0.033-0.15,0.083-0.25,0.149c-0.133,0.134-0.333,0.267-0.6,0.4c-0.133,0.1-1.133,0.7-3,1.8l-2.7,1.65L7.9,99.8
	c-0.133-0.166-0.233-0.316-0.3-0.45c-0.033-0.133-0.05-0.216-0.05-0.25c0-0.066,0.367-0.316,1.1-0.75c0.733-0.466,1.6-1,2.6-1.6
	c1.2-0.733,1.983-1.2,2.35-1.4C14.133,95.017,14.517,94.833,14.75,94.8z M48.85,123.65c0.333,0.1,0.517,0.149,0.55,0.149
	c0.1,0.066,0.15,0.184,0.15,0.351c0,0.233-0.283,1.199-0.85,2.899c-0.6,1.8-0.95,2.9-1.05,3.3c-0.133,0.434-0.167,0.667-0.1,0.7
	c0.067,0.033,0.633,0.217,1.7,0.55c0.667,0.2,1.083,0.351,1.25,0.45c0.2,0.101,0.3,0.217,0.3,0.351c0,0.3-0.017,0.483-0.05,0.55
	c-0.067,0.133-0.183,0.2-0.35,0.2c-0.233,0.033-1-0.167-2.3-0.601c-1.667-0.5-2.533-0.783-2.6-0.85s0.317-1.417,1.15-4.05
	c0.8-2.634,1.25-4.017,1.35-4.15C48.033,123.467,48.317,123.517,48.85,123.65z M41.65,120.65l0.65,0.3
	c0.5,0.233,0.867,0.399,1.1,0.5c0.133,0.033,0.233,0.083,0.3,0.149c0.066,0.067,0.083,0.117,0.05,0.15
	c-0.067,0.1-0.183,1.217-0.35,3.35c-0.167,2.134-0.283,3.301-0.35,3.5c-0.033,0.167-0.066,0.584-0.1,1.25
	c-0.034,0.634-0.117,0.95-0.25,0.95c-0.1,0-0.4-0.116-0.9-0.35c-0.3-0.134-0.483-0.25-0.55-0.351c-0.067-0.1-0.083-0.267-0.05-0.5
	l0.1-0.899c0.034-0.233,0.017-0.4-0.05-0.5c-0.1-0.134-0.633-0.434-1.6-0.9l-1.8-0.8l-0.6,0.6c-0.133,0.2-0.283,0.351-0.45,0.45
	c-0.133,0.134-0.233,0.2-0.3,0.2c-0.167,0-0.467-0.1-0.9-0.3c-0.434-0.2-0.65-0.334-0.65-0.4c0-0.1,1.867-1.899,5.6-5.399
	L41.65,120.65z M42.1,122.6c-0.033-0.1-0.067-0.149-0.1-0.149c-0.1,0-0.65,0.517-1.65,1.55l-1.5,1.5l1.25,0.6
	c0.8,0.4,1.25,0.601,1.35,0.601c0.066,0.033,0.167-0.517,0.3-1.65c0.133-1.133,0.233-1.833,0.3-2.1
	C42.083,122.816,42.1,122.7,42.1,122.6z M58.75,126.2l0.5,0.1c0.367,0.066,1.05,0.15,2.05,0.25c0.9,0.101,1.583,0.25,2.05,0.45
	c0.433,0.2,0.783,0.5,1.05,0.9c0.2,0.267,0.317,0.5,0.35,0.699c0.033,0.167,0.033,0.45,0,0.851c-0.067,0.899-0.35,1.533-0.85,1.899
	c-0.467,0.367-1.217,0.534-2.25,0.5c-0.767,0-1.25-0.033-1.45-0.1c-0.133-0.033-0.233,0.017-0.3,0.15
	c-0.033,0.1-0.083,0.399-0.15,0.899c-0.1,1.101-0.183,1.75-0.25,1.95s-0.25,0.3-0.55,0.3c-0.434-0.033-0.733-0.066-0.9-0.1
	c-0.167-0.033-0.267-0.117-0.3-0.25c0-0.167,0.05-0.634,0.15-1.4c0.133-1.066,0.3-2.5,0.5-4.3L58.75,126.2z M60.2,129.05
	c-0.133,0.8-0.167,1.267-0.1,1.4c0.066,0.166,0.433,0.233,1.1,0.2c0.667-0.034,1.117-0.15,1.35-0.351c0.3-0.2,0.45-0.533,0.45-1
	c0.033-0.467-0.1-0.816-0.4-1.05c-0.167-0.134-0.55-0.267-1.15-0.4c-0.6-0.133-0.95-0.149-1.05-0.05
	C60.333,127.866,60.267,128.283,60.2,129.05z M77.5,126.55c0.733-0.467,1.566-0.7,2.5-0.7c0.733,0,1.3,0.084,1.7,0.25
	c0.399,0.167,0.8,0.483,1.2,0.95c0.566,0.667,0.949,1.617,1.149,2.851c0.2,1.199,0.101,2.166-0.3,2.899
	c-0.2,0.434-0.45,0.783-0.75,1.05c-0.267,0.233-0.616,0.45-1.05,0.65c-0.4,0.167-0.983,0.267-1.75,0.3
	c-0.767,0.066-1.334,0.033-1.7-0.1c-0.3-0.101-0.65-0.334-1.05-0.7c-0.4-0.366-0.684-0.717-0.851-1.05
	c-0.333-0.634-0.55-1.434-0.649-2.4c-0.101-0.934-0.066-1.7,0.1-2.3C76.316,127.55,76.8,126.983,77.5,126.55z M78.05,127.95
	c-0.434,0.633-0.533,1.566-0.3,2.8c0.233,1.267,0.65,2.083,1.25,2.45c0.333,0.2,0.717,0.316,1.15,0.35
	c0.466,0,0.866-0.083,1.199-0.25c0.7-0.399,1.051-1.2,1.051-2.399c0-0.567-0.084-1.117-0.25-1.65c-0.167-0.5-0.384-0.95-0.65-1.35
	c-0.366-0.534-0.934-0.784-1.7-0.75C79.033,127.15,78.45,127.417,78.05,127.95z M73.25,128.1c0.167,0.334,0.25,0.717,0.25,1.15
	c-0.033,0.434-0.134,0.783-0.3,1.05c-0.066,0.101-0.184,0.217-0.351,0.351c-0.166,0.133-0.35,0.233-0.55,0.3l-0.6,0.25l0.5,0.2
	c0.399,0.166,0.649,0.366,0.75,0.6c0.133,0.233,0.267,0.75,0.399,1.55c0.167,0.934,0.301,1.517,0.4,1.75
	c0.066,0.134,0.05,0.217-0.05,0.25c-0.101,0.033-0.351,0.05-0.75,0.05c-0.533,0-0.851-0.083-0.95-0.25
	c-0.1-0.133-0.2-0.649-0.3-1.55c-0.101-0.733-0.283-1.217-0.55-1.45s-0.75-0.333-1.45-0.3l-1.05,0.05l0.05,3.65h-1.85v-2.25
	c0-1.566-0.05-3.017-0.15-4.35l-0.1-2.101h2.6c1.467,0,2.45,0.066,2.95,0.2S73.017,127.667,73.25,128.1z M71.35,128.6
	c-0.199-0.133-0.399-0.216-0.6-0.25c-0.233-0.066-0.583-0.1-1.05-0.1h-1.15v2.55h0.9c0.267,0,0.533-0.017,0.8-0.05
	s0.45-0.066,0.55-0.1c0.533-0.2,0.851-0.517,0.95-0.95C71.85,129.3,71.717,128.934,71.35,128.6z M21.3,104.25
	c0.1,0.033,0.733,0.717,1.9,2.05c1.133,1.334,1.7,2.05,1.7,2.15c0,0.1-0.117,0.233-0.35,0.399c-0.267,0.2-0.433,0.301-0.5,0.301
	c-0.066-0.067-0.517-0.567-1.35-1.5l-1.25-1.4l-0.85,0.65c-0.2,0.166-0.383,0.333-0.55,0.5c-0.167,0.166-0.25,0.267-0.25,0.3
	s0.117,0.2,0.35,0.5c0.2,0.3,0.467,0.649,0.8,1.05l1.2,1.4l-1.05,0.75l-0.55-0.65c-0.367-0.5-0.767-0.967-1.2-1.4l-0.75-0.75
	l-0.95,0.801c-0.267,0.233-0.483,0.433-0.65,0.6l-0.3,0.3c0,0.101,0.3,0.467,0.9,1.101c0.6,0.633,1.033,1.116,1.3,1.449l0.4,0.551
	l-0.4,0.35c-0.267,0.233-0.45,0.35-0.55,0.35c-0.033,0-0.133-0.1-0.3-0.3c-0.2-0.2-0.417-0.434-0.65-0.7
	c-0.7-0.833-1.167-1.399-1.4-1.699c-0.3-0.301-0.65-0.684-1.05-1.15l-0.4-0.5l2.55-2.1c1.867-1.601,3.033-2.584,3.5-2.95
	C21,104.366,21.233,104.217,21.3,104.25z M28,111.3l-0.55,1.8c-0.5,1.634-0.833,2.733-1,3.301c-0.133,0.566-0.233,1-0.3,1.3
	l-0.1,0.6l0.4-0.45c0.533-0.6,1.25-1.383,2.15-2.35c0.867-0.967,1.367-1.533,1.5-1.7l0.35-0.35l1.15,0.95l-0.5,0.6
	c-0.267,0.333-0.883,1.033-1.85,2.1l-2.4,2.7c-0.667,0.733-1.033,1.101-1.1,1.101s-0.167-0.067-0.3-0.2
	c-0.1-0.167-0.383-0.417-0.85-0.75c-0.233-0.2-0.367-0.334-0.4-0.4c-0.1-0.1-0.133-0.267-0.1-0.5c0-0.267,0.267-1.233,0.8-2.899
	c0.5-1.7,0.8-2.801,0.9-3.301c0.067-0.5-0.05-0.55-0.35-0.149c-0.367,0.467-1.117,1.3-2.25,2.5s-1.733,1.8-1.8,1.8
	c-0.1,0-0.316-0.15-0.65-0.45l-0.5-0.399l0.65-0.75c2.033-2.267,3.483-3.851,4.35-4.75l0.9-0.95L28,111.3z M33.4,115.7
	c0.233,0.133,1.083,0.666,2.55,1.6c1.433,0.967,2.3,1.566,2.6,1.8c0.167,0.101,0.233,0.184,0.2,0.25c0,0.067-0.083,0.2-0.25,0.4
	l-0.4,0.5l-1-0.7c-0.667-0.434-1.05-0.649-1.15-0.649c-0.034,0-0.267,0.283-0.7,0.85c-0.4,0.566-0.867,1.267-1.4,2.1
	c-1.3,2-2,3.017-2.1,3.051c-0.033,0.033-0.133,0.017-0.3-0.051c-0.167-0.066-0.35-0.166-0.55-0.3l-0.7-0.45l4.25-6.25l-1.1-0.699
	c-0.3-0.2-0.567-0.384-0.8-0.551c-0.2-0.133-0.3-0.233-0.3-0.3s0.1-0.233,0.3-0.5c0.133-0.166,0.25-0.267,0.35-0.3
	C32.967,115.5,33.133,115.566,33.4,115.7z M124.7,105.1c0.166,0.434,0.25,0.733,0.25,0.9c0,0.2-0.066,0.483-0.2,0.85
	c-0.267,0.767-0.667,1.434-1.2,2c-0.133,0.134-0.267,0.25-0.399,0.351c-0.733,0.666-1.5,1-2.301,1c-0.466,0-1.066-0.167-1.8-0.5
	c-0.233-0.134-0.45-0.25-0.649-0.351c-0.233-0.166-0.467-0.333-0.7-0.5c-0.4-0.3-0.767-0.666-1.101-1.1c-0.666-0.8-1-1.566-1-2.3
	c0-0.667,0.284-1.4,0.851-2.2s1.166-1.35,1.8-1.65c0.033-0.033,0.083-0.05,0.15-0.05c0.133-0.066,0.3-0.116,0.5-0.149
	c0.3-0.067,0.566-0.101,0.8-0.101c0.934,0,1.916,0.4,2.95,1.2C123.717,103.3,124.4,104.167,124.7,105.1z M123.3,106.45
	c0-0.334-0.05-0.601-0.149-0.8c-0.067-0.2-0.2-0.434-0.4-0.7c-0.366-0.434-0.816-0.834-1.35-1.2
	c-0.567-0.366-1.084-0.616-1.551-0.75c-0.5-0.134-0.949-0.116-1.35,0.05c-0.033,0.033-0.066,0.05-0.1,0.05
	c-0.367,0.167-0.667,0.434-0.9,0.801c-0.333,0.533-0.434,1.083-0.3,1.649c0.166,0.566,0.55,1.117,1.149,1.65
	c0.034,0,0.051,0.017,0.051,0.05c0.533,0.434,1,0.75,1.399,0.95c0.434,0.166,0.9,0.25,1.4,0.25c0.399,0.033,0.684,0.017,0.85-0.05
	c0.167-0.067,0.384-0.233,0.65-0.5c0.233-0.267,0.383-0.483,0.45-0.65C123.25,107.083,123.3,106.816,123.3,106.45z M113.05,107.55
	l1.15,1.15c0.066,0.033,0.133,0.083,0.2,0.149c0.8,0.767,1.783,1.7,2.949,2.801c0.434,0.366,0.784,0.683,1.051,0.949
	c0.633,0.601,0.949,0.934,0.949,1c0,0.067-0.183,0.284-0.55,0.65l-0.55,0.5l-3.7-3.4c-1.3-1.233-2.1-1.966-2.399-2.199l-0.4-0.301
	L113.05,107.55z M111.25,110.5c0.2,0.2,0.3,0.333,0.3,0.4c0.033,0.066-0.033,0.166-0.2,0.3l-1.699,1.5l4.949,5.55l-0.55,0.55
	c-0.366,0.4-0.583,0.601-0.649,0.601c-0.067,0-0.417-0.367-1.051-1.101c-0.733-0.866-1.55-1.8-2.449-2.8
	c-0.434-0.467-0.784-0.833-1.051-1.1s-0.416-0.417-0.449-0.45c-0.034,0-0.167,0.083-0.4,0.25c-0.2,0.133-0.45,0.316-0.75,0.55
	l-1,0.9l-0.4-0.551c-0.166-0.267-0.25-0.433-0.25-0.5c0-0.066,0.067-0.149,0.2-0.25c0.167-0.133,0.467-0.399,0.9-0.8
	c0.434-0.366,1.149-0.983,2.149-1.85c0.067-0.066,0.15-0.134,0.25-0.2l1.75-1.5L111.25,110.5z M104.4,116.15
	c0.633,0.066,1.133,0.267,1.5,0.6c0.333,0.333,0.5,0.533,0.5,0.6c0,0.067-0.217,0.233-0.65,0.5l-0.65,0.351l-0.699-0.351
	c-0.4-0.233-0.767-0.316-1.101-0.25c-0.066,0-0.116,0-0.149,0c-0.301,0.101-0.634,0.334-1,0.7c-0.267,0.267-0.417,0.483-0.45,0.65
	c-0.066,0.133-0.084,0.416-0.05,0.85c0.033,0.334,0.1,0.634,0.199,0.9c0.101,0.3,0.267,0.633,0.5,1
	c0.667,1.066,1.384,1.717,2.15,1.95s1.483,0,2.15-0.7c0.199-0.2,0.333-0.367,0.399-0.5c0.033-0.167,0.033-0.417,0-0.75
	c-0.033-0.367-0.033-0.617,0-0.75c0.033-0.101,0.184-0.25,0.45-0.45c0.366-0.3,0.616-0.434,0.75-0.4
	c0.134,0.034,0.267,0.25,0.4,0.65c0.199,0.733,0.116,1.45-0.25,2.15c-0.4,0.699-1.034,1.3-1.9,1.8c-0.533,0.3-1.1,0.467-1.7,0.5
	c-0.633,0.033-1.166-0.066-1.6-0.3c-0.467-0.267-0.934-0.65-1.4-1.15c-0.5-0.533-0.899-1.083-1.2-1.65
	c-0.633-1.199-0.767-2.3-0.399-3.3c0.2-0.6,0.583-1.133,1.149-1.6c0.334-0.267,0.733-0.5,1.2-0.7
	C103.15,116.233,103.767,116.116,104.4,116.15z M91,123.4c0.167,0.233,0.25,0.416,0.25,0.55c0,0.033-0.116,0.116-0.35,0.25
	c-0.267,0.1-0.551,0.2-0.851,0.3c-0.8,0.267-1.2,0.483-1.2,0.65c0,0.1,0.084,0.433,0.25,1c0.2,0.6,0.434,1.267,0.7,2
	c0.233,0.699,0.417,1.283,0.55,1.75c0.334,0.899,0.517,1.449,0.551,1.649c0.033,0.233,0.033,0.384,0,0.45
	c-0.034,0.066-0.117,0.116-0.25,0.15c-0.634,0.233-1.017,0.3-1.15,0.199c-0.134-0.1-0.35-0.566-0.65-1.399
	c-0.466-1.367-0.85-2.517-1.149-3.45c-0.434-1.267-0.667-1.917-0.7-1.95c0-0.033-0.35,0.066-1.05,0.3H85.9
	c-0.7,0.233-1.117,0.351-1.25,0.351c-0.101,0-0.233-0.167-0.4-0.5c-0.167-0.334-0.217-0.533-0.15-0.601
	c0.034-0.033,0.617-0.233,1.75-0.6c0.034,0,0.067-0.017,0.101-0.05c0.3-0.066,0.583-0.15,0.85-0.25
	c0.767-0.267,1.517-0.517,2.25-0.75c1-0.334,1.533-0.5,1.601-0.5C90.75,122.95,90.866,123.1,91,123.4z M94.65,122.65L95.1,123.6
	c0.134,0.233,0.25,0.45,0.351,0.65c0.133,0.167,0.233,0.25,0.3,0.25c0.1,0,0.667-0.25,1.7-0.75L99,123l0.25,0.45
	c0.2,0.3,0.3,0.5,0.3,0.6c0,0.033-0.149,0.134-0.45,0.3c-0.066,0.034-0.149,0.084-0.25,0.15c-0.267,0.134-0.566,0.283-0.899,0.45
	c-0.434,0.233-0.816,0.434-1.15,0.6c-0.3,0.2-0.45,0.316-0.45,0.351c0,0.1,0.15,0.483,0.45,1.149c0.334,0.7,0.584,1.033,0.75,1
	c0.134-0.066,0.566-0.267,1.3-0.6c0.167-0.066,0.367-0.15,0.601-0.25l1.649-0.8l0.301,0.5c0.166,0.366,0.216,0.566,0.149,0.6
	c-0.066,0.1-0.899,0.533-2.5,1.3c-0.066,0.033-0.133,0.066-0.2,0.101c-1.5,0.699-2.283,1.05-2.35,1.05
	c-0.033,0-0.267-0.384-0.7-1.15c-0.399-0.767-0.866-1.666-1.399-2.7l-1.95-3.899l5.05-2.45c0.033,0,0.1,0.05,0.2,0.15
	c0.066,0.1,0.149,0.216,0.25,0.35c0.133,0.233,0.2,0.384,0.2,0.45c0,0.1-0.051,0.184-0.15,0.25c-0.134,0.1-0.233,0.149-0.3,0.149
	s-0.601,0.25-1.601,0.75L94.65,122.65z"/>
<path fill-rule="evenodd" clip-rule="evenodd" fill="#28A7E7" d="M105.225,61.2c-0.903,0.237-1.778,0.487-2.625,0.75
	c0.367-0.133,0.75-0.267,1.15-0.4c0.366-0.1,0.983-0.25,1.85-0.45C105.471,61.133,105.346,61.167,105.225,61.2z M104.275,77.575
	c0.312-0.535,0.621-1.077,0.925-1.625c1.733-3.033,3.066-6.167,4-9.4c0.3-1.033,0.633-2.35,1-3.95v0.05c-0.367,1.6-0.7,2.917-1,3.95
	c-0.934,3.2-2.267,6.333-4,9.4C104.901,76.534,104.593,77.059,104.275,77.575z M91.4,90.8v-0.05c0-0.062,0.274-0.254,0.824-0.575
	c-0.188,0.115-0.362,0.24-0.524,0.375C91.502,90.649,91.401,90.732,91.4,90.8z M110.35,96.05l0.801-0.6h0.05L110.35,96.05z
	 M102.2,100.425c0.6-0.241,1.199-0.499,1.8-0.774c0.517-0.22,1.05-0.461,1.6-0.726c-0.548,0.281-1.082,0.54-1.6,0.775
	C103.398,99.962,102.799,100.204,102.2,100.425z M71.525,101.375c-0.767-0.238-1.217-0.363-1.351-0.375
	c0.075,0.005,0.267,0.038,0.575,0.1C70.995,101.189,71.253,101.28,71.525,101.375z M66.05,101.15c-0.367,0.1-0.767,0.216-1.2,0.35
	c-0.967,0.3-2.25,0.616-3.85,0.95c1.6-0.367,2.883-0.7,3.85-1C65.283,101.316,65.683,101.217,66.05,101.15z M70.05,101.05V101h0.05
	L70.05,101.05z M45.2,90.8c-0.034-0.066-0.15-0.166-0.35-0.3c-0.111-0.093-0.236-0.184-0.375-0.275
	c0.483,0.296,0.725,0.471,0.725,0.525V90.8z M58.05,83.875L58.15,84v0.025C58.119,83.973,58.085,83.923,58.05,83.875z M43.75,69.925
	c1.15,0.675,2.25,1.4,3.3,2.175c0.717,0.531,1.417,1.09,2.1,1.676c-0.689-0.563-1.389-1.104-2.1-1.625
	C45.994,71.37,44.894,70.629,43.75,69.925z M29.95,73.325c-0.284-0.575-0.55-1.15-0.8-1.726c-1-2.333-1.816-4.766-2.45-7.3
	c-0.086-0.334-0.161-0.651-0.225-0.95c0.066,0.283,0.142,0.583,0.225,0.9c0.633,2.567,1.45,5,2.45,7.3
	C29.405,72.138,29.672,72.729,29.95,73.325z M30.25,64.45c-0.033-0.034-0.033-0.067,0-0.1c0.033,0,0.25,0.05,0.65,0.15
	c0.434,0.1,0.934,0.25,1.5,0.45c-1.4-0.434-2.117-0.617-2.15-0.55V64.45z M83.35,72.9c-0.054,0.054-0.104,0.112-0.149,0.175
	c-0.021,0.004-0.038,0.013-0.05,0.024l-1.65,1.65C82.101,74.117,82.718,73.501,83.35,72.9z M86.9,74.15
	c0.506-0.452,1.022-0.886,1.55-1.301c4.366-3.399,9.633-6.066,15.8-8c1.167-0.367,1.816-0.55,1.95-0.55l0.05,0.05v0.05
	c-0.001-0.033-0.018-0.05-0.05-0.05c-0.134,0-0.767,0.167-1.9,0.5c-6.2,1.933-11.483,4.617-15.85,8.05
	C87.93,73.306,87.413,73.722,86.9,74.15z M75.1,90.3v-0.05c0.428-0.937,0.819-1.753,1.176-2.45
	C75.925,88.517,75.533,89.35,75.1,90.3z M89.35,62.725c0.126-0.202,0.243-0.41,0.351-0.625c0.166-0.267,0.45-0.8,0.85-1.6
	c0.566-1.1,0.983-2.05,1.25-2.85c0.4-1.033,0.733-2.3,1-3.8c0.134-0.567,0.233-1.083,0.3-1.55c0-0.1,0.017-0.216,0.051-0.35
	c-0.101,0.966-0.25,1.917-0.45,2.85C92.025,57.688,90.909,60.33,89.35,62.725z M86.2,66.65c-3.267,3.333-7.2,5.6-11.8,6.8
	c-1.467,0.366-3.101,0.6-4.9,0.7c-1.833,0.1-3.467,0.033-4.9-0.2c-2.767-0.434-5.333-1.233-7.7-2.4c-2.367-1.166-4.483-2.7-6.35-4.6
	c-0.933-0.9-1.517-1.5-1.75-1.8c-0.267-0.3-0.733-0.95-1.4-1.95c-0.967-1.333-1.8-2.867-2.5-4.6c-0.733-1.767-1.233-3.5-1.5-5.2
	c-0.125-0.659-0.209-1.468-0.25-2.425C43.162,50.992,43.178,51,43.2,51l0.05,0.8c0.002,0.025,0.002,0.05,0,0.075l0.025,0.15
	c0.25,2.719,1.025,5.411,2.325,8.075c1.433,2.867,3.3,5.35,5.6,7.45c1,0.9,1.95,1.65,2.85,2.25c0.867,0.601,1.867,1.184,3,1.75
	c1.333,0.667,2.684,1.2,4.05,1.601c1.367,0.366,2.867,0.666,4.5,0.899c1.167,0.134,2.65,0.134,4.45,0
	c1.767-0.133,3.351-0.383,4.75-0.75C78.959,72.211,82.759,69.994,86.2,66.65z M89.025,63.2c-0.794,1.178-1.702,2.294-2.726,3.35
	c0.167-0.2,0.634-0.767,1.4-1.7C88.346,64.063,88.788,63.513,89.025,63.2z"/>
<path fill-rule="evenodd" clip-rule="evenodd" fill="#223ECC" d="M105.225,61.2c0.121-0.034,0.246-0.067,0.375-0.1l0.25-0.05
	C105.637,61.099,105.429,61.149,105.225,61.2z M81.3,74.95L81.4,74.85c0.032-0.034,0.065-0.067,0.1-0.1
	C81.434,74.85,81.366,74.917,81.3,74.95z M83.475,72.8c-0.103,0.088-0.193,0.18-0.274,0.275c0.046-0.062,0.096-0.121,0.149-0.175
	L83.475,72.8z M96.15,82.6c-2.167,2.2-4.5,4.067-7,5.601L96.15,82.6z M105.85,66.1c-0.014,0.069-0.03,0.145-0.05,0.225
	c-0.027,0.1-0.061,0.208-0.1,0.325l0.05-0.2C105.783,66.35,105.816,66.233,105.85,66.1z"/>
</svg>
