<?xml version="1.0" encoding="utf-8"?>
<!-- Generator: Adobe Illustrator 15.0.2, SVG Export Plug-In . SVG Version: 6.00 Build 0)  -->
<!DOCTYPE svg PUBLIC "-//W3C//DTD SVG 1.0//EN" "http://www.w3.org/TR/2001/REC-SVG-20010904/DTD/svg10.dtd">
<svg version="1.0" id="Layer_1" xmlns="http://www.w3.org/2000/svg" xmlns:xlink="http://www.w3.org/1999/xlink" x="0px" y="0px"
	 width="202.85px" height="71.55px" viewBox="0 0 202.85 71.55" enable-background="new 0 0 202.85 71.55" xml:space="preserve">
<path fill-rule="evenodd" clip-rule="evenodd" fill="#FFFFFF" d="M163.35,69.75V38.4l39.5-33.9L192.6,21.45l-12.8,4.05L163.35,69.75
	z M105.7,48.35c0.333,2.467,0.767,4.75,1.3,6.851c1.267,4.767,3.017,8.267,5.25,10.5c2.767,2.6,6.583,3.899,11.45,3.899
	c6.333,0,11.467-2.017,15.399-6.05c3.867-3.967,5.801-9.116,5.801-15.45h1.949v23.25H144.9c-0.067-0.8-0.551-1.517-1.45-2.149
	c-0.934-0.667-2.033-1-3.3-1c-0.567,0-2.65,0.55-6.25,1.649c-3.601,1.134-7,1.7-10.2,1.7c-8.667,0-15.884-3.533-21.65-10.6
	c-3.066-3.767-5.3-7.967-6.7-12.601H105.7z M105.5,46.4H94.8c-0.8-3.301-1.2-6.817-1.2-10.55c0-9.833,2.816-18.184,8.45-25.05
	c5.767-7.066,12.983-10.6,21.65-10.6c2.233,0,4.983,0.483,8.25,1.45c3.267,1,5.717,1.5,7.35,1.5c0.834,0,1.634-0.283,2.4-0.85
	c0.767-0.6,1.184-1.233,1.25-1.9h1.95v21.45h-1.95c0-6.133-2.167-11.067-6.5-14.8c-3.7-3.267-7.95-4.9-12.75-4.9
	c-4.867,0-8.684,1.3-11.45,3.9c-2.233,2.233-3.983,5.733-5.25,10.5c-1.366,5.233-2.05,11.667-2.05,19.3
	C104.95,39.65,105.134,43.167,105.5,46.4z M85.1,48.35l7.7,19.7h6.25V70H70.4v-1.95h8.95l-7.2-19.7h-22.8l-7.25,19.7h9V70H31.8
	v-1.95h8.3l7.15-19.7l0.7-1.949L64.7,0h1.4l18.25,46.4h-12.8l0.6,1.949H85.1z M8.8,46.4V3.7H0V1.75h28.25V3.7H19.5v42.7H8.8z
	 M8.8,48.35h10.7v19.7h8.75V70H0v-1.95h8.8V48.35z M60.8,16.55L50,46.4h21.55L60.8,16.55z"/>
<path fill-rule="evenodd" clip-rule="evenodd" fill="#CCCCCC" d="M192.6,21.45l-29.25,48.3L179.8,25.5L192.6,21.45z M105.5,46.4
	l0.25,1.949h-0.05H95.35H85.1H72.15l-0.6-1.949h12.8H94.8H105.5z M47.25,48.35H19.5H8.8V46.4h10.7h28.45L47.25,48.35z"/>
</svg>
