<?xml version="1.0" encoding="utf-8"?>
<!-- Generator: Adobe Illustrator 15.0.2, SVG Export Plug-In . SVG Version: 6.00 Build 0)  -->
<!DOCTYPE svg PUBLIC "-//W3C//DTD SVG 1.0//EN" "http://www.w3.org/TR/2001/REC-SVG-20010904/DTD/svg10.dtd">
<svg version="1.0" id="Layer_1" xmlns="http://www.w3.org/2000/svg" xmlns:xlink="http://www.w3.org/1999/xlink" x="0px" y="0px"
	 width="800.5px" height="361.45px" viewBox="0 0 800.5 361.45" enable-background="new 0 0 800.5 361.45" xml:space="preserve">
<g>
	
		<linearGradient id="SVGID_1_" gradientUnits="userSpaceOnUse" x1="1554.6348" y1="300.6631" x2="1549.7144" y2="648.7382" gradientTransform="matrix(0.7798 0 0 0.7798 -809 -180.2998)">
		<stop  offset="0" style="stop-color:#FFFFFF;stop-opacity:0.3843"/>
		<stop  offset="1" style="stop-color:#FFFFFF;stop-opacity:0.0039"/>
	</linearGradient>
	<path fill-rule="evenodd" clip-rule="evenodd" fill="url(#SVGID_1_)" d="M790.542,236.916c8.604,15.959,11.645,32.452,9.123,49.477
		c-2.807,17.597-10.657,32.881-23.549,45.851c-14.166,13.802-32.764,23.536-55.792,29.202H84.967
		c-30.854-6.472-53.739-21.886-68.659-46.24c-6.602-10.813-11.293-22.718-14.075-35.713c-2.521-12.711-2.898-25.551-1.13-38.521
		c1.767-12.996,5.315-25.173,10.643-36.531c5.822-11.619,13.153-21.757,21.99-30.412c20.248-18.663,45.044-26.642,74.39-23.939
		c4.548-35.974,18.338-60.445,41.367-73.416c22.016-12.71,49.724-13.386,83.123-2.027c9.877-21.366,32.907-35.297,69.088-41.796
		c4.808-10.553,11.644-18.805,20.508-24.758c8.344-5.667,17.324-8.37,26.941-8.109c9.617,0,17.96,2.976,25.03,8.928
		c7.33,6.757,12.139,16.089,14.426,27.993c16.193-10.812,33.647-18.117,52.361-21.911c17.987-4.055,35.324-4.458,52.012-1.208
		c16.946,3.509,31.372,10.41,43.276,20.703c12.893,10.812,21.496,24.602,25.811,41.367c69.581,6.758,108.921,27.578,118.019,62.459
		c37.194,7.044,59.717,25.98,67.566,56.806C766.889,205.933,781.185,219.865,790.542,236.916z"/>
</g>
</svg>
