<?xml version="1.0" encoding="utf-8"?>
<!-- Generator: Adobe Illustrator 15.0.2, SVG Export Plug-In . SVG Version: 6.00 Build 0)  -->
<!DOCTYPE svg PUBLIC "-//W3C//DTD SVG 1.0//EN" "http://www.w3.org/TR/2001/REC-SVG-20010904/DTD/svg10.dtd">
<svg version="1.0" id="Layer_1" xmlns="http://www.w3.org/2000/svg" xmlns:xlink="http://www.w3.org/1999/xlink" x="0px" y="0px"
	 width="778.4px" height="365.2px" viewBox="0 0 778.4 365.2" enable-background="new 0 0 778.4 365.2" xml:space="preserve">
<g>
	
		<linearGradient id="SVGID_1_" gradientUnits="userSpaceOnUse" x1="139.0327" y1="456.8262" x2="137.1882" y2="866.8762" gradientTransform="matrix(0.759 0 0 0.759 284.75 -313.2998)">
		<stop  offset="0" style="stop-color:#FFFFFF;stop-opacity:0.3843"/>
		<stop  offset="1" style="stop-color:#FFFFFF;stop-opacity:0.0039"/>
	</linearGradient>
	<path fill-rule="evenodd" clip-rule="evenodd" fill="url(#SVGID_1_)" d="M530.026,32.547c13.309,15.534,18.735,33.75,16.281,54.649
		c8.273-9.412,19.481-15.864,33.624-19.355c14.169-3.492,27.78-3.15,40.836,1.024c14.295,4.579,25.072,13.042,32.334,25.389
		c8.299,14.143,10.993,32.056,8.084,53.738c36.205,6.856,58.127,25.288,65.768,55.294c18.723,10.525,32.639,24.087,41.746,40.685
		c8.375,15.534,11.322,31.587,8.843,48.159c-2.706,17.129-10.335,32.005-22.884,44.631c-13.789,13.435-31.892,22.909-54.309,28.425
		H81.902c-15.281-3.138-28.716-8.83-40.304-17.078c-10.702-7.641-19.481-17.204-26.338-28.691
		C8.834,308.64,4.419,296.735,2.016,283.706c-2.302-12.55-2.605-25.275-0.911-38.179c1.695-12.854,5.225-24.883,10.588-36.092
		c5.541-11.562,12.638-21.366,21.29-29.412c9.185-8.551,19.583-14.611,31.196-18.179c12.499-3.871,25.92-4.668,40.266-2.391
		c4.427-35.016,17.85-58.836,40.266-71.461c21.43-12.372,48.4-13.03,80.912-1.974c0.885-15.585,3.593-29.247,8.121-40.987
		c5.794-15.054,14.207-25.68,25.238-31.879c11.537-6.477,23.884-10.575,37.04-12.295c12.776-1.67,24.921-0.911,36.433,2.277
		c11.79,3.238,21.569,8.677,29.336,16.319c8.298,8.146,13.523,18.089,15.673,29.829c9.741-19.785,24.77-33.625,45.086-41.519
		c18.521-7.186,38.039-8.399,58.559-3.643C501.551,8.878,517.857,18.353,530.026,32.547z"/>
</g>
</svg>
