<?xml version="1.0" encoding="utf-8"?>
<!-- Generator: Adobe Illustrator 15.0.2, SVG Export Plug-In . SVG Version: 6.00 Build 0)  -->
<!DOCTYPE svg PUBLIC "-//W3C//DTD SVG 1.0//EN" "http://www.w3.org/TR/2001/REC-SVG-20010904/DTD/svg10.dtd">
<svg version="1.0" id="Selected_Items" xmlns="http://www.w3.org/2000/svg" xmlns:xlink="http://www.w3.org/1999/xlink" x="0px"
	 y="0px" width="34.4px" height="35.65px" viewBox="0 0 34.4 35.65" enable-background="new 0 0 34.4 35.65" xml:space="preserve">
<g>
	<path fill-rule="evenodd" clip-rule="evenodd" fill="#434092" d="M29.35,5.05c1.601,1.6,2.834,3.434,3.7,5.5
		c0.9,2.1,1.351,4.317,1.351,6.65c0,2.2-0.384,4.3-1.15,6.3c-0.767,1.934-1.85,3.684-3.25,5.25l-1.15-2.05
		c2.267-2.733,3.4-5.9,3.4-9.5c0-2.034-0.4-3.983-1.2-5.85c-0.767-1.8-1.833-3.4-3.2-4.8c-1.399-1.367-3-2.433-4.8-3.2
		c-1.866-0.8-3.816-1.2-5.85-1.2c-2.034,0-3.983,0.4-5.85,1.2c-1.8,0.767-3.4,1.833-4.8,3.2c-1.367,1.4-2.433,3-3.2,4.8
		c-0.8,1.867-1.2,3.816-1.2,5.85c0,3.6,1.133,6.767,3.4,9.5l-1.1,2.05c-1.4-1.566-2.483-3.316-3.25-5.25c-0.8-2-1.2-4.1-1.2-6.3
		c0-2.333,0.45-4.55,1.35-6.65c0.9-2.066,2.133-3.9,3.7-5.5c1.567-1.566,3.383-2.8,5.45-3.7C12.633,0.45,14.867,0,17.2,0
		c2.333,0,4.566,0.45,6.7,1.35C25.967,2.25,27.783,3.483,29.35,5.05z M19.5,18.35c-0.5,0.5-1.083,0.784-1.75,0.851
		c-0.634,0.066-1.233-0.101-1.8-0.5c-0.5-0.467-0.784-1.034-0.85-1.7c-0.067-0.7,0.1-1.317,0.5-1.85c0.433-0.5,0.983-0.8,1.65-0.9
		c0.7-0.067,1.333,0.117,1.9,0.55c0.5,0.434,0.783,1,0.85,1.7C20.1,17.1,19.934,17.717,19.5,18.35z M16.9,20.5
		c0.4,0.3,0.617,0.717,0.65,1.25c0.066,0.5-0.066,0.95-0.399,1.35c-0.334,0.4-0.75,0.617-1.25,0.65c-0.533,0.066-1-0.066-1.4-0.4
		c-0.367-0.233-0.583-0.649-0.65-1.25c-0.034-0.533,0.1-1,0.4-1.399C14.583,20.333,15,20.1,15.5,20
		C16.066,19.967,16.533,20.134,16.9,20.5z M16.35,29.15c0-0.301,0.066-0.534,0.2-0.7c0.2-0.167,0.417-0.267,0.65-0.3
		c0.233-0.034,0.45,0.033,0.649,0.199c0.233,0.167,0.351,0.367,0.351,0.601c0,0.3-0.067,0.533-0.2,0.7
		c-0.167,0.199-0.367,0.3-0.6,0.3c-0.268,0.033-0.5-0.033-0.7-0.2C16.5,29.616,16.383,29.417,16.35,29.15z M16.9,24.9
		c0.233-0.301,0.55-0.467,0.95-0.5c0.367-0.067,0.717,0.017,1.051,0.25c0.3,0.267,0.466,0.583,0.5,0.949
		c0,0.4-0.101,0.75-0.301,1.051c-0.233,0.3-0.566,0.483-1,0.55c-0.399,0.066-0.733-0.05-1-0.351c-0.3-0.199-0.483-0.5-0.55-0.899
		C16.55,25.55,16.667,25.2,16.9,24.9z"/>
	<polygon fill-rule="evenodd" clip-rule="evenodd" fill="#5990CE" points="20.85,8.65 23.55,8.65 23.55,19.45 32.4,35.65 2,35.65 
		10.85,19.45 10.85,8.65 13.55,8.65 13.55,19.75 6.6,32.95 27.8,32.95 20.85,19.75 	"/>
</g>
</svg>
