<?xml version="1.0" encoding="utf-8"?>
<!-- Generator: Adobe Illustrator 15.0.2, SVG Export Plug-In . SVG Version: 6.00 Build 0)  -->
<!DOCTYPE svg PUBLIC "-//W3C//DTD SVG 1.0//EN" "http://www.w3.org/TR/2001/REC-SVG-20010904/DTD/svg10.dtd">
<svg version="1.0" id="Layer_1" xmlns="http://www.w3.org/2000/svg" xmlns:xlink="http://www.w3.org/1999/xlink" x="0px" y="0px"
	 width="111.55px" height="111.55px" viewBox="0 0 111.55 111.55" enable-background="new 0 0 111.55 111.55" xml:space="preserve">
<g>
	<polygon fill-rule="evenodd" clip-rule="evenodd" fill="#FFFFFF" fill-opacity="0.498" points="111.536,76.685 111.536,111.548 
		-0.014,-0.002 34.849,-0.002 	"/>
</g>
<g>
	<path fill-rule="evenodd" clip-rule="evenodd" fill="#413E97" d="M98.615,78.843c0.123-0.451-0.041-0.903-0.492-1.354
		c-0.288-0.288-0.72-0.473-1.295-0.555c-0.492,0-1.047,0.308-1.662,0.924l-0.802,1.171c-0.369,0.697-0.266,1.334,0.309,1.909
		c0.411,0.41,0.883,0.555,1.417,0.431c0.534-0.082,1.066-0.41,1.601-0.985C98.266,79.808,98.574,79.294,98.615,78.843z
		 M98.431,73.237l0.738,0.739l-2.278,2.279c0.533-0.083,0.924-0.062,1.17,0.062l0.924,0.555c0.575,0.574,0.821,1.232,0.739,1.971
		c-0.04,0.821-0.432,1.581-1.17,2.278c-0.698,0.699-1.479,1.109-2.342,1.232c-0.738,0.165-1.436-0.082-2.093-0.739l-0.679-1.046
		v-0.987l-0.554,0.555l-0.678-0.677L98.431,73.237z M91.839,69.973l0.802,0.802l-3.019,3.018l-0.431,0.678
		c-0.206,0.451-0.124,0.862,0.245,1.231c0.493,0.492,1.109,0.575,1.849,0.247c0.205-0.042,0.574-0.328,1.108-0.862l2.279-2.28
		l0.801,0.802l-4.559,4.558l-0.738-0.739l0.738-0.616h-0.862c-0.41,0-0.841-0.225-1.293-0.678c-0.657-0.656-0.924-1.293-0.801-1.909
		l0.739-1.108L91.839,69.973z M91.348,66.154l0.861,0.862l-6.222,6.221l-0.862-0.862l2.896-2.895l-3.203-3.203l-2.895,2.896
		l-0.863-0.862l6.222-6.222l0.862,0.862l-2.587,2.587l3.203,3.203L91.348,66.154z M48.969,23.776l0.739,0.739l-6.222,6.222
		l-0.738-0.739L48.969,23.776z M39.668,22.606c0.739-0.739,1.54-1.171,2.402-1.294c0.822-0.082,1.561,0.206,2.218,0.862
		c0.616,0.616,0.903,1.314,0.862,2.095c0.041,0.78-0.329,1.561-1.109,2.34c-0.698,0.698-1.479,1.15-2.34,1.355
		c-0.78,0.041-1.54-0.308-2.279-1.047c-0.657-0.657-0.965-1.335-0.924-2.033C38.498,24.146,38.888,23.386,39.668,22.606z
		 M43.61,22.852c-0.452-0.452-0.965-0.595-1.54-0.431c-0.616,0.123-1.17,0.431-1.663,0.924c-0.452,0.493-0.718,1.006-0.801,1.54
		c-0.123,0.534,0.041,1.026,0.493,1.478c0.534,0.534,1.047,0.678,1.54,0.432c0.534-0.083,1.068-0.411,1.602-0.985l0.801-1.171
		C44.288,23.981,44.144,23.386,43.61,22.852z M35.603,22.852l-0.739-0.739l4.558-4.559l0.739,0.739l-0.801,0.801l0.985-0.124
		c0.411,0,0.78,0.165,1.109,0.493l0.247,0.247l-0.801,0.8l-0.247-0.246c-0.369-0.37-0.78-0.534-1.232-0.493
		c-0.493,0-0.903,0.164-1.232,0.493L35.603,22.852z M34.617,13.859c0.903,0,1.622,0.267,2.156,0.801
		c0.534,0.534,0.821,1.068,0.862,1.602c0.124,0.574-0.102,1.211-0.677,1.909l-0.739-0.739l0.37-0.985
		c0-0.329-0.186-0.678-0.555-1.047c-0.493-0.493-1.047-0.595-1.663-0.308c-0.452,0.124-0.904,0.411-1.355,0.863
		c-0.534,0.534-0.821,1.026-0.862,1.478c-0.124,0.534,0.021,1.006,0.431,1.417c0.287,0.288,0.636,0.431,1.047,0.431
		c0.37,0,0.759-0.144,1.17-0.431l0.739,0.739c-0.616,0.493-1.273,0.739-1.971,0.739c-0.616-0.124-1.191-0.452-1.725-0.985
		c-0.575-0.575-0.842-1.253-0.801-2.033c0.041-0.698,0.431-1.417,1.17-2.156C33.036,14.372,33.837,13.941,34.617,13.859z
		 M29.011,7.392c0.575-0.575,1.232-0.863,1.971-0.863c0.822,0.083,1.54,0.432,2.156,1.047c0.616,0.616,0.986,1.314,1.108,2.095
		c0.124,0.78-0.164,1.519-0.862,2.217l-0.801-0.8c0.287-0.288,0.472-0.637,0.554-1.047c0.123-0.534-0.124-1.108-0.739-1.725
		c-0.493-0.493-0.945-0.739-1.355-0.739c-0.493,0.083-0.842,0.226-1.047,0.431c-0.329,0.329-0.432,0.677-0.308,1.047l1.417,2.525
		l0.555,1.294c0.082,0.738-0.144,1.375-0.678,1.909c-0.698,0.698-1.437,0.944-2.217,0.739c-0.863-0.288-1.581-0.719-2.156-1.294
		c-0.821-0.821-1.232-1.602-1.232-2.341c0-0.903,0.329-1.684,0.985-2.34l0.801,0.801l-0.677,1.17
		c-0.124,0.698,0.164,1.396,0.862,2.094l0.985,0.616c0.616,0.37,1.171,0.308,1.664-0.185c0.328-0.329,0.452-0.657,0.369-0.985
		c0-0.288-0.185-0.76-0.554-1.417l-0.678-1.047l-0.677-1.54C28.334,8.439,28.519,7.884,29.011,7.392z M80.938,59.07l0.8,0.801
		l-4.558,4.558l-0.801-0.8L80.938,59.07z M84.325,59.995l0.8,0.8l-1.231,1.232l0.678,0.677l-0.615,0.616l-0.679-0.677l-3.018,3.018
		c-0.083,0.082-0.145,0.226-0.186,0.432c0.041,0.123,0.123,0.246,0.247,0.369l0.247,0.246l-0.555,0.555
		c-0.041-0.041-0.145-0.103-0.309-0.185l-0.308-0.308c-0.369-0.37-0.534-0.698-0.493-0.986l0.493-0.862l3.08-3.079l-0.616-0.616
		l0.616-0.616l0.615,0.616L84.325,59.995z M81.737,58.27l0.862-0.862l0.802,0.801l-0.863,0.862L81.737,58.27z M73.669,60.672
		c-0.492-0.164-1.047-0.555-1.663-1.171c-0.781-0.779-1.191-1.601-1.231-2.464c0-1.231,0.533-2.381,1.601-3.449
		c0.985-0.985,2.095-1.52,3.326-1.601c1.191-0.042,2.197,0.349,3.019,1.17c0.574,0.575,0.944,1.191,1.108,1.848
		c0.287,0.904,0.104,1.827-0.555,2.771l-0.8-0.8c0.328-0.575,0.431-1.088,0.308-1.54c-0.124-0.616-0.411-1.15-0.862-1.602
		c-0.575-0.575-1.272-0.822-2.095-0.739c-0.779,0.082-1.622,0.554-2.525,1.417c-0.738,0.739-1.19,1.479-1.354,2.217
		c-0.124,0.862,0.164,1.643,0.861,2.341c0.534,0.534,1.171,0.801,1.911,0.801c0.697,0.082,1.396-0.246,2.093-0.985l-1.971-1.971
		l0.739-0.739l2.771,2.771l-3.325,3.326l-0.555-0.555l0.616-0.985L73.669,60.672z M51.248,31.353
		c-0.575,0.082-1.027,0.287-1.355,0.616l2.525,2.525c0.288-0.288,0.472-0.636,0.555-1.047c0.205-0.533,0.041-1.067-0.493-1.601
		C52.151,31.517,51.741,31.353,51.248,31.353z M53.896,32.399l0.185,1.293l-0.493,1.109l-0.985,0.985l-3.265-3.265
		c-0.452,0.452-0.718,0.924-0.8,1.417c-0.124,0.452,0.041,0.904,0.493,1.355c0.411,0.411,0.862,0.616,1.355,0.616l0.863-0.246
		l0.739,0.739l-0.863,0.37l-0.739,0.123c-0.534-0.042-0.985-0.206-1.355-0.493l-0.677-0.554c-0.493-0.493-0.78-1.15-0.863-1.971
		c0-0.821,0.37-1.602,1.109-2.341c0.698-0.698,1.498-1.088,2.402-1.17c0.903,0,1.663,0.308,2.279,0.924
		C53.568,31.578,53.773,31.947,53.896,32.399z M57.223,35.849c0.41,0,0.78,0.164,1.108,0.493l0.246,0.247l-0.801,0.8l-0.245-0.247
		c-0.37-0.369-0.78-0.533-1.232-0.493c-0.493,0-0.903,0.165-1.231,0.493l-2.587,2.587l-0.739-0.739l4.558-4.558l0.738,0.739
		l-0.8,0.801L57.223,35.849z M63.69,41.577c0.616,0.616,0.903,1.314,0.862,2.095c0.041,0.78-0.329,1.56-1.109,2.34
		c-0.698,0.698-1.479,1.149-2.34,1.355c-0.78,0.041-1.54-0.308-2.279-1.047c-0.657-0.657-0.965-1.335-0.924-2.033
		c0-0.739,0.391-1.499,1.17-2.279c0.739-0.739,1.54-1.17,2.402-1.293C62.294,40.633,63.033,40.92,63.69,41.577z M63.443,44.041
		c0.247-0.657,0.104-1.252-0.431-1.787c-0.452-0.452-0.965-0.595-1.54-0.431c-0.616,0.123-1.17,0.431-1.663,0.924
		c-0.452,0.492-0.719,1.005-0.801,1.54c-0.123,0.534,0.041,1.026,0.492,1.478c0.534,0.534,1.048,0.678,1.54,0.431
		c0.534-0.082,1.068-0.411,1.603-0.985L63.443,44.041z M66.646,44.78l0.801,0.801l-0.677,0.677c0.533-0.082,0.944-0.041,1.231,0.124
		l0.985,0.616c0.616,0.616,0.822,1.273,0.616,1.971l-0.862,1.232l-2.895,2.895l-0.739-0.739l2.833-2.833l0.492-0.863
		c0.165-0.411,0.062-0.8-0.308-1.17c-0.205-0.205-0.369-0.329-0.493-0.369l-0.924-0.185l-0.739,0.246l-0.738,0.616l-2.341,2.341
		l-0.801-0.801L66.646,44.78z M51.001,25.809l0.739,0.738l-6.221,6.222L44.78,32.03L51.001,25.809z"/>
</g>
</svg>
