<?xml version="1.0" encoding="UTF-8" standalone="no"?>
<svg
   height="72"
   viewBox="0 0 72 72"
   width="72"
   version="1.1"
   id="svg8"
   sodipodi:docname="linkedin_micro.svg"
   inkscape:version="1.2.1 (9c6d41e, 2022-07-14)"
   xmlns:inkscape="http://www.inkscape.org/namespaces/inkscape"
   xmlns:sodipodi="http://sodipodi.sourceforge.net/DTD/sodipodi-0.dtd"
   xmlns="http://www.w3.org/2000/svg"
   xmlns:svg="http://www.w3.org/2000/svg">
  <sodipodi:namedview
     id="namedview9812"
     pagecolor="#ffffff"
     bordercolor="#000000"
     borderopacity="0.25"
     inkscape:showpageshadow="2"
     inkscape:pageopacity="0.0"
     inkscape:pagecheckerboard="0"
     inkscape:deskcolor="#d1d1d1"
     showgrid="false"
     inkscape:zoom="13.180556"
     inkscape:cx="33.913593"
     inkscape:cy="41.6902"
     inkscape:window-width="1390"
     inkscape:window-height="1099"
     inkscape:window-x="0"
     inkscape:window-y="25"
     inkscape:window-maximized="0"
     inkscape:current-layer="svg8" />
  <defs
     id="defs12" />
  <g
     fill="none"
     fill-rule="evenodd"
     id="g6"
     transform="matrix(1.0064037,0,0,1.0064037,-0.15564206,-0.1565971)">
    <path
       d="M 71.696522,71.241307 H 57.027482 V 46.575258 c 0,-6.762754 -2.602871,-10.542007 -8.024745,-10.542007 -5.898294,0 -8.979906,3.932901 -8.979906,10.542007 V 71.241307 H 25.885983 v -46.98841 h 14.136848 v 6.329332 c 0,0 4.25058,-7.764896 14.350652,-7.764896 10.095424,0 17.323039,6.086249 17.323039,18.673821 z M 9.0207725,18.100144 c -4.8153107,0 -8.717295,-3.882448 -8.717295,-8.670724 0,-4.788278 3.9019843,-8.670727 8.717295,-8.670727 4.8153115,0 8.7149705,3.882449 8.7149705,8.670727 0,4.788276 -3.899659,8.670724 -8.7149705,8.670724 z M 1.7211112,71.241307 H 16.462196 V 24.252897 H 1.7211112 Z"
       fill="#ffffff"
       id="path4"
       style="fill:#007ebb;fill-opacity:1;stroke-width:1.36416" />
  </g>
</svg>
