<?xml version="1.0" encoding="UTF-8" standalone="no"?>
<svg
   height="72"
   viewBox="0 0 72 72"
   width="72"
   version="1.1"
   id="svg8"
   xmlns="http://www.w3.org/2000/svg"
   xmlns:svg="http://www.w3.org/2000/svg">
  <defs
     id="defs12" />
  <g
     fill="none"
     fill-rule="evenodd"
     id="g6">
    <rect
       style="fill:#007ebb;fill-opacity:1;stroke-width:9.49189;paint-order:markers stroke fill"
       id="rect1470"
       width="72"
       height="72"
       x="0"
       y="0" />
    <path
       d="M 52.743941,51.68177 H 45.70734 V 39.696862 c 0,-3.285933 -1.248573,-5.122223 -3.849395,-5.122223 -2.829356,0 -4.307577,1.910945 -4.307577,5.122223 V 51.68177 H 30.769055 V 28.85072 h 6.781313 v 3.075339 c 0,0 2.038964,-3.772861 6.883874,-3.772861 4.84268,0 8.309699,2.957228 8.309699,9.073364 z M 22.678971,25.861178 c -2.30986,0 -4.181605,-1.88643 -4.181605,-4.212991 0,-2.326561 1.871745,-4.212992 4.181605,-4.212992 2.30986,0 4.18049,1.886431 4.18049,4.212992 0,2.326561 -1.87063,4.212991 -4.18049,4.212991 z M 19.177392,51.68177 h 7.07116 V 28.85072 h -7.07116 z"
       fill="#ffffff"
       id="path4"
       style="stroke-width:0.658588" />
  </g>
</svg>
