<?xml version="1.0" encoding="utf-8"?>
<!-- Generator: Adobe Illustrator 15.0.2, SVG Export Plug-In . SVG Version: 6.00 Build 0)  -->
<!DOCTYPE svg PUBLIC "-//W3C//DTD SVG 1.1//EN" "http://www.w3.org/Graphics/SVG/1.1/DTD/svg11.dtd">
<svg version="1.1" id="Layer_1" xmlns="http://www.w3.org/2000/svg" xmlns:xlink="http://www.w3.org/1999/xlink" x="0px" y="0px"
	 width="67.25px" height="63.75px" viewBox="0 0 67.25 63.75" enable-background="new 0 0 67.25 63.75" xml:space="preserve">
<g>
	<path fill="#787878" d="M47.14,27.917H19.61c-1.442,0-2.61,1.22-2.61,2.729c0,1.508,1.168,2.729,2.61,2.729h27.53
		c1.441,0,2.61-1.219,2.61-2.729C49.75,29.137,48.582,27.917,47.14,27.917z"/>
	<path fill="#787878" d="M47.14,17H19.61C18.168,17,17,18.219,17,19.729c0,1.511,1.168,2.73,2.61,2.73h27.53
		c1.441,0,2.61-1.22,2.61-2.73C49.75,18.219,48.582,17,47.14,17z"/>
	<path fill="#787878" d="M47.14,38.834H19.61c-1.442,0-2.61,1.219-2.61,2.729c0,1.511,1.168,2.729,2.61,2.729h27.53
		c1.441,0,2.61-1.219,2.61-2.729C49.751,40.053,48.582,38.834,47.14,38.834z"/>
</g>
</svg>
