<?xml version="1.0" encoding="utf-8"?>
<!-- Generator: Adobe Illustrator 15.0.2, SVG Export Plug-In . SVG Version: 6.00 Build 0)  -->
<!DOCTYPE svg PUBLIC "-//W3C//DTD SVG 1.0//EN" "http://www.w3.org/TR/2001/REC-SVG-20010904/DTD/svg10.dtd">
<svg version="1.0" id="Layer_1" xmlns="http://www.w3.org/2000/svg" xmlns:xlink="http://www.w3.org/1999/xlink" x="0px" y="0px"
	 width="46.2px" height="57.65px" viewBox="0 0 46.2 57.65" enable-background="new 0 0 46.2 57.65" xml:space="preserve">
<path fill-rule="evenodd" clip-rule="evenodd" fill="#FFFFFF" d="M36.95,5.05c5.967,5.134,8.066,12.733,6.3,22.8
	c3.467,4.601,3.883,8.7,1.25,12.301c-2.333,3.232-5.517,4.683-9.55,4.35l-0.4,9.9l-0.6,0.05C34.05,54.616,34.1,54.8,34.1,55v1.65
	c0,0.266-0.1,0.5-0.3,0.699c-0.2,0.2-0.433,0.301-0.7,0.301H32.15c-0.268,0-0.5-0.101-0.7-0.301c-0.2-0.199-0.3-0.434-0.3-0.699V55
	l0.05-0.25l-0.75,0.05v1.9c0,0.267-0.101,0.483-0.3,0.649c-0.167,0.2-0.384,0.301-0.65,0.301h-1.05c-0.233,0-0.45-0.101-0.65-0.301
	c-0.2-0.166-0.3-0.383-0.3-0.649V55l-0.7,0.05v1.601c0,0.266-0.1,0.5-0.3,0.699c-0.2,0.2-0.434,0.301-0.7,0.301h-0.95
	c-0.267,0-0.5-0.101-0.699-0.301c-0.2-0.199-0.301-0.434-0.301-0.699v-1.5H23.15V57c0,0.434-0.217,0.65-0.65,0.65h-1.65
	c-0.434,0-0.65-0.217-0.65-0.65v-1.9h-0.75v1.75c0,0.2-0.083,0.384-0.25,0.551c-0.134,0.166-0.317,0.25-0.55,0.25h-1.3
	c-0.233,0-0.417-0.084-0.55-0.25c-0.167-0.167-0.25-0.351-0.25-0.551V54.95L15.8,54.9v1.949c0,0.233-0.066,0.417-0.2,0.551
	c-0.167,0.166-0.35,0.25-0.55,0.25h-1.4c-0.5,0-0.75-0.268-0.75-0.801V54.7L12,54.6l-0.7-10.1C6.367,44.6,2.95,42.767,1.05,39
	c-1.933-3.834-1.216-7.517,2.15-11.05c-1.367-4.9-1.467-9.284-0.3-13.15c1.3-4.333,4.233-8.133,8.8-11.4
	C20.367-1.634,28.783-1.083,36.95,5.05z M38.4,29.3c-1.5-1.033-3.334-1.55-5.5-1.55c-2.134,0-3.95,0.517-5.45,1.55
	s-2.25,2.283-2.25,3.75s0.75,2.733,2.25,3.8c1.5,1.033,3.316,1.551,5.45,1.551c2.133,0,3.967-0.518,5.5-1.551
	c1.5-1.066,2.25-2.333,2.25-3.8S39.9,30.333,38.4,29.3z M8,29.5c-1.5,1.033-2.25,2.283-2.25,3.75S6.5,35.983,8,37.05
	c1.533,1.033,3.367,1.55,5.5,1.55s3.95-0.517,5.45-1.55c1.5-1.066,2.25-2.333,2.25-3.8s-0.75-2.717-2.25-3.75s-3.317-1.55-5.45-1.55
	C11.333,27.95,9.5,28.467,8,29.5z M25.9,49.15L23.1,42.5l-2.8,6.65H25.9z"/>
</svg>
