<?xml version="1.0" encoding="utf-8"?>
<!-- Generator: Adobe Illustrator 15.0.2, SVG Export Plug-In . SVG Version: 6.00 Build 0)  -->
<!DOCTYPE svg PUBLIC "-//W3C//DTD SVG 1.0//EN" "http://www.w3.org/TR/2001/REC-SVG-20010904/DTD/svg10.dtd">
<svg version="1.0" xmlns="http://www.w3.org/2000/svg" xmlns:xlink="http://www.w3.org/1999/xlink" x="0px" y="0px" width="210px"
	 height="210px" viewBox="0 0 210 210" enable-background="new 0 0 210 210" xml:space="preserve">
<g id="Layer_1">
	<g>
		<path fill-rule="evenodd" clip-rule="evenodd" fill="#443597" d="M32.043,32.043c20.08-20.011,44.32-30.017,72.72-30.017
			c28.4,0,52.606,10.005,72.617,30.017c20.08,20.114,30.12,44.354,30.12,72.72c0,28.4-10.04,52.606-30.12,72.617
			c-7.618,7.646-15.845,13.835-24.678,18.567c-14.372,7.702-30.352,11.553-47.939,11.553c-28.219,0-52.33-9.911-72.333-29.733
			c-0.129-0.129-0.258-0.258-0.387-0.387c-20.011-20.011-30.017-44.217-30.017-72.617C2.026,76.397,12.032,52.157,32.043,32.043z"/>
	</g>
</g>
<g id="Layer_4">
	<g>
		<path fill-rule="evenodd" clip-rule="evenodd" fill="#FED2C2" d="M113.015,77.893c1.066,2.166,2.425,3.352,4.075,3.558
			c-2.063-7.667,0.825-12.584,8.664-14.75l4.642,4.487c0.585,5.708,3.8,10.161,9.645,13.358c-1.856,4.985-2.062,9.971-0.618,14.957
			l-10.212,1.238c-2.613,0.413-4.797,1.65-6.551,3.713c-3.335,7.152-4.16,15.955-2.475,26.407c-2.683,4.091-5.175,3.266-7.479-2.477
			c3.919-6.429,5.175-13.392,3.765-20.888c-3.473-4.779-3.593-7.753-0.361-8.922l-1.856-3.146
			c-6.223-1.788-10.796-4.143-13.719-7.066l0.052-0.051c1.272-1.891,3.662-3.026,7.168-3.404
			C110.505,82.741,112.259,80.403,113.015,77.893z M59.996,108.425l0.052,0.104c-1.375,0.344-2.149-0.396-2.321-2.218
			c0-0.104,0-0.206,0-0.31c-0.103,0-0.155-0.017-0.155-0.052c-0.584-3.06-0.121-5.622,1.393-7.685c0.103,0,0.207,0,0.309,0
			c0.963,0.069,1.582,0.482,1.857,1.238c0,0.207,0,0.413,0,0.619c0,0.103,0,0.206,0,0.31c0.104,0,0.172-0.035,0.206-0.104
			c0.378-0.584,1.049-0.859,2.012-0.825c0,0.103,0,0.207,0,0.31c-1.101,0.894-2.114,1.839-3.043,2.837
			c-0.068,0.068-0.103,0.154-0.103,0.258c-0.035,0.034-0.052,0.085-0.052,0.154C59.12,105.09,59.068,106.878,59.996,108.425z
			 M61.131,106.001c1.1-1.753,1.994-1.599,2.682,0.464c0.516,1.616,1.134,1.754,1.856,0.413c0.069-0.069,0.121-0.155,0.155-0.258
			c0,0.103,0,0.206,0,0.31c0.069,0.344,0.275,0.55,0.619,0.618c-0.413,1.41-1.238,2.046-2.476,1.909
			c-0.104-0.035-0.207-0.052-0.31-0.052c-0.618,0-1.065-0.172-1.34-0.517c-0.035-0.068-0.104-0.103-0.207-0.103
			c0-0.104,0-0.206,0-0.31c-0.962-0.55-1.29-1.272-0.98-2.166C61.131,106.207,61.131,106.104,61.131,106.001z M116.213,146.745
			l-0.619-0.361l-4.436,0.31l-5.312-2.218l-8.355-0.258l-3.713-2.166l1.547,2.785c2.51,5.639,6.876,8.802,13.1,9.49
			c-0.938,0.843-1.479,1.712-1.624,2.604c-0.012,0.099-0.02,0.193-0.025,0.284c-0.311,1.616,0.378,1.942,2.062,0.979l3.249-2.476
			c-0.583,0.954-0.729,1.96-0.438,3.018c0.271,1.012,0.933,2.068,1.985,3.172c0.069,2.028-1.049,3.747-3.353,5.157l-1.908,4.178
			c-3.232,2.166-8.613,0.188-16.143-5.932c-3.063-5.881-5.308-11.306-6.73-16.271c-2.134-7.521-2.383-13.993-0.748-19.418
			c-6.223-8.974-6.618-17.827-1.186-26.561c0.55-0.481,1.461-0.344,2.733,0.413c0.55,0.31,1.856,1.272,3.919,2.889
			c1.754,1.375,3.146,2.286,4.178,2.733c1.513,0.688,3.06,1.049,4.642,1.083c6.402,0.282,9.6-1.024,9.592-3.92l0.465,0.206
			c-0.176-0.301-0.348-0.584-0.516-0.851c-0.02-0.075-0.036-0.152-0.052-0.232h0.154l2.785,1.548c0,2.854-1.547,4.934-4.642,6.24
			c0.619,2.957,0.653,6.516,0.104,10.676c-0.398,0.201-0.829,0.494-1.289,0.877l-0.026,0.025c-0.974,0.873-1.481,1.913-1.521,3.12
			c-0.129,0.883-0.061,1.881,0.207,2.992c0.034,0.103,0.051,0.206,0.051,0.31c0,0.103,0,0.206,0,0.309
			c0.172,0.447,0.481,0.757,0.929,0.929c0.103,0,0.206,0,0.309,0c0,0.103,0,0.206,0,0.31c0.104,0,0.172,0.017,0.207,0.051
			c0.027,0.03,0.054,0.056,0.077,0.078c0.109,0.164,0.222,0.327,0.335,0.49l1.135,2.062
			C115.388,136.361,118.345,140.144,116.213,146.745z M96.563,201.981l-27.386-20.269l2.527-15.473
			c0.137-2.957,0.756-4.607,1.856-4.951c1.375,0.447,3.181,1.616,5.415,3.507c1.341,1.101,3.542,3.009,6.602,5.725
			c2.854,2.441,5.45,4.333,7.788,5.674c3.129,1.754,6.155,2.785,9.077,3.094c-2.544,13.169,0.207,18.12,8.252,14.854l7.015-5.208
			c-2.579,3.575-7.514,8.045-14.802,13.409L96.563,201.981z M125.445,123.382c-0.035-6.326,1.821-7.771,5.569-4.332
			c7.324,11.621,7.324,19.495,0,23.621C124.653,139.782,122.797,133.353,125.445,123.382z"/>
		<path fill-rule="evenodd" clip-rule="evenodd" fill="#D5A987" d="M125.754,66.701c0.757-0.241,1.599-0.447,2.527-0.619
			c6.808,9.972,13.633,16.022,20.475,18.154v19.599c-4.263-1.65-9.661-2.544-16.193-2.682l-4.333,2.063
			c6.945-0.309,13.169,1.238,18.67,4.642l0.929,5.312c-1.788,11.243-5.261,21.249-10.418,30.017
			c-0.447,0.756-0.911,1.513-1.393,2.27c-1.754,6.636-5.277,12.584-10.572,17.845c-0.196,0.114-0.394,0.234-0.594,0.36
			c-4.327,2.627-8.17,6.014-11.526,10.161c-7.29,2.51-15.198,0.894-23.725-4.849c-7.118-6.877-13.049-13.564-17.793-20.062
			c-1.557-2.216-2.588-4.253-3.094-6.111c-0.439-1.643-0.473-3.147-0.104-4.513l0.928-17.536l1.083-9.283l4.384,6.344l2.734-23.879
			c-0.104-4.092,1.616-6.894,5.157-8.407c14.028,2.888,23.397-1.994,28.108-14.647c0.481,2.957,1.152,5.295,2.011,7.015
			c-0.756,2.51-2.51,4.848-5.261,7.014c-3.506,0.378-5.896,1.513-7.168,3.404l-0.052,0.051c2.923,2.923,7.497,5.278,13.719,7.066
			l1.856,3.146c-3.231,1.169-3.111,4.143,0.361,8.922c1.41,7.496,0.154,14.459-3.765,20.888c2.304,5.742,4.796,6.567,7.479,2.477
			c-1.686-10.452-0.86-19.255,2.475-26.407c1.754-2.063,3.938-3.301,6.551-3.713l10.212-1.238
			c-1.444-4.985-1.238-9.971,0.618-14.957c-5.845-3.197-9.06-7.65-9.645-13.358L125.754,66.701z M63.658,109.405
			c0.104,0,0.207,0.017,0.31,0.052c1.237,0.137,2.063-0.499,2.476-1.909c-0.344-0.068-0.55-0.274-0.619-0.618
			c0-0.104,0-0.207,0-0.31c-0.034,0.103-0.085,0.188-0.155,0.258c-0.722,1.341-1.341,1.203-1.856-0.413
			c-0.688-2.063-1.582-2.217-2.682-0.464h-0.154c0.722-0.928,1.444-1.788,2.166-2.579c0.757-0.756,1.547-1.444,2.373-2.063
			c0.103,0,0.171-0.034,0.206-0.104c0.241-0.275,0.688-0.344,1.341-0.206c-0.31,0.619-0.602,1.238-0.876,1.857
			c-0.035,0.103-0.052,0.206-0.052,0.309h-0.155c-0.172,1.101,0.292,1.616,1.393,1.547c0,0.103,0,0.207,0,0.31
			c0,0.103,0.017,0.188,0.052,0.258c0.068,0.034,0.155,0.051,0.258,0.051c0.034,1.479-0.121,3.025-0.464,4.642h-0.155
			c0,2.304,0,4.591,0,6.859c0,0.104,0,0.207,0,0.311c0,0.24,0,0.48,0,0.722c0,0.172,0,0.344,0,0.516c0,0.103,0,0.206,0,0.31
			c-0.207,1.1-0.808,1.856-1.805,2.269c-0.034,0.034-0.052,0.104-0.052,0.207c-0.618,0.206-1.254,0.396-1.908,0.567
			c-0.069,0.034-0.155,0.052-0.258,0.052c-2.957,0.172-5.02-1.496-6.189-5.003c-0.035-0.069-0.052-0.155-0.052-0.258
			c0-0.104,0-0.207,0-0.311c-0.344-0.584-0.499-1.409-0.464-2.475H56.18c0-0.104,0-0.206,0-0.31s0-0.207,0-0.31s0-0.206,0-0.31
			c0-0.206,0-0.412,0-0.619c-0.997-4.057-1.203-8.716-0.619-13.977c0-0.103,0-0.224,0-0.361c0-0.104,0-0.207,0-0.309
			c0.138-0.86,0.24-1.788,0.309-2.786c0-0.103,0.018-0.188,0.052-0.258c1.169-3.885,3.232-4.418,6.189-1.599v0.155
			c0.619-0.172,1.238-0.121,1.857,0.155c0,0.103,0.017,0.188,0.051,0.258c0.585,0.55,1.29,0.98,2.115,1.289c0,0.104,0,0.207,0,0.31
			s0,0.207,0,0.31c-0.859,0.206-0.894,0.945-0.103,2.218c0.068,0.069,0.103,0.154,0.103,0.258c-0.035,0-0.086,0.017-0.155,0.051
			c-1.032,0.138-1.753,0.619-2.166,1.444c0,0.069-0.052,0.103-0.155,0.103c0,0.103-0.034,0.172-0.103,0.207
			c-0.035,0.069-0.103,0.103-0.207,0.103c0-0.103,0-0.207,0-0.31c-0.962-0.034-1.633,0.241-2.012,0.825
			c-0.034,0.069-0.103,0.104-0.206,0.104c0-0.104,0-0.207,0-0.31c0-0.206,0-0.413,0-0.619c-0.275-0.756-0.894-1.169-1.857-1.238
			c-0.103,0-0.206,0-0.309,0c0-0.103,0-0.224,0-0.361c0.103,0,0.172-0.017,0.207-0.051c1.237-2.407,2.733-2.803,4.486-1.187
			c0.104,0,0.172,0.035,0.207,0.104c0.275,0.344,0.516,0.207,0.723-0.413c-1.547-1.754-3.009-2.579-4.384-2.476
			c-0.103,0-0.207,0-0.31,0c-0.068,1.788-0.653,3.078-1.753,3.868c-0.069,0-0.103,0.051-0.103,0.155
			c-0.103,0-0.155,0.017-0.155,0.051c-2.235,5.708-1.771,10.883,1.392,15.524h0.155c-0.035-0.447,0.121-0.653,0.464-0.619
			c0-0.104,0.034-0.206,0.103-0.31c0.86-2.132,1.977-2.028,3.353,0.31c0,0.104,0,0.207,0,0.31c0.104,0,0.189,0.018,0.258,0.052
			c0.928,0.516,1.358,0.086,1.29-1.289c-0.481-0.688-0.877-1.428-1.186-2.218C63.676,109.611,63.658,109.508,63.658,109.405z
			 M124.903,164.538l-2.192,14.803l-5.002,9.593l-7.015,5.208c-8.045,3.267-10.796-1.685-8.252-14.854
			c-2.922-0.309-5.948-1.34-9.077-3.094c-2.338-1.341-4.934-3.232-7.788-5.674c-3.06-2.716-5.26-4.624-6.602-5.725
			c-2.234-1.891-4.04-3.06-5.415-3.507c-1.1,0.344-1.719,1.994-1.856,4.951l-2.527,15.473l-5.622-10.779l3.791-27.979
			c3.833,9.011,10.459,17.409,19.882,25.194c4.092,4.16,10.281,6.894,18.567,8.2c3.404,0.069,6.43-0.825,9.077-2.682
			c2.2-3.37,5.433-6.31,9.696-8.819C124.682,164.748,124.794,164.646,124.903,164.538z M94.19,101.308
			c0.894,1.41,1.874,2.51,2.939,3.301c0.86,0.653,1.788,1.101,2.786,1.341c1.891,0.447,4.005,0.189,6.343-0.773l2.372,1.083
			c0.008,2.896-3.19,4.202-9.592,3.92c-1.582-0.034-3.129-0.396-4.642-1.083c-1.032-0.447-2.424-1.358-4.178-2.733
			c-2.063-1.616-3.369-2.579-3.919-2.889c-1.272-0.756-2.183-0.894-2.733-0.413c-5.432,8.734-5.037,17.587,1.186,26.561
			c-1.635,5.425-1.386,11.897,0.748,19.418c1.423,4.966,3.667,10.391,6.73,16.271c7.53,6.12,12.91,8.098,16.143,5.932l1.908-4.178
			c2.304-1.41,3.422-3.129,3.353-5.157c-1.053-1.104-1.715-2.16-1.985-3.172c-0.291-1.058-0.145-2.063,0.438-3.018l-3.249,2.476
			c-1.685,0.963-2.373,0.637-2.062-0.979c0.006-0.091,0.014-0.186,0.025-0.284c0.145-0.892,0.687-1.761,1.624-2.604
			c0.517,0.068,1.049,0.12,1.599,0.154c6.12,1.135,9.284-0.018,9.49-3.456c0.068,0,0.12,0,0.154,0
			c2.613-0.79,4.332-2.132,5.158-4.022c-1.376,1.41-2.819,2.046-4.333,1.908c-0.068,0-0.154,0-0.258,0l-4.022-2.166
			c2.132-6.602-0.825-10.384-8.871-11.347l-1.135-2.062c-0.113-0.163-0.226-0.326-0.335-0.49c0.638,0.614,1.369,0.674,2.192,0.181
			c-0.104,0-0.189-0.035-0.258-0.104c-0.035-0.034-0.053-0.103-0.053-0.206c-0.894-0.241-1.598-0.671-2.113-1.289
			c-0.035-0.069-0.053-0.155-0.053-0.258c0-0.104,0-0.207,0-0.31c0-0.104-0.018-0.207-0.051-0.31
			c-0.344-2.579,0.705-4.247,3.146-5.003v-0.155c0.653,0.069,1.066-0.085,1.238-0.464c-0.638-1.408-1.635-1.769-2.991-1.083
			c0.55-4.16,0.516-7.719-0.104-10.676c3.095-1.307,4.642-3.387,4.642-6.24l-2.785-1.548h-0.154c0.016,0.08,0.032,0.157,0.052,0.232
			c-0.073-0.097-0.142-0.19-0.207-0.283l0.207-0.155l-1.754-2.733l-2.527-2.115l-3.095-1.031l-3.61-0.413l-2.424,0.567l-3.095,1.599
			l0.104,0.206l1.186,0.877C93.606,101.823,93.881,101.548,94.19,101.308z M93.159,93.881c4.917-1.1,10.195,0.034,15.833,3.404
			l4.333-1.237c-12.654-5.776-20.184-6.791-22.59-3.043L93.159,93.881z M122.351,109.715c0,0.103,0,0.206,0,0.309
			c-0.413,6.361-0.723,12.069-0.929,17.123c0,0.104,0,0.206,0,0.31h-0.155c0.034,1.375,0.241,2.613,0.619,3.714
			c0.069,0.103,0.121,0.206,0.155,0.309c-0.069,0.104-0.138,0.224-0.206,0.361c-0.895,1.41-2.184,2.407-3.868,2.991
			c-0.069,0.035-0.155,0.052-0.258,0.052c-1.238,0.412-2.149,0.189-2.734-0.67c-0.068-0.069-0.103-0.155-0.103-0.258
			c-1.41-1.788-3.163-2.665-5.261-2.631v0.154c0,0.104,0.018,0.189,0.052,0.258c0.274,0.447,0.773,0.671,1.495,0.671
			c0.104,0,0.172,0.018,0.206,0.052c1.548,1.754,3.318,2.991,5.312,3.713c0.172,0.069,0.361,0.138,0.567,0.206
			c0.034,0,0.086,0.018,0.154,0.052c0,0.206,0,0.413,0,0.619c0,0.104,0,0.206,0,0.31h0.155c-0.103,1.444,0.155,2.492,0.773,3.146
			c0,0.104,0,0.207,0,0.311h0.155c0.103,0.412,0.223,0.67,0.36,0.773c0.104,0,0.189,0.017,0.258,0.051
			c0.241-0.034,0.499-0.309,0.773-0.824c-1.306-0.791-1.649-1.943-1.031-3.456c0.069-0.104,0.104-0.206,0.104-0.31
			c0-0.103,0-0.206,0-0.31s0-0.206,0-0.31c0-0.103,0-0.206,0-0.31v-0.154c1.891-0.344,3.438-1.117,4.642-2.321h0.154
			c0.104-1.031,0.155-2.062,0.155-3.094c-0.997-4.229-1.496-8.27-1.496-12.12c-0.034-4.539,0.877-8.578,2.733-12.12
			c0-0.104,0-0.206,0-0.31c0-0.206,0-0.412,0-0.619C123.244,105.863,122.315,107.308,122.351,109.715z M110.539,111.262
			c-0.894,0.859-1.908,1.633-3.043,2.321c-0.034,0.034-0.051,0.103-0.051,0.206l0.154,0.618c2.063,0.207,4.074-1.358,6.034-4.692
			c-0.756-1.135-1.719-0.637-2.888,1.495C110.711,111.244,110.643,111.262,110.539,111.262z M104.093,127.868
			c0.041-1.207,0.548-2.247,1.521-3.12c-0.017,0.046-0.026,0.105-0.026,0.181C104.747,125.711,104.249,126.691,104.093,127.868z
			 M126.167,109.457c-0.241,0.206-0.464,0.412-0.671,0.618c1.272,1.444,2.803,2.441,4.591,2.992c1.1,0.378,2.303,0.566,3.61,0.566
			l0.258-0.154l0.103,0.154c0.929-0.034,2.2-0.172,3.816-0.412c1.307-0.207,2.166-0.275,2.579-0.207l1.289-0.722l-2.166-3.043
			l-2.218-1.341l-3.61-0.773h-3.765l-2.012,0.773L126.167,109.457z M131.376,110.591l-0.052-0.052l0.052-0.051
			C131.376,110.522,131.376,110.557,131.376,110.591z M125.445,123.382c-2.648,9.971-0.792,16.4,5.569,19.289
			c7.324-4.126,7.324-12,0-23.621C127.267,115.611,125.41,117.056,125.445,123.382z"/>
		<path fill-rule="evenodd" clip-rule="evenodd" fill="#333333" d="M113.015,77.893c-0.858-1.72-1.529-4.058-2.011-7.015
			c-4.711,12.653-14.08,17.535-28.108,14.647c-3.542,1.513-5.261,4.315-5.157,8.407l-2.734,23.879l-4.384-6.344l-1.083,9.283
			l-0.928,17.536c-0.37,1.365-0.335,2.87,0.104,4.513c0.506,1.858,1.538,3.896,3.094,6.111c4.745,6.498,10.676,13.186,17.793,20.062
			c8.527,5.742,16.435,7.358,23.725,4.849c3.356-4.147,7.199-7.534,11.526-10.161c0.2-0.126,0.397-0.246,0.594-0.36
			c5.295-5.261,8.818-11.209,10.572-17.845c0.481-0.757,0.945-1.514,1.393-2.27c5.157-8.768,8.63-18.773,10.418-30.017l-0.929-5.312
			c-5.501-3.404-11.725-4.951-18.67-4.642l4.333-2.063c6.532,0.138,11.931,1.032,16.193,2.682V84.236
			c-6.842-2.132-13.667-8.183-20.475-18.154c-0.929,0.172-1.771,0.378-2.527,0.619c-7.839,2.166-10.728,7.083-8.664,14.75
			C115.439,81.245,114.081,80.059,113.015,77.893z M124.903,164.538c-0.109,0.107-0.222,0.21-0.335,0.31
			c-4.264,2.51-7.496,5.449-9.696,8.819c-2.647,1.856-5.673,2.751-9.077,2.682c-8.287-1.307-14.476-4.04-18.567-8.2
			c-9.422-7.785-16.049-16.184-19.882-25.194l-3.791,27.979l5.622,10.779l-3.816-3.714l-3.146-4.796l1.857-13.977l2.862-18.025
			l-0.283-4.101l1.186-20.733l-0.774,1.548c0-0.241,0-0.481,0-0.722c0-0.104,0-0.207,0-0.311c0-2.269,0-4.556,0-6.859h0.155
			c0.344-1.616,0.499-3.163,0.464-4.642c-0.103,0-0.189-0.017-0.258-0.051c-0.035-0.069-0.052-0.155-0.052-0.258
			c0-0.104,0-0.207,0-0.31c-1.1,0.069-1.564-0.447-1.393-1.547h0.155h0.052v-0.309c0.275-0.619,0.567-1.238,0.876-1.857
			c-0.653-0.138-1.1-0.069-1.341,0.206c-0.034,0.069-0.103,0.104-0.206,0.104c-0.826,0.619-1.616,1.307-2.373,2.063
			c-0.722,0.791-1.444,1.651-2.166,2.579h0.154c0,0.104,0,0.206,0,0.31c-0.31,0.894,0.018,1.616,0.98,2.166c0,0.104,0,0.206,0,0.31
			c0.103,0,0.172,0.034,0.207,0.103c0.275,0.345,0.722,0.517,1.34,0.517c0,0.103,0.018,0.206,0.052,0.31
			c0.309,0.79,0.705,1.529,1.186,2.218c0.069,1.375-0.361,1.805-1.29,1.289c-0.069-0.034-0.154-0.052-0.258-0.052
			c0-0.103,0-0.206,0-0.31c-1.375-2.338-2.493-2.441-3.353-0.31c-0.069,0.104-0.103,0.206-0.103,0.31
			c-0.343-0.034-0.499,0.172-0.464,0.619h-0.155c-3.163-4.642-3.627-9.816-1.392-15.524c0-0.034,0.052-0.051,0.155-0.051
			c0-0.104,0.034-0.155,0.103-0.155c1.1-0.791,1.685-2.08,1.753-3.868c0.103,0,0.207,0,0.31,0c1.375-0.103,2.837,0.722,4.384,2.476
			c-0.207,0.619-0.447,0.756-0.723,0.413c-0.034-0.068-0.103-0.104-0.207-0.104c-1.753-1.616-3.249-1.22-4.486,1.187
			c-0.035,0.034-0.104,0.051-0.207,0.051c0,0.137,0,0.258,0,0.361c-1.513,2.063-1.977,4.625-1.393,7.685
			c0,0.035,0.052,0.052,0.155,0.052c0,0.104,0,0.206,0,0.31c0.172,1.822,0.946,2.562,2.321,2.218c0.069,0,0.12-0.018,0.155-0.052
			c-0.103,0-0.172-0.018-0.207-0.052c-0.928-1.547-0.876-3.335,0.155-5.364h0.104c-0.035-0.069-0.052-0.12-0.052-0.154
			c0-0.104,0.035-0.189,0.103-0.258c0.929-0.998,1.942-1.943,3.043-2.837c0.104,0,0.172-0.034,0.207-0.103
			c0.068-0.034,0.103-0.104,0.103-0.207c0.104,0,0.155-0.034,0.155-0.103c0.413-0.825,1.134-1.307,2.166-1.444l0.052,0.258
			c0.068-0.068,0.103-0.172,0.103-0.309c0-0.104-0.035-0.189-0.103-0.258c-0.791-1.272-0.756-2.012,0.103-2.218
			c0-0.103,0-0.207,0-0.31s0-0.206,0-0.31c-0.825-0.309-1.53-0.739-2.115-1.289c-0.034-0.069-0.051-0.155-0.051-0.258
			c-0.619-0.275-1.238-0.327-1.857-0.155v-0.155c-2.957-2.819-5.02-2.287-6.189,1.599c-0.034,0.069-0.052,0.155-0.052,0.258
			c-0.069,0.998-0.171,1.926-0.309,2.786l-0.103,0.051l-0.387-1.393c-0.049,0.169-0.092,0.341-0.129,0.516l1.238-8.149l-0.619-5.931
			c0.791-6.052,3.387-10.504,7.788-13.358c6.327-6.395,9.232-12.223,8.716-17.483c2.373-7.083,7.203-11.347,14.492-12.791
			c13.238-1.307,21.542-2.27,24.911-2.888c13.719-7.117,24.722-3.627,33.008,10.469c5.191,5.33,10.779,10.023,16.762,14.081
			c6.773,4.573,7.891,10.452,3.353,17.638c0.825,5.949-0.206,11.208-3.095,15.782c-5.02,4.401-7.083,9.593-6.188,15.576
			c1.65,3.541,0.911,7.065-2.218,10.572c4.848,2.923,3.919,7.427-2.785,13.513c-3.988,0.344-7.599,2.51-10.831,6.498l-2.784,5.312
			c-0.379,1.892-1.358,4.521-2.94,7.891C131.48,157.637,128.532,161.314,124.903,164.538z M108.373,105.331
			c-0.24-0.378-0.498-0.74-0.773-1.083c-1.443-1.857-3.128-3.146-5.054-3.868c-0.619-0.206-1.255-0.378-1.908-0.516
			c-0.998-0.171-1.96-0.188-2.888-0.051c-0.447,0.068-0.877,0.172-1.289,0.31c-0.86,0.275-1.616,0.67-2.27,1.186
			c-0.31,0.241-0.584,0.516-0.825,0.825l-1.186-0.877l-0.104-0.206l3.095-1.599l2.424-0.567l3.61,0.413l3.095,1.031l2.527,2.115
			l1.754,2.733L108.373,105.331z M105.872,132.846c-0.023-0.022-0.05-0.048-0.077-0.078c-0.035-0.034-0.104-0.051-0.207-0.051
			c0-0.104,0-0.207,0-0.31c-0.103,0-0.206,0-0.309,0c-0.447-0.172-0.757-0.481-0.929-0.929c0-0.103,0-0.206,0-0.309
			c0-0.104-0.017-0.207-0.051-0.31c-0.267-1.111-0.336-2.109-0.207-2.992c0.156-1.177,0.654-2.157,1.495-2.939
			c0-0.075,0.01-0.135,0.026-0.181l0.026-0.025c0.46-0.383,0.891-0.676,1.289-0.877c1.356-0.686,2.354-0.325,2.991,1.083
			c-0.172,0.379-0.585,0.533-1.238,0.464v0.155c-2.44,0.756-3.489,2.424-3.146,5.003c0.033,0.103,0.051,0.206,0.051,0.31
			c0,0.103,0,0.206,0,0.31c0,0.103,0.018,0.188,0.053,0.258c0.516,0.618,1.22,1.048,2.113,1.289c0,0.104,0.018,0.172,0.053,0.206
			c0.068,0.068,0.154,0.104,0.258,0.104C107.241,133.52,106.51,133.46,105.872,132.846z M119.668,151.025l-0.103-0.309
			c-2.51-0.688-4.779-0.895-6.809-0.619c-2.166-0.241-4.607-0.877-7.323-1.908c-2.579-0.963-4.195-1.462-4.848-1.496
			c-1.822-0.275-3.576-0.895-5.261-1.856l-1.547-2.785l3.713,2.166l4.023,1.857l8.045,2.269l5.673,0.98l5.003-0.413
			c0.104,0,0.189,0,0.258,0c1.514,0.138,2.957-0.498,4.333-1.908C124,148.894,122.281,150.235,119.668,151.025z M99.142,101.979
			c0.206-0.172,0.43-0.258,0.67-0.258c0.275,0,0.499,0.085,0.67,0.258c0.172,0.171,0.258,0.395,0.258,0.67
			c0,0.241-0.086,0.447-0.258,0.619c-0.137,0.172-0.309,0.275-0.516,0.31c-0.034,0-0.069,0-0.104,0H99.76
			c-0.103,0-0.206-0.035-0.309-0.104c-0.104-0.034-0.207-0.103-0.31-0.206c-0.172-0.172-0.258-0.378-0.258-0.619v-0.052
			C98.918,102.356,99.004,102.15,99.142,101.979z M93.159,93.881l-2.424-0.877c2.407-3.748,9.937-2.733,22.59,3.043l-4.333,1.237
			C103.354,93.915,98.076,92.781,93.159,93.881z M122.351,109.715c-0.035-2.407,0.894-3.852,2.784-4.333c0,0.207,0,0.413,0,0.619
			c0,0.104,0,0.206,0,0.31c-1.856,3.542-2.768,7.581-2.733,12.12c0,3.851,0.499,7.891,1.496,12.12c0,1.031-0.052,2.062-0.155,3.094
			h-0.154c-1.203,1.204-2.751,1.978-4.642,2.321v0.154c0,0.104,0,0.207,0,0.31c0,0.104,0,0.206,0,0.31s0,0.207,0,0.31
			c0,0.104-0.034,0.206-0.104,0.31c-0.618,1.513-0.274,2.665,1.031,3.456c-0.274,0.516-0.532,0.79-0.773,0.824
			c-0.068-0.034-0.154-0.051-0.258-0.051c-0.138-0.104-0.258-0.361-0.36-0.773h-0.155c0-0.104,0-0.207,0-0.311
			c-0.618-0.653-0.876-1.701-0.773-3.146h-0.155c0-0.104,0-0.206,0-0.31c0-0.206,0-0.413,0-0.619
			c-0.068-0.034-0.12-0.052-0.154-0.052c-0.206-0.068-0.396-0.137-0.567-0.206c-1.994-0.722-3.765-1.959-5.312-3.713
			c-0.034-0.034-0.103-0.052-0.206-0.052c-0.722,0-1.221-0.224-1.495-0.671c-0.034-0.068-0.052-0.154-0.052-0.258v-0.154
			c2.098-0.034,3.851,0.843,5.261,2.631c0,0.103,0.034,0.188,0.103,0.258c0.585,0.859,1.496,1.082,2.734,0.67
			c0.103,0,0.188-0.017,0.258-0.052c1.685-0.584,2.974-1.581,3.868-2.991c0.068-0.138,0.137-0.258,0.206-0.361
			c-0.034-0.103-0.086-0.206-0.155-0.309c-0.378-1.101-0.585-2.339-0.619-3.714h0.155c0-0.104,0-0.206,0-0.31
			c0.206-5.054,0.516-10.762,0.929-17.123C122.351,109.921,122.351,109.817,122.351,109.715z M110.539,111.262
			c0.104,0,0.172-0.018,0.207-0.052c1.169-2.132,2.132-2.63,2.888-1.495c-1.96,3.334-3.971,4.899-6.034,4.692l-0.154-0.618
			c0-0.104,0.017-0.172,0.051-0.206C108.631,112.895,109.646,112.121,110.539,111.262z M54.297,194.581
			c-1.213-0.691-2.416-1.413-3.61-2.167l-0.696-2.553V178.36l1.238-0.619l1.702,9.902l1.031,5.982L54.297,194.581z M127.997,205.05
			c-0.66,0.144-1.322,0.281-1.985,0.413l-0.206-8.175l-0.413-15.163l0.053-0.051c0.79,1.306,1.685,2.544,2.681,3.713
			c-1.629-1.63-1.853,3.184-0.67,14.441C127.61,201.72,127.791,203.328,127.997,205.05z M134.677,108.219
			c-0.481-0.138-0.979-0.241-1.496-0.31c-0.963-0.172-1.925-0.189-2.888-0.052c-0.447,0.034-0.895,0.12-1.341,0.258
			c-1.066,0.31-1.995,0.757-2.785,1.342l1.805-1.548l2.012-0.773h3.765l3.61,0.773l2.218,1.341l2.166,3.043l-1.289,0.722
			C139.215,110.539,137.289,108.941,134.677,108.219z M131.376,110.488c0-0.207,0.086-0.396,0.258-0.567s0.396-0.258,0.67-0.258
			c0.241,0,0.464,0.086,0.671,0.258c0.034,0.034,0.069,0.068,0.104,0.103c0.172,0.172,0.258,0.396,0.258,0.671
			c0,0.24-0.086,0.447-0.258,0.619c-0.138,0.172-0.311,0.274-0.516,0.309c-0.035,0-0.069,0-0.104,0h-0.052
			c-0.138,0-0.258-0.034-0.361-0.103c-0.103-0.034-0.188-0.104-0.258-0.206c-0.034-0.034-0.086-0.069-0.154-0.104
			c-0.172-0.172-0.258-0.378-0.258-0.619C131.376,110.557,131.376,110.522,131.376,110.488z M134.779,192.079
			c1.972,1.461,4.129,2.801,6.473,4.023c1.824,0.948,3.759,1.825,5.803,2.63c-0.821,0.374-1.646,0.735-2.476,1.083L134.779,192.079z
			"/>
		<path fill-rule="evenodd" clip-rule="evenodd" fill="#241611" d="M60.151,103.061c0-0.069,0.017-0.12,0.052-0.154
			c0,0.034,0.017,0.085,0.052,0.154H60.151z M66.134,103.216c0-0.103,0.017-0.206,0.052-0.309v0.309H66.134z"/>
		<path fill-rule="evenodd" clip-rule="evenodd" fill="#0A0605" d="M65.979,97.955c0.069-0.034,0.12-0.051,0.155-0.051
			c0,0.137-0.035,0.241-0.103,0.309L65.979,97.955z"/>
		<path fill-rule="evenodd" clip-rule="evenodd" fill="#FFEFE8" d="M108.58,105.614c0.168,0.267,0.34,0.55,0.516,0.851l-0.465-0.206
			l-2.372-1.083c-2.338,0.963-4.453,1.221-6.343,0.773l1.392-0.258l1.393-0.928l0.516-1.186v-1.187l-0.67-2.011
			c1.926,0.722,3.611,2.011,5.054,3.868c0.275,0.344,0.533,0.705,0.773,1.083C108.438,105.424,108.507,105.518,108.58,105.614z
			 M94.19,101.308c0.653-0.516,1.41-0.911,2.27-1.186c0.412-0.138,0.842-0.241,1.289-0.31l-0.516,0.516l-0.568,0.928l-0.309,0.929
			l0.207,1.393l0.567,1.031C96.064,103.818,95.084,102.717,94.19,101.308z M134.677,108.219c2.612,0.723,4.538,2.32,5.776,4.796
			c-0.413-0.068-1.272,0-2.579,0.207c-1.616,0.24-2.888,0.378-3.816,0.412l-0.103-0.154l1.289-1.083l0.412-0.929v-1.083
			l-0.258-1.031L134.677,108.219z M130.087,113.067c-1.788-0.551-3.318-1.548-4.591-2.992c0.207-0.206,0.43-0.412,0.671-0.618
			c0.79-0.585,1.719-1.032,2.785-1.342c0.446-0.138,0.894-0.224,1.341-0.258l-0.361,0.361l-0.36,0.723l-0.517,0.67v1.237
			l0.258,1.187L130.087,113.067z"/>
		<path fill-rule="evenodd" clip-rule="evenodd" fill="#355764" d="M102.545,100.379l0.67,2.011v1.187l-0.516,1.186l-1.393,0.928
			l-1.392,0.258c-0.998-0.24-1.926-0.688-2.786-1.341l-0.567-1.031l-0.207-1.393l0.309-0.929l0.568-0.928l0.516-0.516
			c0.928-0.137,1.891-0.12,2.888,0.051C101.291,100.001,101.926,100.173,102.545,100.379z M100.586,101.308v0.464l0.412,0.567h0.877
			l0.31-0.618l-0.413-0.826h-0.619L100.586,101.308z M99.142,101.979c-0.137,0.171-0.224,0.378-0.258,0.618v0.052
			c0,0.241,0.086,0.447,0.258,0.619c0.103,0.103,0.206,0.172,0.31,0.206c0.103,0.069,0.207,0.104,0.309,0.104h0.103
			c0.035,0,0.069,0,0.104,0c0.207-0.035,0.378-0.138,0.516-0.31c0.172-0.172,0.258-0.378,0.258-0.619
			c0-0.275-0.086-0.499-0.258-0.67c-0.172-0.172-0.396-0.258-0.67-0.258C99.571,101.721,99.348,101.806,99.142,101.979z
			 M133.955,113.479l-0.258,0.154c-1.308,0-2.511-0.188-3.61-0.566l-0.774-1.032l-0.258-1.187v-1.237l0.517-0.67l0.36-0.723
			l0.361-0.361c0.963-0.138,1.925-0.12,2.888,0.052c0.517,0.068,1.015,0.172,1.496,0.31l0.722,1.135l0.258,1.031v1.083l-0.412,0.929
			L133.955,113.479z M134.677,109.611v-0.723l-0.567-0.36l-0.619,0.052l-0.258,0.516v0.464l0.619,0.361h0.516L134.677,109.611z
			 M131.376,110.488l-0.052,0.051l0.052,0.052c0,0.241,0.086,0.447,0.258,0.619c0.068,0.034,0.12,0.069,0.154,0.104
			c0.069,0.103,0.155,0.172,0.258,0.206c0.104,0.068,0.224,0.103,0.361,0.103h0.052c0.034,0,0.068,0,0.104,0
			c0.205-0.034,0.378-0.137,0.516-0.309c0.172-0.172,0.258-0.379,0.258-0.619c0-0.275-0.086-0.499-0.258-0.671
			c-0.034-0.034-0.069-0.068-0.104-0.103c-0.207-0.172-0.43-0.258-0.671-0.258c-0.274,0-0.498,0.086-0.67,0.258
			S131.376,110.281,131.376,110.488z"/>
		<path fill-rule="evenodd" clip-rule="evenodd" fill="#B5ACAD" d="M100.586,101.308l0.567-0.413h0.619l0.413,0.826l-0.31,0.618
			h-0.877l-0.412-0.567V101.308z M134.677,109.611l-0.31,0.31h-0.516l-0.619-0.361v-0.464l0.258-0.516l0.619-0.052l0.567,0.36
			V109.611z"/>
		<path fill-rule="evenodd" clip-rule="evenodd" fill="#F9AEA0" d="M119.565,150.717c0,0.103-0.018,0.206-0.052,0.309
			c-0.206,3.438-3.37,4.591-9.49,3.456c-0.55-0.034-1.082-0.086-1.599-0.154c-6.223-0.688-10.59-3.852-13.1-9.49
			c1.685,0.962,3.438,1.581,5.261,1.856c0.653,0.034,2.269,0.533,4.848,1.496c2.716,1.031,5.157,1.667,7.323,1.908
			C114.786,149.822,117.056,150.028,119.565,150.717z"/>
		<polygon fill-rule="evenodd" clip-rule="evenodd" fill="#BB7A74" points="97.491,144.218 105.847,144.476 111.158,146.693 
			115.594,146.384 116.213,146.745 120.235,148.911 115.232,149.324 109.56,148.344 101.514,146.075 		"/>
		<path fill-rule="evenodd" clip-rule="evenodd" fill="#BEB5AE" d="M65.36,177.999l-5.158-4.899l3.919,8.768l0.155,4.28
			l-3.456,4.333l-0.979,5.209l-3.353-2.063l1.212,2.812c-1.142-0.592-2.276-1.211-3.404-1.856l-0.335-0.955l-1.031-5.982
			l-0.052-8.768l3.456-6.808l3.558-9.542l-0.928-0.618l4.951-2.682h0.155l-1.857,13.977L65.36,177.999z M124.826,181.764
			l-1.96,21.404c-0.085,2.663,0.568,1.803,1.96-2.579c0.29-0.941,0.616-2.041,0.979-3.301l0.206,8.175
			c-4.465,0.893-9.055,1.494-13.771,1.805l10.935-24.369l-4.487,4.437l4.178-6.705l0.928-2.27l0.31-2.27l0.877,4.023
			L124.826,181.764z"/>
		<path fill-rule="evenodd" clip-rule="evenodd" fill="#FEFBED" d="M69.177,181.713l27.386,20.269l-4.255,4.849
			c-12.406-1.374-23.941-4.838-34.607-10.393l-1.212-2.812l3.353,2.063l0.979-5.209l3.456-4.333l-0.155-4.28l-3.919-8.768
			l5.158,4.899L69.177,181.713z M112.241,207.268l-0.104,0.232l-2.836,0.104l-0.36-0.31l-6.035-4.951
			c7.289-5.364,12.223-9.834,14.802-13.409l0.979-1.599l4.487-4.437L112.241,207.268z"/>
		<path fill-rule="evenodd" clip-rule="evenodd" fill="#807574" d="M52.931,187.644l-1.702-9.902v-0.31l7.736-15.523l0.928,0.618
			l-3.558,9.542l-3.456,6.808L52.931,187.644z M125.393,182.125l0.413,15.163c-0.363,1.26-0.689,2.359-0.979,3.301
			c-1.392,4.382-2.045,5.242-1.96,2.579l1.96-21.404l0.309,0.052l0.207,0.155l0.051,0.104V182.125z"/>
		<path fill-rule="evenodd" clip-rule="evenodd" fill="#38393B" d="M50.687,192.414c-4.56-2.888-8.952-6.188-13.177-9.902
			l12.481-4.151v11.501L50.687,192.414z M134.779,192.079l9.8,7.736c-5.321,2.231-10.848,3.977-16.582,5.234
			c-0.206-1.722-0.387-3.33-0.541-4.821c-1.183-11.258-0.959-16.071,0.67-14.441c1.616,1.96,3.456,3.765,5.519,5.415
			c0.138,0.104,0.275,0.206,0.413,0.31C134.298,191.719,134.539,191.907,134.779,192.079z"/>
		<path fill-rule="evenodd" clip-rule="evenodd" fill="#313437" d="M96.563,201.981l6.344,0.361l6.035,4.951l-8.046,0.154
			c-2.908-0.102-5.771-0.309-8.587-0.618L96.563,201.981z"/>
	</g>
</g>
</svg>
