<?xml version="1.0" encoding="utf-8"?>
<!-- Generator: Adobe Illustrator 15.0.2, SVG Export Plug-In . SVG Version: 6.00 Build 0)  -->
<!DOCTYPE svg PUBLIC "-//W3C//DTD SVG 1.0//EN" "http://www.w3.org/TR/2001/REC-SVG-20010904/DTD/svg10.dtd">
<svg version="1.0" id="Layer_1" xmlns="http://www.w3.org/2000/svg" xmlns:xlink="http://www.w3.org/1999/xlink" x="0px" y="0px"
	 width="217.05px" height="42.35px" viewBox="0 0 217.05 42.35" enable-background="new 0 0 217.05 42.35" xml:space="preserve">
<g>
	<path fill-rule="evenodd" clip-rule="evenodd" fill="#FFFFFF" d="M57.05,22.4c0-0.167-0.066-0.25-0.2-0.25
		c-0.3,0-0.617,0.116-0.95,0.35l-1.05,0.85L52.9,25.95l-1,2c-0.267,0.667-0.4,1.366-0.4,2.1l0.1,0.55c0.1,0.167,0.267,0.25,0.5,0.25
		c0.433,0,0.966-0.267,1.6-0.8l1.6-1.899l1.3-2.2l0.6-1.7L57.05,22.4z M28,17.15c0-0.333,0.133-0.683,0.4-1.05
		c0.233-0.333,0.567-0.5,1-0.5c0.367,0,0.55,0.183,0.55,0.55c0,0.333-0.15,0.667-0.45,1s-0.633,0.5-1,0.5
		C28.167,17.65,28,17.483,28,17.15z M28.35,10.2l-1.05,0.45l-1.2,0.95l-1.35,1.65c-1.4,1.934-2.733,4.083-4,6.45l-5.5,11.649
		c-0.066,0.134-0.15,0.233-0.25,0.301l-0.4-0.301L9.4,16.45c-0.2-0.4-0.367-0.6-0.5-0.6c-0.1,0-0.283,0.183-0.55,0.55L3.25,25
		l-1.6,3.6l-0.5,2.2L1.1,31.75H0.95c-0.067-0.066-0.134-0.167-0.2-0.3L0.4,31l-0.25-0.6C0.083,30.267,0.033,30.117,0,29.95l0.3-1
		l6.75-11.5L8.3,14.8l0.2-0.7c0-0.3-0.1-0.534-0.3-0.7l-0.75-0.2L5.2,13.3c-0.067,0-0.15-0.066-0.25-0.2l-0.1-0.4
		c0-0.1,0.033-0.167,0.1-0.2L6,12.7l2.8-0.05l1.35-0.3c0.2,0,0.317,0.133,0.35,0.4l5.05,15.2l0.3,0.2
		c0.1-0.033,0.183-0.117,0.25-0.25l0.3-0.45l8.4-15.75l0.6-0.9l0.85-0.85l0.9-0.6l1.05-0.3l0.75,0.3l0.55,0.6
		c0,0.033-0.033,0.066-0.1,0.1L28.35,10.2z M123.7,28.6l0.5,0.15c0.2,0.1,0.3,0.283,0.3,0.55l-0.15,0.601L123.9,30.6L123.3,31.15
		l-0.7,0.199l-0.55-0.199c-0.133-0.033-0.2-0.184-0.2-0.45c0-0.533,0.184-1.033,0.551-1.5C122.8,28.8,123.233,28.6,123.7,28.6z
		 M77.4,22.15L77.35,22.1c-0.967,0-1.883,0.351-2.75,1.051c-0.833,0.6-1.617,1.399-2.35,2.399c-0.667,0.867-1.217,1.783-1.65,2.75
		c-0.4,0.9-0.6,1.567-0.6,2c0,0.2,0.083,0.3,0.25,0.3l0.8-0.3l2.6-2.25L77.4,22.15z M84.8,28l-0.95-1.7
		c-0.111-0.154-0.186-0.347-0.225-0.575l-3.5,3.551L80.15,29.3c0.167,0.533,0.434,0.967,0.8,1.3c0.366,0.367,0.833,0.551,1.4,0.551
		l0.8-0.051l0.9-0.3l0.7-0.649c0.2-0.301,0.3-0.684,0.3-1.15L84.8,28z M78.45,3.9L77.95,4L77.3,4.55L73.9,8.9l-7,11.05
		c1.5-0.833,3.083-2,4.75-3.5c1.6-1.467,2.883-2.884,3.85-4.25c1.033-1.333,1.883-2.733,2.55-4.2C78.684,6.7,79,5.55,79,4.55
		C79,4.117,78.816,3.9,78.45,3.9z M78.3,3.4c0.934-0.466,1.55-0.7,1.85-0.7l0.55,0.2c0.133,0.1,0.2,0.284,0.2,0.55
		c0,0.433-0.15,1.017-0.45,1.75L79.1,7.85l-2.15,3.25c-0.833,1.2-1.783,2.333-2.85,3.4c-1.133,1.267-2.3,2.35-3.5,3.25
		c-1.2,1-2.55,1.917-4.05,2.75L63,27.25c-0.333,0.8-0.5,1.5-0.5,2.1c0,0.9,0.417,1.351,1.25,1.351c0.733,0,1.467-0.2,2.2-0.601
		c0.9-0.467,1.633-0.949,2.2-1.449l1.4-1.4c0.456-0.73,0.989-1.414,1.6-2.05c0.967-0.967,1.95-1.767,2.95-2.4
		c1.133-0.667,2.283-1,3.45-1c0.1-0.167,0.233-0.35,0.4-0.55L78.3,21l1.15-0.35l0.1,0.05l-0.4,0.5l-0.4,0.65l1.3,0.15
		c0.067,0.033,0.134,0.1,0.2,0.2c0,0.066-0.05,0.116-0.15,0.149L79.35,22.2l-0.75-0.05c-1.433,2.5-2.4,4.333-2.9,5.5
		c-0.6,1.3-0.9,2.283-0.9,2.949c0,0.301,0.067,0.5,0.2,0.601c0.1,0.167,0.367,0.25,0.8,0.25c0.367,0,0.9-0.134,1.6-0.4l1.75-1.225
		V29.8l0.325-0.2l4.125-4.274c0.007-0.361,0.124-0.72,0.35-1.075l0.9-1.1l1.2-0.801c0.434-0.232,0.867-0.35,1.3-0.35
		c0.466,0,0.7,0.133,0.7,0.4l-0.45,1c-0.067,0.1-0.15,0.116-0.25,0.05c-0.133-0.367-0.483-0.55-1.05-0.55
		c-0.433,0-0.833,0.116-1.2,0.35c-0.4,0.2-0.6,0.533-0.6,1l0.25,0.7l1.2,1.899l0.3,1.051c0,0.767-0.167,1.366-0.5,1.8
		c-0.3,0.433-0.7,0.816-1.2,1.149l-1.45,0.5l-1.15,0.15c-1.496,0-2.404-0.458-2.725-1.375c-0.666,0.553-1.374,0.994-2.125,1.325
		c-0.733,0.399-1.45,0.6-2.15,0.6c-0.567,0-0.95-0.133-1.15-0.399c-0.233-0.268-0.35-0.617-0.35-1.051
		c0-0.433,0.116-0.949,0.35-1.55c0.267-0.733,0.634-1.45,1.1-2.149l-2.8,3L70.6,31c-0.534,0.267-0.983,0.4-1.35,0.4
		c-0.6,0-0.9-0.283-0.9-0.851c0-0.667,0.25-1.5,0.75-2.5c0.012-0.023,0.021-0.048,0.025-0.075L67.85,29.25
		c-0.833,0.633-1.65,1.133-2.45,1.5c-0.767,0.367-1.617,0.55-2.55,0.55c-0.767,0-1.3-0.167-1.6-0.5c-0.333-0.333-0.5-0.767-0.5-1.3
		c0-0.4,0.217-1.117,0.65-2.15l0.725-1.425C61.534,26.309,60.859,26.5,60.1,26.5c-0.5,0-0.983-0.117-1.45-0.35
		c-0.433-0.233-0.8-0.601-1.1-1.101l-1.85,3.3l-1.45,1.601l-1.7,1.2L51.3,31.4c-1.033,0-1.55-0.434-1.55-1.301l0.3-1.55l0.2-0.475
		l-1.9,1.774c-0.8,0.667-1.55,1.15-2.25,1.45c-0.733,0.4-1.417,0.601-2.05,0.601c-0.5,0-0.883-0.134-1.15-0.4
		c-0.3-0.3-0.45-0.667-0.45-1.1c0-0.467,0.167-1.051,0.5-1.75l2.55-5.4c0-0.1-0.05-0.184-0.15-0.25c-0.233,0-0.7,0.25-1.4,0.75
		c-0.533,0.367-1.35,1.267-2.45,2.7l-2.35,4.25c-0.233,0.433-0.45,0.649-0.65,0.649l-0.55-0.1c-0.233-0.1-0.35-0.217-0.35-0.35
		l0.15-0.5l2.925-4.775L37.7,28.7l-1.75,1.35l-1.7,0.9L32.1,31.4c-1.567,0-2.35-0.634-2.35-1.9c0-0.533,0.117-1.083,0.35-1.65
		c0.072-0.168,0.146-0.335,0.225-0.5c-0.24,0.241-0.498,0.491-0.775,0.75l-2.45,1.95L25.35,30.9c-0.5,0.166-1.034,0.25-1.6,0.25
		h-0.6l-0.6-0.25l-0.5-0.45l-0.15-0.7c0-0.467,0.133-0.983,0.4-1.55l3.05-5.3c0.167-0.233,0.417-0.434,0.75-0.601
		c0.233-0.1,0.466-0.167,0.7-0.2c0.1,0,0.167,0.033,0.2,0.101l-0.05,0.25c-0.033,0.1-0.083,0.183-0.15,0.25l-2.9,5.649l-0.3,1.25
		c0,0.367,0.1,0.617,0.3,0.75c0.233,0.167,0.483,0.25,0.75,0.25c0.6,0,1.217-0.199,1.85-0.6l2.05-1.35l2.425-2.5
		c0.399-0.661,0.858-1.277,1.375-1.851c1.1-1.1,2.167-1.85,3.2-2.25l0.85-0.25c1.034,0,1.55,0.417,1.55,1.25
		c0,0.434-0.1,0.767-0.3,1l-0.85,0.7l-0.1-0.05l0.1-0.7c0-0.267-0.1-0.533-0.3-0.8c-0.267-0.267-0.6-0.4-1-0.4
		c-0.5,0-1.017,0.184-1.55,0.55c-0.533,0.367-0.983,0.834-1.35,1.4l-0.9,2c-0.233,0.867-0.35,1.633-0.35,2.3
		c0,0.567,0.167,1.017,0.5,1.351c0.367,0.3,0.767,0.449,1.2,0.449c0.8,0,1.867-0.467,3.2-1.399c1.367-0.9,2.816-2.3,4.35-4.2
		c0.1-0.066,0.2-0.1,0.3-0.1c0.007,0.029,0.007,0.055,0,0.074l8-13.024c1.4-2.167,2.9-4.184,4.5-6.05
		c1.534-1.833,3.083-3.317,4.65-4.45C59.583,0.566,61.167,0,62.8,0L64,0.15l1.2,0.45c0.4,0.233,0.717,0.55,0.95,0.95
		c0.233,0.434,0.35,0.967,0.35,1.6L66.45,4.2l-0.1,0.45c-0.034,0.067-0.083,0.083-0.15,0.05c-0.033,0-0.05-0.05-0.05-0.15L66,3.75
		l-0.6-1c-0.333-0.333-0.75-0.617-1.25-0.85c-0.5-0.233-1.2-0.35-2.1-0.35l-2.25,0.3c-0.833,0.267-1.683,0.683-2.55,1.25
		s-1.833,1.417-2.9,2.55c-0.867,0.867-2,2.25-3.4,4.15c-1.5,2.2-2.817,4.283-3.95,6.25c-1.333,2.267-2.9,5.167-4.7,8.7l3.8-2.65
		c0.433-0.267,0.85-0.399,1.25-0.399c0.267,0,0.4,0.1,0.4,0.3l-3.3,6.05c-0.233,0.601-0.35,1.134-0.35,1.601s0.1,0.8,0.3,1
		c0.233,0.232,0.55,0.35,0.95,0.35c0.667,0,1.583-0.417,2.75-1.25c0.729-0.521,1.537-1.279,2.425-2.275l0.225-0.524l0.9-1.45
		l0.9-1.1c0.567-0.634,1.25-1.184,2.05-1.65c0.767-0.434,1.6-0.7,2.5-0.8l0.25-0.8c0.1-0.267,0.3-0.433,0.6-0.5l0.8-0.25
		c0.033-0.033,0.117-0.033,0.25,0c0.066,0.067,0.083,0.15,0.05,0.25L58.6,21.8L58.45,23.4c0,0.8,0.15,1.449,0.45,1.949
		c0.3,0.5,0.817,0.75,1.55,0.75c0.734,0,1.376-0.217,1.925-0.649l0.575-1.101L73.4,7.45c0.5-0.634,1.15-1.283,1.95-1.95
		C76.383,4.633,77.367,3.934,78.3,3.4z M105.55,16.6c1.2-1.2,2.783-2.217,4.75-3.05c1.3-0.5,2.434-0.816,3.4-0.95l3.05-0.25
		L120,12.7l1.5,0.55c0.4,0.167,0.75,0.434,1.05,0.8l-1.25,3.55l-0.3,0.1v-0.1l0.15-1.1c0-0.5-0.15-0.983-0.45-1.45
		c-0.333-0.467-0.733-0.85-1.2-1.15c-0.467-0.333-1.066-0.6-1.8-0.8c-0.7-0.2-1.417-0.3-2.15-0.3c-1.467,0-2.816,0.317-4.05,0.95
		c-1.267,0.6-2.4,1.4-3.4,2.4c-0.566,0.534-1.233,1.317-2,2.35l-2,3.05l-1.5,3.3c-0.4,1.101-0.6,2.117-0.6,3.051
		c0,1.133,0.383,2,1.15,2.6c0.767,0.566,1.883,0.85,3.35,0.85c1.367,0,2.6-0.25,3.7-0.75c1.267-0.5,2.417-1.149,3.45-1.949
		c1.1-0.834,2-1.7,2.699-2.601c0.768-1,1.301-1.899,1.601-2.7L118.1,22.7c-0.1-0.134-0.267-0.2-0.5-0.2l-3.8,0.3l-0.149-0.05
		l0.149-0.45l7.7-0.7c0.066,0.133,0.066,0.267,0,0.4l-0.95,0.4L120,23.25l-6.3,11.4c-0.533,0.899-1.25,1.899-2.15,3l-1.2,1.3
		l-1.899,1.55c-0.6,0.4-1.45,0.833-2.55,1.3c-1.033,0.367-2.117,0.55-3.25,0.55l-1.2-0.1l-1.25-0.35l-0.05-0.301l0.15-0.05
		l1.15,0.351l1.2,0.149c0.967,0,1.917-0.267,2.85-0.8c0.867-0.467,1.767-1.133,2.7-2c1.066-1.066,1.883-2.017,2.45-2.85l5.3-8.601
		c0-0.3-0.083-0.333-0.25-0.1l-1.25,1l-2.101,1.35c-0.899,0.5-1.8,0.867-2.699,1.101c-1.033,0.366-2.084,0.55-3.15,0.55
		c-2.033,0-3.6-0.417-4.7-1.25c-1.066-0.867-1.6-2.05-1.6-3.55c0-0.667,0.167-1.551,0.5-2.65c0.366-1.2,0.933-2.45,1.7-3.75
		C103.2,19.2,104.25,17.9,105.55,16.6z M203.5,22.1c-0.967,0-1.883,0.351-2.75,1.051c-0.833,0.6-1.617,1.399-2.35,2.399
		c-0.667,0.867-1.217,1.783-1.65,2.75c-0.4,0.9-0.6,1.567-0.6,2c0,0.2,0.083,0.3,0.25,0.3l0.8-0.3l2.6-2.25l1.3-1.7l2.45-4.199
		L203.5,22.1z M152.15,12.8c-0.2,0.067-0.4,0.233-0.601,0.5L142.9,28.65l-0.15,0.5c0,0.199,0.083,0.366,0.25,0.5
		c0.467,0.533,1.117,0.916,1.95,1.149c0.8,0.233,1.667,0.351,2.6,0.351c1.8,0,3.417-0.334,4.851-1
		c1.533-0.634,2.883-1.567,4.05-2.801c1.2-1.199,2.116-2.583,2.75-4.149c0.7-1.6,1.05-3.317,1.05-5.15c0-0.667-0.117-1.3-0.35-1.9
		c-0.167-0.533-0.551-1.1-1.15-1.7c-0.566-0.5-1.3-0.9-2.2-1.2c-1.066-0.333-2.267-0.5-3.6-0.5L152.15,12.8z M149.25,12.95
		c-0.033-0.033-0.1-0.05-0.2-0.05c-0.833,0-1.717,0.083-2.649,0.25l-2.7,0.3c-0.5,0-0.75-0.233-0.75-0.7c0-0.1,0.017-0.2,0.05-0.3
		c0-0.134,0.05-0.217,0.15-0.25c0.199,0.033,0.416,0.116,0.649,0.25l1.2,0.25l8.25-0.35c1.233,0,2.333,0.067,3.3,0.2
		c1.067,0.134,2.05,0.417,2.95,0.85c0.867,0.467,1.566,1.067,2.1,1.8c0.567,0.833,0.851,1.866,0.851,3.1s-0.217,2.434-0.65,3.6
		c-0.433,1.167-1.017,2.3-1.75,3.4c-0.767,1.101-1.633,2.05-2.6,2.851c-0.9,0.8-1.934,1.467-3.101,2c-1.1,0.533-2.199,0.866-3.3,1
		c-1.133,0.199-2.3,0.3-3.5,0.3l-2.8-0.2c-0.934-0.1-1.783-0.367-2.55-0.8l-0.75-0.2l-0.95,0.3l-1.25,0.7L139,31.1l1.75-2.449
		l8.65-15.55C149.4,13.066,149.35,13.017,149.25,12.95z M199.6,6.1l3-2.3l1.801-0.95c0.533-0.267,1.1-0.4,1.699-0.4
		c0.5,0,0.884,0.133,1.15,0.4c0.267,0.267,0.4,0.6,0.4,1L207.6,4.7c0,0.1-0.05,0.133-0.149,0.1l-0.601-0.5
		C206.617,4.1,206.2,4,205.6,4L204.2,4.1l-1.3,0.35l-1.351,0.7l-1.649,1.2c-0.801,0.667-1.717,1.716-2.75,3.15l-8.25,14l-2,5.1
		l-0.2,1.15c0,0.767,0.25,1.15,0.75,1.15c0.333,0,0.7-0.15,1.1-0.45c0.367-0.267,0.733-0.684,1.101-1.25
		c0.366-0.5,0.683-1.184,0.949-2.05c0.268-0.867,0.4-1.783,0.4-2.75l-0.05-0.801l-0.15-0.55c0-0.2,0.083-0.366,0.25-0.5l0.4-0.399
		l0.5-0.351l0.149,0.05c0,0.567,0.101,1.05,0.301,1.45l0.8,0.95l1.1,0.5l1.05,0.2l1.601-0.25c0.633-0.167,1.217-0.434,1.75-0.8
		c0.024-0.025,0.05-0.042,0.075-0.051c0.489-0.387,0.98-0.736,1.475-1.05c1.133-0.667,2.283-1,3.45-1
		c0.1-0.167,0.233-0.35,0.399-0.55L204.45,21l1.149-0.35l0.101,0.05l-0.4,0.5l-0.399,0.65l1.3,0.15c0.066,0.033,0.133,0.1,0.2,0.2
		c0,0.066-0.051,0.116-0.15,0.149L205.5,22.2l-0.75-0.05c-1.434,2.5-2.4,4.333-2.9,5.5c-0.6,1.3-0.899,2.283-0.899,2.949
		c0,0.301,0.066,0.5,0.2,0.601c0.1,0.167,0.366,0.25,0.8,0.25c0.366,0,0.899-0.134,1.6-0.4l2-1.399l2.2-2l0.85-1l2.551-4.4
		c0.1-0.167,0.199-0.3,0.3-0.4c0.133,0.067,0.267,0.15,0.399,0.25c0.233,0.101,0.351,0.283,0.351,0.551
		c-0.033,0.166-0.083,0.316-0.15,0.449l-0.7,1.25c-0.066,0.134-0.149,0.268-0.25,0.4c-0.066,0.1-0.083,0.167-0.05,0.2
		c0.033,0,0.101-0.033,0.2-0.101l2.35-1.899l1.351-0.75l1.149-0.3l0.65,0.2l0.3,0.4l-0.899,1.35c-0.033,0.067-0.084,0.117-0.15,0.15
		c-0.033,0-0.083-0.05-0.15-0.15l-0.25-0.25c-0.133-0.133-0.267-0.232-0.399-0.3l-0.7-0.1c-0.4,0-0.816,0.116-1.25,0.35l-1.2,0.851
		l-1.399,1.5l-3.351,5.25c-0.066,0.1-0.149,0.149-0.25,0.149l-0.35-0.2c-0.134-0.133-0.233-0.267-0.3-0.399l0.3-0.75l1.524-2.65
		l-2.625,2.65c-0.732,0.633-1.517,1.133-2.35,1.5c-0.733,0.399-1.45,0.6-2.15,0.6c-0.566,0-0.949-0.133-1.149-0.399
		c-0.233-0.268-0.351-0.617-0.351-1.051c0-0.433,0.117-0.949,0.351-1.55c0.267-0.733,0.633-1.45,1.1-2.149l-2.8,3l-1.5,1.1
		c-0.533,0.267-0.983,0.4-1.35,0.4c-0.601,0-0.9-0.283-0.9-0.851c0-0.667,0.25-1.5,0.75-2.5c0.533-1.033,1.217-1.983,2.05-2.85
		c0.207-0.207,0.415-0.407,0.625-0.601c-0.572,0.268-1.114,0.467-1.625,0.601c-0.7,0.233-1.399,0.35-2.1,0.35
		c-0.533,0-1.017-0.116-1.45-0.35l-1-0.8c0,1.166-0.184,2.133-0.55,2.899c-0.367,0.934-0.783,1.684-1.25,2.25
		c-0.533,0.601-1.101,1.067-1.7,1.4c-0.6,0.3-1.133,0.45-1.6,0.45s-0.834-0.117-1.101-0.351c-0.3-0.3-0.45-0.733-0.45-1.3l0.301-1.7
		l0.449-1.075l-0.699,0.875l-2.15,1.9c-0.733,0.566-1.5,1.033-2.3,1.4c-0.8,0.366-1.55,0.55-2.25,0.55l-0.95-0.15
		c-0.267-0.1-0.4-0.333-0.4-0.7c0-0.366,0.134-0.866,0.4-1.5l3.2-6c0.033-0.1,0.033-0.217,0-0.35c-0.067-0.066-0.15-0.083-0.25-0.05
		l-3.7,3.1l-1,1.05l-2.35,3.95c-0.101,0.067-0.184,0.134-0.25,0.2c-0.167,0-0.301-0.133-0.4-0.4l-0.15-0.6
		c0-0.233,0.184-0.583,0.551-1.05l1.149-1.45l0.15-0.3l-2.55,2.85l-2.15,1.5c-0.733,0.4-1.434,0.601-2.1,0.601
		c-0.467,0-0.834-0.134-1.101-0.4s-0.399-0.633-0.399-1.1l0.1-0.9l0.35-1.1l-1.3,1.5L164.4,31c-0.2,0.1-0.551,0.15-1.051,0.15
		c-0.399,0-0.666-0.067-0.8-0.2c-0.2-0.2-0.3-0.5-0.3-0.9l0.15-0.85l3.5-6.75c0.1-0.167,0.217-0.3,0.35-0.4
		c0.2,0,0.417,0.117,0.65,0.351c0.133,0.166,0.232,0.333,0.3,0.5c-0.067,0.166-0.15,0.333-0.25,0.5l-2.3,3.949l-0.75,1.601
		l-0.25,1.1c0,0.4,0.149,0.601,0.449,0.601c0.334,0,0.717-0.217,1.15-0.65c0.467-0.434,1.066-1.167,1.8-2.2l2.8-5
		c0.101-0.133,0.217-0.233,0.351-0.3c0.133,0.1,0.25,0.217,0.35,0.35l0.2,0.9l-0.15,0.65l-2.149,3.05l-0.8,1.7
		c-0.233,0.566-0.351,1.217-0.351,1.949c0,0.567,0.3,0.851,0.9,0.851c0.433,0,0.899-0.134,1.399-0.4l1.801-1.2l2.05-2l1.45-1.85
		l2.05-4.35l0.399-0.2l0.45,0.2l0.2,0.5c-0.133,0.333-0.333,0.717-0.6,1.149l-1.2,2.3l5.1-4.149l0.95-0.4
		c0.066,0,0.167,0.05,0.3,0.15l0.15,0.399l-0.2,0.5l-2.45,3.9L179,28.65c-0.3,0.699-0.45,1.25-0.45,1.649
		c0,0.3,0.083,0.533,0.25,0.7l0.65,0.15c0.533,0,1.1-0.184,1.7-0.551l2.05-1.35l1.95-1.85l1.125-1.426l0.774-1.774l3.2-5.8l5.9-8.6
		C197.117,8.6,198.267,7.367,199.6,6.1z"/>
</g>
</svg>
