<?xml version="1.0" encoding="utf-8"?>
<!-- Generator: Adobe Illustrator 15.0.2, SVG Export Plug-In . SVG Version: 6.00 Build 0)  -->
<!DOCTYPE svg PUBLIC "-//W3C//DTD SVG 1.0//EN" "http://www.w3.org/TR/2001/REC-SVG-20010904/DTD/svg10.dtd">
<svg version="1.0" id="Layer_1" xmlns="http://www.w3.org/2000/svg" xmlns:xlink="http://www.w3.org/1999/xlink" x="0px" y="0px"
	 width="106.2px" height="106.1px" viewBox="0 0 106.2 106.1" enable-background="new 0 0 106.2 106.1" xml:space="preserve">
<g>
	<path fill-rule="evenodd" clip-rule="evenodd" fill="#FFFFFF" d="M11,56.6c-0.133,0.934,0.067,1.7,0.6,2.301
		C8.667,64.667,6.633,70.55,5.5,76.55C0.767,66.983-0.9,56.9,0.5,46.3C3.233,50.233,6.733,53.667,11,56.6z M40.85,104.65l-0.6-0.101
		c3.066-1.066,5.9-2.666,8.5-4.8c0.8,0.6,1.533,0.934,2.2,1c1.8,0.467,3.399,0.167,4.8-0.9c1.467,1.067,3,2.034,4.6,2.9
		c1.733,0.934,3.233,1.634,4.5,2.1C56.983,106.583,48.983,106.517,40.85,104.65z M29.2,64.5c0.133,1.767,1.05,2.85,2.75,3.25
		c0.533,0.134,1.066,0.134,1.6,0l0.9,2.3c3.733,8.733,8.033,15.967,12.9,21.7c-0.267,0.467-0.534,1.1-0.8,1.9
		c-0.4,1.6-0.167,3.1,0.7,4.5c-3.6,2.866-7.333,4.566-11.2,5.1c-6.167-2.066-11.75-5.167-16.75-9.3c-4.867-4-8.867-8.733-12-14.2
		c0.867-6.6,2.934-13.15,6.2-19.65c1,0.2,1.867,0.034,2.6-0.5C19.967,61.6,24.333,63.233,29.2,64.5z M47.55,66.8
		c3.733,0,7.434-0.2,11.101-0.6c0.733,2.566,2.267,4.416,4.6,5.55c-2.134,6.866-4.9,12.833-8.3,17.9l-1.2-0.4
		c-1.733-0.4-3.367-0.1-4.9,0.9c-4.8-5.867-8.9-12.867-12.3-21l-1.1-2.65l0.4-0.6C40.383,66.5,44.283,66.8,47.55,66.8z M71.85,20.1
		l0.101-1.5c6.533-1.533,12.899-2.4,19.1-2.6c7.2,7.267,11.867,15.967,14,26.1c-5.934,5.933-12.967,10.8-21.1,14.6
		c-2.934,1.467-6.066,2.7-9.4,3.7c-1.066-2.334-2.866-3.867-5.399-4.601c0.666-4.867,1.033-9.566,1.1-14.1
		c0.134-6.267-0.267-12.267-1.2-18C70.517,22.967,71.45,21.767,71.85,20.1z M67.85,13.6l-1.1-0.1c-1.667-5.133-3.7-9.467-6.1-13
		l4.699,0.9c8.934,2.133,16.767,6.267,23.5,12.4c-6.267,0.467-12.1,1.333-17.5,2.6C70.55,14.933,69.384,14,67.85,13.6z M30.15,48.4
		c3-0.867,4.867-2.8,5.6-5.8c0.533-2.467,0.066-4.633-1.4-6.5l1.1-0.8c7.733-5.8,16.533-10.4,26.399-13.8c0.733,1.4,1.9,2.3,3.5,2.7
		c0.334,0.066,0.867,0.1,1.601,0.1c0.866,5.733,1.233,11.534,1.1,17.4c-0.066,4.267-0.434,8.9-1.1,13.899
		c-1.934-0.066-3.7,0.534-5.3,1.801c-1.534,1.199-2.534,2.767-3,4.699c-0.134,0.4-0.2,1.034-0.2,1.9c-3.667,0.4-7.3,0.6-10.9,0.6
		c-4.133-0.133-7.933-0.466-11.4-1c-0.2-1.466-1.066-2.366-2.6-2.699h-0.1C32.183,56.9,31.083,52.733,30.15,48.4z M26.2,48.4
		c0.4,0.133,0.966,0.2,1.7,0.2c0.934,4.4,2.05,8.567,3.35,12.5c-0.667,0.334-1.15,0.733-1.45,1.2c-4.667-1.133-8.833-2.666-12.5-4.6
		c0.333-1.066,0.1-2-0.7-2.8c1.8-2.8,3.9-5.534,6.3-8.2C23.833,47.567,24.933,48.133,26.2,48.4z M27.8,22.6
		c0.2-6.067,1.017-11.867,2.45-17.4c8.6-4.133,17.733-5.8,27.4-5c2.8,3.6,5.1,8.167,6.899,13.7c-1.733,0.667-2.8,1.9-3.2,3.7
		c-0.133,0.4-0.199,1-0.199,1.8c-9.934,3.4-18.934,8.1-27,14.1l-1.4,1c-0.867-0.667-1.85-1.133-2.95-1.4L28,32.9
		C27.8,29.1,27.733,25.667,27.8,22.6z M1.5,40.8c1.8-7.466,5-14.2,9.6-20.2c4.533-5.8,10.033-10.5,16.5-14.1
		c-1.2,5.267-1.867,10.633-2,16.1c-0.133,4.133-0.067,7.667,0.2,10.6c-3,0.933-4.8,2.867-5.4,5.8c-0.533,2.2-0.2,4.2,1,6
		c-2.667,3-4.933,5.933-6.8,8.8c-0.934-0.133-1.767,0.133-2.5,0.8C7.3,51.267,3.6,47.4,1,43L1.5,40.8z M105.55,44.7
		c1.066,6.933,0.8,13.767-0.8,20.5c-2.2,9.366-6.566,17.483-13.1,24.35c-6.4,6.733-14,11.467-22.801,14.2
		c-2.466-0.6-4.933-1.566-7.399-2.9l-4.101-2.6l0.801-1.9c0.399-2.066-0.067-3.866-1.4-5.399c3.6-5.4,6.467-11.566,8.6-18.5
		c2.2,0.399,4.233,0,6.101-1.2c1.934-1.267,3.166-3.017,3.7-5.25c0.267-1.134,0.3-2.3,0.1-3.5c3.134-0.934,6.333-2.2,9.6-3.8
		C92.717,55.033,99.616,50.367,105.55,44.7z"/>
</g>
</svg>
