<?xml version="1.0" encoding="utf-8"?>
<!-- Generator: Adobe Illustrator 15.0.2, SVG Export Plug-In . SVG Version: 6.00 Build 0)  -->
<!DOCTYPE svg PUBLIC "-//W3C//DTD SVG 1.0//EN" "http://www.w3.org/TR/2001/REC-SVG-20010904/DTD/svg10.dtd">
<svg version="1.0" id="Layer_1" xmlns="http://www.w3.org/2000/svg" xmlns:xlink="http://www.w3.org/1999/xlink" x="0px" y="0px"
	 width="107px" height="117.1px" viewBox="0 0 107 117.1" enable-background="new 0 0 107 117.1" xml:space="preserve">
<g>
	<path fill-rule="evenodd" clip-rule="evenodd" fill="#FFFFFF" d="M52.35,94.25V67.1l-10.9,10.15c1.7,1.733,3.25,3.583,4.65,5.55
		C48.566,86.267,50.65,90.083,52.35,94.25z M60.5,83.7c1.4-1.967,2.7-3.584,3.9-4.851L55.35,68.9V94.05
		C56.816,90.217,58.533,86.767,60.5,83.7z M66.45,76.65c4.5-4.367,10.066-7.934,16.7-10.7h-26.4L66.45,76.65z M23.65,65.95
		c5.967,2.1,11.167,5.166,15.6,9.2l10.15-9.2H23.65z M40.25,52.4c-4.833,4.333-10.533,7.85-17.1,10.55H49.9L40.25,52.4z
		 M84.75,32.45c-8.733-8.667-19.233-13-31.5-13c-12.3,0-22.8,4.333-31.5,13c-8.667,8.667-13,19.167-13,31.5
		c0,12.233,4.333,22.733,13,31.5c8.7,8.666,19.2,13,31.5,13c12.267,0,22.767-4.334,31.5-13c8.667-8.767,13-19.267,13-31.5
		C97.75,51.617,93.417,41.117,84.75,32.45z M52.35,61.15v-26.7c-1.567,4.1-3.65,7.9-6.25,11.4c-0.733,1.066-1.95,2.533-3.65,4.4
		L52.35,61.15z M83.35,62.95c-6.166-2.267-11.433-5.517-15.8-9.75l-10.5,9.75H83.35z M55.35,60.35l10.101-9.2
		c-1.5-1.733-3.15-3.917-4.95-6.55c-2.1-3.467-3.816-6.883-5.15-10.25V60.35z M95.35,61.05v5.5c-10.967,2.834-19.6,7.3-25.899,13.4
		l13.1,14.3l-2.2,2.05l-13-14.2c-2.767,3.334-5.05,7.017-6.85,11.051c-1.633,4.1-2.75,8.366-3.35,12.8
		c-1.733,0.133-3.033,0.2-3.9,0.2h-1.7c-1.366-5.567-3.183-10.434-5.45-14.601c-2.233-4.366-4.917-8.133-8.05-11.3l-14.7,13.5
		l-2.05-2.2l14.6-13.3c-6.567-5.9-14.817-9.45-24.75-10.65l-0.2-3.649l0.1-1.7c10.934-2.833,19.667-7.233,26.2-13.2l-13.8-15.1
		l2.2-2.1l13.7,15.1c2.6-2.567,4.85-5.717,6.75-9.45c2.4-4.433,3.983-9.683,4.75-15.75h5.3c1.133,4.633,2.583,9.033,4.35,13.2
		c2.2,4.966,4.983,9.333,8.35,13.1l14.7-13.5l2,2.2l-14.6,13.4C77.217,56.25,85.35,59.884,95.35,61.05z M59.9,13.8
		c0.732-0.667,1.333-1.466,1.8-2.4C74.467,13.467,85.1,19.434,93.6,29.3c8.533,9.934,12.801,21.483,12.801,34.65
		c0,14.633-5.2,27.149-15.601,37.55c-10.399,10.4-22.917,15.6-37.55,15.6c-14.7,0-27.25-5.199-37.65-15.6S0,78.583,0,63.95
		C0,50.783,4.316,39.233,12.95,29.3c8.466-9.866,19.083-15.833,31.85-17.9c0.4,0.867,0.967,1.667,1.7,2.4
		c2,1.833,4.25,2.75,6.75,2.75C55.85,16.55,58.066,15.633,59.9,13.8z M48.2,2.05C49.6,0.684,51.283,0,53.25,0
		c1.934,0,3.617,0.684,5.05,2.05c1.4,1.4,2.101,3.1,2.101,5.1c0,1.9-0.7,3.583-2.101,5.05c-1.433,1.4-3.116,2.1-5.05,2.1
		c-1.967,0-3.65-0.7-5.05-2.1c-1.4-1.467-2.1-3.15-2.1-5.05C46.1,5.15,46.8,3.45,48.2,2.05z"/>
</g>
</svg>
