<?xml version="1.0" encoding="utf-8"?>
<!-- Generator: Adobe Illustrator 15.0.2, SVG Export Plug-In . SVG Version: 6.00 Build 0)  -->
<!DOCTYPE svg PUBLIC "-//W3C//DTD SVG 1.0//EN" "http://www.w3.org/TR/2001/REC-SVG-20010904/DTD/svg10.dtd">
<svg version="1.0" id="Layer_1" xmlns="http://www.w3.org/2000/svg" xmlns:xlink="http://www.w3.org/1999/xlink" x="0px" y="0px"
	 width="118.7px" height="118.65px" viewBox="0 0 118.7 118.65" enable-background="new 0 0 118.7 118.65" xml:space="preserve">
<g>
	<path fill-rule="evenodd" clip-rule="evenodd" fill="#FFFFFF" d="M7.5,52.15l6.75,4.2V99.1c1.433,0.467,2.717,1.267,3.85,2.4
		c1.967,1.967,2.95,4.333,2.95,7.1c0,2.801-0.983,5.184-2.95,7.15c-1.967,1.934-4.333,2.9-7.1,2.9s-5.133-0.967-7.1-2.9
		c-1.967-1.967-2.95-4.35-2.95-7.15c0-2.767,0.983-5.133,2.95-7.1c1.067-1.066,2.267-1.833,3.6-2.3V52.15z M21.45,50.85L0,37.4
		L59.4,0l59.3,37.25l-59.45,37.4L28.8,55.5l28.65-17.85l-7.4-4.7L21.45,50.85z M78.75,98.15c-6.6,3.267-13.816,4.683-21.65,4.25
		c-7.467-0.4-14.45-2.417-20.95-6.051c-6.5-3.666-11.533-8.416-15.1-14.25V60.55L58.85,83.9l36.7-23.4l0.05,22
		C91.366,89.5,85.75,94.717,78.75,98.15z"/>
</g>
</svg>
