<?xml version="1.0" encoding="utf-8"?>
<!-- Generator: Adobe Illustrator 15.0.2, SVG Export Plug-In . SVG Version: 6.00 Build 0)  -->
<!DOCTYPE svg PUBLIC "-//W3C//DTD SVG 1.0//EN" "http://www.w3.org/TR/2001/REC-SVG-20010904/DTD/svg10.dtd">
<svg version="1.0" id="Layer_1" xmlns="http://www.w3.org/2000/svg" xmlns:xlink="http://www.w3.org/1999/xlink" x="0px" y="0px"
	 width="96.65px" height="109.55px" viewBox="0 0 96.65 109.55" enable-background="new 0 0 96.65 109.55" xml:space="preserve">
<g>
	<path fill-rule="evenodd" clip-rule="evenodd" fill="#FFFFFF" d="M82.35,98.4c0.634-0.601,0.95-1.334,0.95-2.2
		c0-0.867-0.316-1.601-0.95-2.2c-0.6-0.634-1.366-0.95-2.3-0.95c-0.866,0-1.6,0.316-2.2,0.95c-0.633,0.6-0.949,1.333-0.949,2.2
		c0,0.866,0.316,1.6,0.949,2.2c0.601,0.633,1.334,0.949,2.2,0.949C80.983,99.35,81.75,99.033,82.35,98.4z M94.2,2.45
		c1.633,1.6,2.45,3.566,2.45,5.9v92.75c0,2.301-0.817,4.301-2.45,6c-1.7,1.634-3.717,2.45-6.05,2.45h-56.8
		c-2.333,0-4.3-0.816-5.9-2.45c-1.633-1.699-2.45-3.699-2.45-6V38.9l7.2,6.65v27.9c0,1.833,0.65,3.416,1.95,4.75
		c1.333,1.3,2.934,1.95,4.8,1.95H82.6c1.867,0,3.45-0.65,4.75-1.95c1.334-1.334,2-2.917,2-4.75V12.9c0-1.867-0.666-3.467-2-4.8
		c-1.3-1.367-2.883-2.05-4.75-2.05H36.95c-1.867,0-3.467,0.684-4.8,2.05c-1.3,1.333-1.95,2.933-1.95,4.8v22.65L23,27.4V8.35
		c0-2.333,0.817-4.3,2.45-5.9C27.05,0.817,29.017,0,31.35,0h56.8C90.483,0,92.5,0.817,94.2,2.45z M7.2,11.4l27.5,31.1
		c16.2,18.2,24.267,27.3,24.2,27.3c0,0.167-9.617-8.5-28.851-26L1.15,17.55C0.383,16.75,0,15.783,0,14.65c0-1.033,0.383-2,1.15-2.9
		L1.5,11.4c0.833-0.7,1.8-1.05,2.9-1.05C5.467,10.35,6.4,10.7,7.2,11.4z M67.7,96.2c0,0.866,0.316,1.6,0.95,2.2
		c0.633,0.633,1.366,0.949,2.199,0.949c0.867,0,1.601-0.316,2.2-0.949C73.684,97.8,74,97.066,74,96.2c0-0.867-0.316-1.601-0.95-2.2
		c-0.6-0.634-1.333-0.95-2.2-0.95c-0.833,0-1.566,0.316-2.199,0.95C68.017,94.6,67.7,95.333,67.7,96.2z M56,92.35
		c-1.1,1.101-1.65,2.384-1.65,3.851c0,1.533,0.551,2.816,1.65,3.85c1.066,1.066,2.333,1.601,3.8,1.601c1.5,0,2.75-0.534,3.75-1.601
		c1.066-1.1,1.601-2.383,1.601-3.85s-0.534-2.75-1.601-3.851c-1-1-2.25-1.5-3.75-1.5C58.267,90.85,57,91.35,56,92.35z M45.55,96.2
		c0,0.866,0.3,1.6,0.9,2.2c0.633,0.633,1.367,0.949,2.2,0.949c0.866,0,1.649-0.316,2.35-0.949c0.6-0.601,0.9-1.334,0.9-2.2
		c0-0.867-0.301-1.601-0.9-2.2c-0.7-0.634-1.483-0.95-2.35-0.95c-0.833,0-1.567,0.316-2.2,0.95C45.85,94.6,45.55,95.333,45.55,96.2z
		 M37.15,94c-0.6,0.6-0.9,1.333-0.9,2.2c0,0.866,0.3,1.6,0.9,2.2c0.7,0.633,1.483,0.949,2.35,0.949c0.833,0,1.567-0.316,2.2-0.949
		c0.6-0.601,0.9-1.334,0.9-2.2c0-0.867-0.3-1.601-0.9-2.2c-0.633-0.634-1.367-0.95-2.2-0.95C38.633,93.05,37.85,93.366,37.15,94z"/>
</g>
</svg>
