<?xml version="1.0" encoding="utf-8"?>
<!-- Generator: Adobe Illustrator 15.0.2, SVG Export Plug-In . SVG Version: 6.00 Build 0)  -->
<!DOCTYPE svg PUBLIC "-//W3C//DTD SVG 1.0//EN" "http://www.w3.org/TR/2001/REC-SVG-20010904/DTD/svg10.dtd">
<svg version="1.0" id="Layer_1" xmlns="http://www.w3.org/2000/svg" xmlns:xlink="http://www.w3.org/1999/xlink" x="0px" y="0px"
	 width="57.6px" height="44.35px" viewBox="0 0 57.6 44.35" enable-background="new 0 0 57.6 44.35" xml:space="preserve">
<symbol  id="quotes" viewBox="-1112.8 0 495.649 381.45">
	<g id="Layer_1_2_">
		<g>
			<path fill-rule="evenodd" clip-rule="evenodd" fill="#E2E2E2" d="M-617.15,158.6h-110l0.25-8.699
				c0.334-7.2,0.9-14.301,1.7-21.301c2.634-22.399,7.233-39.55,13.8-51.449c6.534-11.9,14.2-22.851,23-32.851
				c4.4-5,8.15-8.816,11.25-11.45L-704.3,0c-12.834,7.633-27,17.283-42.5,28.95c-30.934,23.333-52.95,45.116-66.05,65.35
				c-14.267,22-24.317,45.517-30.15,70.55c-4.4,18.7-6.616,39.517-6.65,62.45L-850,381.45h232.85V158.6z M-1112.8,381.45h232.85
				V158.6h-110l0.25-8.699c0.334-7.233,0.9-14.334,1.7-21.301c2.634-22.399,7.217-39.55,13.75-51.449
				C-967.684,65.25-960,54.3-951.2,44.3c4.4-5,8.15-8.816,11.25-11.45L-967.1,0c-12.867,7.633-27.034,17.283-42.5,28.95
				c-30.934,23.333-52.95,45.116-66.051,65.35c-14.267,22-24.316,45.517-30.149,70.55c-4.4,18.7-6.617,39.517-6.65,62.45
				L-1112.8,381.45z"/>
		</g>
	</g>
</symbol>
<use xlink:href="#quotes"  width="495.649" height="381.45" x="-1112.8" transform="matrix(0.1162 0 0 -0.1162 129.3496 44.3496)" overflow="visible"/>
</svg>
