<?xml version="1.0" encoding="utf-8"?>
<!-- Generator: Adobe Illustrator 15.0.2, SVG Export Plug-In . SVG Version: 6.00 Build 0)  -->
<!DOCTYPE svg PUBLIC "-//W3C//DTD SVG 1.0//EN" "http://www.w3.org/TR/2001/REC-SVG-20010904/DTD/svg10.dtd">
<svg version="1.0" id="Layer_1" xmlns="http://www.w3.org/2000/svg" xmlns:xlink="http://www.w3.org/1999/xlink" x="0px" y="0px"
	 width="88.7px" height="88.7px" viewBox="0 0 88.7 88.7" enable-background="new 0 0 88.7 88.7" xml:space="preserve">
<g>
	<path fill-rule="evenodd" clip-rule="evenodd" fill="#FFFFFF" d="M72.65,16c7.833,7.833,11.75,17.283,11.75,28.35
		s-3.917,20.5-11.75,28.3C64.85,80.483,55.417,84.4,44.35,84.4c-11.066,0-20.516-3.917-28.35-11.75C8.2,64.85,4.3,55.417,4.3,44.35
		S8.2,23.833,16,16C23.833,8.2,33.283,4.3,44.35,4.3C55.417,4.3,64.85,8.2,72.65,16z"/>
	
		<path fill-rule="evenodd" clip-rule="evenodd" fill="none" stroke="#434092" stroke-width="8.65" stroke-linecap="round" stroke-linejoin="round" stroke-miterlimit="3" d="
		M72.65,16c7.833,7.833,11.75,17.283,11.75,28.35s-3.917,20.5-11.75,28.3C64.85,80.483,55.417,84.4,44.35,84.4
		c-11.066,0-20.516-3.917-28.35-11.75C8.2,64.85,4.3,55.417,4.3,44.35S8.2,23.833,16,16C23.833,8.2,33.283,4.3,44.35,4.3
		C55.417,4.3,64.85,8.2,72.65,16z"/>
	<g>
		<path fill-rule="evenodd" clip-rule="evenodd" fill="#434092" d="M46.85,53.1c0.567,0.567,0.851,1.25,0.851,2.051
			c0,0.933-0.283,1.649-0.851,2.149c-0.633,0.467-1.316,0.7-2.05,0.7s-1.417-0.233-2.05-0.7c-0.6-0.5-0.9-1.217-0.9-2.149
			c0-0.801,0.283-1.483,0.85-2.051c0.633-0.566,1.333-0.85,2.1-0.85C45.6,52.25,46.283,52.533,46.85,53.1z M19.85,46.75
			c-0.467-0.467-0.7-0.95-0.7-1.45c0-0.566,0.283-1.083,0.85-1.55l10.35-8.05l0.95-0.25c0.5,0,0.917,0.167,1.25,0.5
			c0.3,0.3,0.45,0.7,0.45,1.2c0,0.434-0.183,0.917-0.55,1.45l-8.55,6.65l8.8,6.55c0.333,0.434,0.5,0.9,0.5,1.4
			c0,0.467-0.167,0.85-0.5,1.149c-0.267,0.267-0.684,0.4-1.25,0.4l-1.1-0.2L19.85,46.75z M56.9,35.95c0.333-0.333,0.75-0.5,1.25-0.5
			L59.1,35.7l10.351,8.05c0.566,0.467,0.85,0.983,0.85,1.55c0,0.533-0.25,1.017-0.75,1.45l-10.5,7.8l-1.1,0.2
			c-0.533,0-0.934-0.134-1.2-0.4c-0.333-0.3-0.5-0.683-0.5-1.149c0-0.5,0.167-0.967,0.5-1.4l8.8-6.55L57,38.6
			c-0.4-0.5-0.6-0.983-0.6-1.45S56.566,36.283,56.9,35.95z M53.6,32.5c0.767,1.233,1.15,2.533,1.15,3.9c0,1.1-0.217,2.067-0.65,2.9
			c-0.399,0.767-0.933,1.483-1.6,2.15l-4.4,4.1L47.55,46.4l-0.3,0.75l-0.35,1.3c-0.267,1.366-1.034,2.05-2.301,2.05
			c-0.633,0-1.2-0.217-1.7-0.65c-0.467-0.466-0.7-1.133-0.7-2c0-1.1,0.167-2.033,0.5-2.8c0.367-0.8,0.816-1.5,1.35-2.1l4.05-3.8
			l0.95-1.25c0.233-0.433,0.351-0.917,0.351-1.45c0-1.034-0.384-1.917-1.15-2.65c-0.733-0.7-1.733-1.05-3-1.05
			c-1.433,0-2.467,0.367-3.1,1.1c-0.633,0.633-1.217,1.683-1.75,3.15c-0.467,1.467-1.3,2.2-2.5,2.2c-0.733,0-1.35-0.25-1.85-0.75
			c-0.5-0.534-0.75-1.1-0.75-1.7c0-1.2,0.4-2.433,1.2-3.7c0.8-1.3,1.95-2.35,3.45-3.15c1.533-0.833,3.3-1.25,5.3-1.25
			c1.9,0,3.566,0.35,5,1.05C51.65,30.367,52.767,31.3,53.6,32.5z"/>
	</g>
</g>
</svg>
