<?xml version="1.0" encoding="utf-8"?>
<!-- Generator: Adobe Illustrator 15.0.2, SVG Export Plug-In . SVG Version: 6.00 Build 0)  -->
<!DOCTYPE svg PUBLIC "-//W3C//DTD SVG 1.0//EN" "http://www.w3.org/TR/2001/REC-SVG-20010904/DTD/svg10.dtd">
<svg version="1.0" id="Layer_1" xmlns="http://www.w3.org/2000/svg" xmlns:xlink="http://www.w3.org/1999/xlink" x="0px" y="0px"
	 width="88.7px" height="88.7px" viewBox="0 0 88.7 88.7" enable-background="new 0 0 88.7 88.7" xml:space="preserve">
<g>
	<g>
		<path fill-rule="evenodd" clip-rule="evenodd" fill="#FFFFFF" d="M72.65,16c7.833,7.833,11.75,17.283,11.75,28.35
			s-3.917,20.5-11.75,28.3C64.85,80.483,55.417,84.4,44.35,84.4c-11.066,0-20.516-3.917-28.35-11.75C8.2,64.85,4.3,55.417,4.3,44.35
			S8.2,23.833,16,16C23.833,8.2,33.283,4.3,44.35,4.3C55.417,4.3,64.85,8.2,72.65,16z"/>
		
			<path fill-rule="evenodd" clip-rule="evenodd" fill="none" stroke="#434092" stroke-width="8.65" stroke-linecap="round" stroke-linejoin="round" stroke-miterlimit="3" d="
			M72.65,16c7.833,7.833,11.75,17.283,11.75,28.35s-3.917,20.5-11.75,28.3C64.85,80.483,55.417,84.4,44.35,84.4
			c-11.066,0-20.516-3.917-28.35-11.75C8.2,64.85,4.3,55.417,4.3,44.35S8.2,23.833,16,16C23.833,8.2,33.283,4.3,44.35,4.3
			C55.417,4.3,64.85,8.2,72.65,16z"/>
	</g>
	<g>
		<path fill-rule="evenodd" clip-rule="evenodd" fill="#5990CE" d="M30.15,46.65c-0.633-0.733-0.967-1.667-1-2.8
			c0-1.133,0.3-2.033,0.9-2.7c0.767-0.833,1.633-0.917,2.6-0.25c0.934,0.667,1.4,1.684,1.4,3.05c0,0.667-0.083,1.149-0.25,1.45
			c-0.2,0.333-0.617,0.75-1.25,1.25l-1.45,1.1L30.15,46.65z M46.5,40.2c0.667-0.2,1.15-0.267,1.45-0.2s0.717,0.3,1.25,0.7
			c0.3,0.267,0.566,0.617,0.8,1.05c0.267,0.4,0.434,0.8,0.5,1.2c0.134,0.667,0.083,1.533-0.15,2.6
			c-0.267,1.033-0.566,1.65-0.899,1.851c-0.066,0.066-0.367,0.017-0.9-0.15c-0.5-0.167-1.066-0.384-1.7-0.65
			c-1.066-0.466-1.716-0.816-1.949-1.05c-0.2-0.267-0.301-0.733-0.301-1.4c0-0.867,0.2-1.717,0.601-2.55
			C45.566,40.8,46,40.333,46.5,40.2z M46.8,16.5c4,0.767,7.5,2.633,10.5,5.6c1.467,1.5,2.617,2.917,3.45,4.25
			c0.833,1.367,1.5,2.9,2,4.6c0.434,1.566,0.783,3.566,1.05,6c0.2,1.8,0.417,4.6,0.65,8.399c0.1,1.834,0.25,3.551,0.45,5.15
			c0.199,1.566,0.383,2.616,0.55,3.15c0.333,1,1.283,2.699,2.85,5.1s2.517,3.616,2.851,3.65c0.033,0,0.1-0.034,0.199-0.101
			c-1.033,1.367-2.166,2.667-3.399,3.9c-2.533,2.5-5.25,4.533-8.15,6.1c-0.033-0.467-0.316-1.3-0.85-2.5c-0.733-1.7-1.75-3.7-3.05-6
			c-1.4-2.5-2.233-4.3-2.5-5.399c-0.267-1.101-0.184-2.4,0.25-3.9c0.433-1.4,0.616-2.25,0.55-2.55c-0.033-0.3-0.417-0.867-1.15-1.7
			L51.8,48.8l0.65-1.649c0.833-2.101,1.116-4.217,0.85-6.351c-0.267-2.1-1.017-3.683-2.25-4.75c-0.5-0.367-0.95-0.617-1.35-0.75
			c-0.467-0.167-1-0.233-1.601-0.2c-1.1,0-1.949,0.133-2.55,0.4c-0.6,0.267-1.233,0.783-1.9,1.55
			c-0.467,0.567-0.816,1.284-1.05,2.15c-0.233,0.833-0.4,2.133-0.5,3.9l-0.15,1.4H36.3l-0.2-2.8c-0.133-2-0.55-3.467-1.25-4.4
			c-0.667-0.966-1.65-1.45-2.95-1.45c-1.033,0-1.933,0.3-2.7,0.9c-0.7,0.6-1.217,1.417-1.55,2.45c-0.7,2.233-0.433,4.8,0.8,7.7
			L29.3,48.8l-1.05,0.851c-0.7,0.6-1.05,1.267-1.05,2c0,0.5,0.167,0.949,0.5,1.35c0.367,0.366,1.183,0.967,2.45,1.8
			c1.5,1.033,2.633,1.733,3.4,2.101c0.967,0.466,1.9,0.716,2.8,0.75c0.867,0.033,1.95-0.15,3.25-0.551
			c1.033-0.3,2.65-0.883,4.85-1.75c2.633-1.033,4.55-1.683,5.75-1.949c1.2-0.301,1.5-0.15,0.899,0.449
			c-0.466,0.367-2.6,1.367-6.399,3c-3.867,1.634-6.217,2.534-7.05,2.7c-0.967,0.167-2.267-0.017-3.9-0.55
			c-1.4-0.5-2.25-0.767-2.55-0.8c-0.233-0.033-0.35,0.066-0.35,0.3c0,0.1,0.233,0.35,0.7,0.75c0.5,0.4,1.083,0.833,1.75,1.3
			c0.934,0.601,1.684,1.017,2.25,1.25c0.667,0.267,1.35,0.384,2.05,0.351c1.167-0.101,3.383-0.9,6.65-2.4
			c2.5-1.167,4.267-1.9,5.3-2.2s1.55-0.233,1.55,0.2c0,0.2-1.517,1.333-4.55,3.4c-3,2.033-5.1,3.366-6.3,4
			c-1.033,0.533-2.083,0.733-3.15,0.6c-1.067-0.134-2.483-0.65-4.25-1.55c-2.133-1.066-3.55-1.584-4.25-1.55
			c-0.434,0.033-0.8,0.199-1.1,0.5c-0.3,0.267-0.633,0.716-1,1.35c-1,1.767-1.683,3.05-2.05,3.85L23.8,69.8
			c-1.433-1.066-2.816-2.267-4.15-3.6c-0.033-0.033-0.083-0.084-0.15-0.15l1.3-1.5c0.9-1.033,1.784-2.149,2.65-3.35l1.1-1.55
			L24.45,46.6c-0.1-7.1-0.034-11.7,0.2-13.8c0.133-1.3,0.367-2.45,0.7-3.45c0.267-0.8,0.7-1.783,1.3-2.95
			c0.7-1.4,1.917-2.933,3.65-4.6c1.7-1.667,3.3-2.867,4.8-3.6C38.767,16.3,42.667,15.733,46.8,16.5z"/>
	</g>
</g>
</svg>
