<?xml version="1.0" encoding="utf-8"?>
<!-- Generator: Adobe Illustrator 15.0.2, SVG Export Plug-In . SVG Version: 6.00 Build 0)  -->
<!DOCTYPE svg PUBLIC "-//W3C//DTD SVG 1.0//EN" "http://www.w3.org/TR/2001/REC-SVG-20010904/DTD/svg10.dtd">
<svg version="1.0" id="Layer_1" xmlns="http://www.w3.org/2000/svg" xmlns:xlink="http://www.w3.org/1999/xlink" x="0px" y="0px"
	 width="88.7px" height="88.7px" viewBox="0 0 88.7 88.7" enable-background="new 0 0 88.7 88.7" xml:space="preserve">
<g>
	<path fill-rule="evenodd" clip-rule="evenodd" fill="#FFFFFF" d="M72.65,16c7.833,7.833,11.75,17.283,11.75,28.35
		s-3.917,20.5-11.75,28.3C64.85,80.483,55.417,84.4,44.35,84.4c-11.066,0-20.516-3.917-28.35-11.75C8.2,64.85,4.3,55.417,4.3,44.35
		S8.2,23.833,16,16C23.833,8.2,33.283,4.3,44.35,4.3C55.417,4.3,64.85,8.2,72.65,16z"/>
	
		<path fill-rule="evenodd" clip-rule="evenodd" fill="none" stroke="#434092" stroke-width="8.65" stroke-linecap="round" stroke-linejoin="round" stroke-miterlimit="3" d="
		M72.65,16c7.833,7.833,11.75,17.283,11.75,28.35s-3.917,20.5-11.75,28.3C64.85,80.483,55.417,84.4,44.35,84.4
		c-11.066,0-20.516-3.917-28.35-11.75C8.2,64.85,4.3,55.417,4.3,44.35S8.2,23.833,16,16C23.833,8.2,33.283,4.3,44.35,4.3
		C55.417,4.3,64.85,8.2,72.65,16z"/>
	<g>
		<path fill-rule="evenodd" clip-rule="evenodd" fill="#FFFFFF" d="M43.6,36.45h-0.05v-5.7h0.05h14.25l-0.5,5.7H43.6z M43.6,42.3
			h13.2l-1.55,17.5L43.6,63.05h-0.05V57.1h0.05l6.3-1.699L50.6,48h-7h-0.05v-5.7H43.6z"/>
		<path fill-rule="evenodd" clip-rule="evenodd" fill="#5990CE" d="M43.6,42.3v-5.85h13.75l0.5-5.7H43.6v-5.7h18.6L58.65,64.8
			L43.6,68.95v-5.9l11.65-3.25l1.55-17.5H43.6z M43.6,57.1V48h7L49.9,55.4L43.6,57.1z"/>
		<path fill-rule="evenodd" clip-rule="evenodd" fill="#434092" d="M43.55,36.45h0.05v5.85h-0.05h-7.5l-0.55-5.85H43.55z
			 M43.55,30.75h-14.3L30.8,48h12.75h0.05v9.1h-0.05L37.2,55.4l-0.4-4.551h-5.75l0.8,8.95l11.7,3.25h0.05v5.9l15.05-4.15l3.55-39.75
			H43.6v5.7H43.55z M43.55,72.9l-18.6-5.15l-4.15-46.5h45.55L62.2,67.75L43.55,72.9z"/>
		<path fill-rule="evenodd" clip-rule="evenodd" fill="#EBEBEB" d="M43.55,30.75v5.7H35.5l0.55,5.85h7.5V48H30.8l-1.55-17.25H43.55z
			 M43.55,57.1v5.95l-11.7-3.25l-0.8-8.95h5.75l0.4,4.551L43.55,57.1z"/>
	</g>
</g>
</svg>
