<?xml version="1.0" encoding="utf-8"?>
<!-- Generator: Adobe Illustrator 15.0.2, SVG Export Plug-In . SVG Version: 6.00 Build 0)  -->
<!DOCTYPE svg PUBLIC "-//W3C//DTD SVG 1.0//EN" "http://www.w3.org/TR/2001/REC-SVG-20010904/DTD/svg10.dtd">
<svg version="1.0" id="Layer_1" xmlns="http://www.w3.org/2000/svg" xmlns:xlink="http://www.w3.org/1999/xlink" x="0px" y="0px"
	 width="88.7px" height="88.7px" viewBox="0 0 88.7 88.7" enable-background="new 0 0 88.7 88.7" xml:space="preserve">
<g>
	<path fill-rule="evenodd" clip-rule="evenodd" fill="#FFFFFF" d="M72.65,16c7.833,7.833,11.75,17.283,11.75,28.35
		s-3.917,20.5-11.75,28.3C64.85,80.483,55.417,84.4,44.35,84.4c-11.066,0-20.516-3.917-28.35-11.75C8.2,64.85,4.3,55.417,4.3,44.35
		S8.2,23.833,16,16C23.833,8.2,33.283,4.3,44.35,4.3C55.417,4.3,64.85,8.2,72.65,16z"/>
	
		<path fill-rule="evenodd" clip-rule="evenodd" fill="none" stroke="#434092" stroke-width="8.65" stroke-linecap="round" stroke-linejoin="round" stroke-miterlimit="3" d="
		M72.65,16c7.833,7.833,11.75,17.283,11.75,28.35s-3.917,20.5-11.75,28.3C64.85,80.483,55.417,84.4,44.35,84.4
		c-11.066,0-20.516-3.917-28.35-11.75C8.2,64.85,4.3,55.417,4.3,44.35S8.2,23.833,16,16C23.833,8.2,33.283,4.3,44.35,4.3
		C55.417,4.3,64.85,8.2,72.65,16z"/>
	<g>
		<path fill-rule="evenodd" clip-rule="evenodd" fill="#434092" d="M59.4,36.1c-2.034-0.7-4.25-1.267-6.65-1.7l3.9,8.25l-0.75,1.4
			c-0.567-1.7-1.25-3.4-2.051-5.1c-0.933-1.967-1.767-3.567-2.5-4.8c-2.666-0.367-5.183-0.55-7.55-0.55
			c-1.466,0-2.883,0.066-4.25,0.2l0.95-1.15l3.65-0.05c2.566,0,4.716,0.083,6.449,0.25c-1.233-1.967-2.616-3.883-4.149-5.75
			l1.149-0.85c1.334,1.7,2.817,3.95,4.45,6.75c2.934,0.3,5.566,0.767,7.9,1.4L59.4,36.1z M59.7,22.15
			c-2.167-1.533-5.617-0.867-10.351,2c-4.966,3.033-9.516,7.467-13.649,13.3c-3.2,4.6-5.583,9.35-7.15,14.25
			c-1.466,4.533-1.917,8.2-1.35,11l-0.05,0.05h-0.1v0.05H26.9v0.05h-0.1L26.75,62.9H26.6v0.05h-0.15V63h-0.1v0.05h-0.1v0.05h-0.1
			v0.051H26.1l-0.05,0.1H26v0.05h-0.05l-0.05,0.05h-0.05V63.4H25.7v0.05h-0.05v0.05H25.6l-0.05,0.05H25.5v0.05l-0.1,0.051l-0.1,0.1
			h-0.05v0.05H25.2v0.05h-0.05V63.9l-0.05,0.05h-0.05V64H25v0.1h-0.1v0.051h-0.05v0.05H24.8v0.05h-0.05v0.05l-0.05,0.05V64.4h-0.05
			v0.05H24.6v0.05h-0.05v0.05L24.5,64.6v0.051h-0.05v0.05l-0.05,0.05v0.05h-0.05v0.05L24.3,64.95V65l-0.05,0.05v0.05H24.2v0.051
			l-0.1,0.05v0.1h-0.05L24,65.4v0.149h-0.05v0.101c-0.667-3.134-0.067-7.284,1.8-12.45c1.9-5.334,4.783-10.75,8.65-16.25
			c4.9-7.034,10.083-12.383,15.55-16.05c5.399-3.633,9.467-4.517,12.2-2.65c2.666,1.933,3.216,6.067,1.649,12.4
			c-1.6,6.3-4.883,12.983-9.85,20.05C50.55,55.5,46.934,59.6,43.1,63c-3.7,3.333-7.1,5.55-10.2,6.65l0.05-0.101v-0.1L33,69.4V69.35
			l0.05-0.05v-0.1h0.05V69h0.05v-0.15l0.05-0.05v-0.1l0.05-0.05v-0.2h0.05V68.1h0.05v-1.35H33.3v-0.3l-0.05-0.05v-0.2H33.2
			c2.833-0.634,6.05-2.384,9.65-5.25c3.867-3.066,7.333-6.783,10.4-11.15c4.134-5.9,6.8-11.667,8-17.3
			C62.384,27.1,61.866,23.65,59.7,22.15z M45.45,23.4L44.1,24.55c-3.266-3.233-6.133-5.017-8.6-5.35c0.2-0.4,0.3-0.883,0.3-1.45
			c0-0.867-0.3-1.683-0.9-2.45C38.1,16.133,41.617,18.833,45.45,23.4z M57.05,47.45l0.9-1.5c0.8,2.5,1.333,4.25,1.6,5.25
			c3.7-1.3,6.351-2.834,7.95-4.601l0.15,0.2c0.866,0.767,1.833,1.15,2.899,1.15l0.5-0.05c-2.233,2.233-5.916,4.017-11.05,5.35
			c1.1,4.833,1.434,8.934,1,12.3c-0.467,3.467-1.7,5.667-3.7,6.601c-1.8,0.866-4,0.566-6.6-0.9c-2.467-1.4-5.066-3.717-7.8-6.95
			l1.65-1.55c2.233,2.2,4.316,3.75,6.25,4.65c2,0.966,3.601,1.149,4.8,0.55C56.967,67.283,57.9,65.634,58.4,63
			c0.5-2.566,0.483-5.684-0.051-9.35c-1.833,0.399-3.983,0.733-6.449,1L53.3,52.85c1.7-0.3,3.283-0.666,4.75-1.1
			C57.884,50.983,57.55,49.55,57.05,47.45z M28.25,18.45c0.2,0.8,0.567,1.466,1.1,2c0.533,0.533,1.15,0.867,1.85,1
			c-1.567,2.7-1.934,6.883-1.1,12.55c1.733-0.4,3.816-0.733,6.25-1l-1,1.3c-1.434,0.233-3.1,0.617-5,1.15
			c0.2,1.167,0.55,2.683,1.05,4.55l-1,1.7c-0.667-1.967-1.25-3.883-1.75-5.75c-2.833,1-5.066,2.167-6.7,3.5
			c-1.667,1.4-2.5,2.783-2.5,4.15c0,1.133,0.583,2.3,1.75,3.5c1.167,1.167,2.783,2.217,4.85,3.15l-0.85,2.1
			c-3.133-1.066-5.567-2.333-7.3-3.8c-1.767-1.5-2.65-3.083-2.65-4.75c0-1.933,1.183-3.733,3.55-5.4c2.3-1.633,5.45-2.967,9.45-4
			C26.65,27.267,26.65,21.95,28.25,18.45z M70.55,39.9c-1.066,0-2.017,0.367-2.85,1.1c-1.033-1.3-2.816-2.55-5.351-3.75l0.75-1.95
			c3.767,1.333,6.517,2.9,8.25,4.7L70.55,39.9z M31.85,45.55l0.85-1.65l1.7,4c0.934,2.033,1.9,3.85,2.9,5.449
			c2.167,0.267,4.333,0.4,6.5,0.4c1.9,0,3.783-0.1,5.65-0.3L48.05,55l-3.899,0.1c-1.833,0-3.817-0.083-5.95-0.25
			c1.233,1.934,2.617,3.767,4.15,5.5l-1.6,1.25c-1.433-1.966-2.917-4.283-4.45-6.949c-2.7-0.301-5.183-0.717-7.45-1.25L29.4,51.6
			c1.7,0.601,3.7,1.084,6,1.45c-0.967-1.8-1.667-3.2-2.1-4.2L31.85,45.55z"/>
		<path fill-rule="evenodd" clip-rule="evenodd" fill="#5990CE" d="M44.15,38.4c1.5,0,2.783,0.533,3.85,1.6s1.6,2.333,1.6,3.8
			c0,1.5-0.533,2.783-1.6,3.851c-1.066,1.066-2.35,1.6-3.85,1.6c-1.5,0-2.767-0.533-3.8-1.6c-1.067-1.067-1.6-2.351-1.6-3.851
			c0-1.466,0.533-2.733,1.6-3.8C41.383,38.933,42.65,38.4,44.15,38.4z M68.3,46.15c-0.6-0.634-0.899-1.367-0.899-2.2
			c0-0.867,0.3-1.6,0.899-2.2c0.601-0.6,1.351-0.9,2.25-0.9c0.834,0,1.55,0.3,2.15,0.9c0.6,0.6,0.899,1.333,0.899,2.2
			c0,0.833-0.3,1.566-0.899,2.2c-0.601,0.6-1.316,0.899-2.15,0.899C69.65,47.05,68.9,46.75,68.3,46.15z M29.8,19.8
			c-0.566-0.6-0.85-1.316-0.85-2.15c0-0.8,0.283-1.5,0.85-2.1c0.6-0.566,1.317-0.85,2.15-0.85c0.8,0,1.5,0.283,2.1,0.85
			c0.567,0.6,0.85,1.3,0.85,2.1c0,0.833-0.283,1.55-0.85,2.15c-0.6,0.567-1.3,0.85-2.1,0.85C31.117,20.65,30.4,20.367,29.8,19.8z
			 M25.85,64.75c0.733-0.733,1.617-1.1,2.65-1.1c1,0,1.883,0.366,2.65,1.1c0.733,0.767,1.1,1.65,1.1,2.65
			c0,1.033-0.367,1.933-1.1,2.699C30.383,70.833,29.5,71.2,28.5,71.2c-1.033,0-1.917-0.367-2.65-1.101
			c-0.767-0.767-1.15-1.666-1.15-2.699C24.7,66.4,25.083,65.517,25.85,64.75z"/>
	</g>
</g>
</svg>
