<?xml version="1.0" encoding="utf-8"?>
<!-- Generator: Adobe Illustrator 15.0.2, SVG Export Plug-In . SVG Version: 6.00 Build 0)  -->
<!DOCTYPE svg PUBLIC "-//W3C//DTD SVG 1.0//EN" "http://www.w3.org/TR/2001/REC-SVG-20010904/DTD/svg10.dtd">
<svg version="1.0" id="Layer_1" xmlns="http://www.w3.org/2000/svg" xmlns:xlink="http://www.w3.org/1999/xlink" x="0px" y="0px"
	 width="88.7px" height="88.7px" viewBox="0 0 88.7 88.7" enable-background="new 0 0 88.7 88.7" xml:space="preserve">
<g>
	<g>
		<path fill-rule="evenodd" clip-rule="evenodd" fill="#FFFFFF" d="M72.65,16c7.833,7.833,11.75,17.283,11.75,28.35
			s-3.917,20.5-11.75,28.3C64.85,80.483,55.417,84.4,44.35,84.4c-11.066,0-20.516-3.917-28.35-11.75C8.2,64.85,4.3,55.417,4.3,44.35
			S8.2,23.833,16,16C23.833,8.2,33.283,4.3,44.35,4.3C55.417,4.3,64.85,8.2,72.65,16z"/>
		
			<path fill-rule="evenodd" clip-rule="evenodd" fill="none" stroke="#434092" stroke-width="8.65" stroke-linecap="round" stroke-linejoin="round" stroke-miterlimit="3" d="
			M72.65,16c7.833,7.833,11.75,17.283,11.75,28.35s-3.917,20.5-11.75,28.3C64.85,80.483,55.417,84.4,44.35,84.4
			c-11.066,0-20.516-3.917-28.35-11.75C8.2,64.85,4.3,55.417,4.3,44.35S8.2,23.833,16,16C23.833,8.2,33.283,4.3,44.35,4.3
			C55.417,4.3,64.85,8.2,72.65,16z"/>
	</g>
	<g>
		<path fill-rule="evenodd" clip-rule="evenodd" fill="#5990CE" d="M70.2,36H25.1v-5.9h45.1V36z M51.95,43.7h-21.7v12.55L51.95,43.7
			z M70.2,38.6L24.95,64.7V38.6H70.2z"/>
	</g>
</g>
</svg>
