<?xml version="1.0" encoding="utf-8"?>
<!-- Generator: Adobe Illustrator 15.0.2, SVG Export Plug-In . SVG Version: 6.00 Build 0)  -->
<!DOCTYPE svg PUBLIC "-//W3C//DTD SVG 1.0//EN" "http://www.w3.org/TR/2001/REC-SVG-20010904/DTD/svg10.dtd">
<svg version="1.0" id="Layer_1" xmlns="http://www.w3.org/2000/svg" xmlns:xlink="http://www.w3.org/1999/xlink" x="0px" y="0px"
	 width="88.7px" height="88.7px" viewBox="0 0 88.7 88.7" enable-background="new 0 0 88.7 88.7" xml:space="preserve">
<g>
	<g>
		<path fill-rule="evenodd" clip-rule="evenodd" fill="#FFFFFF" d="M72.65,16c7.833,7.833,11.75,17.283,11.75,28.35
			s-3.917,20.5-11.75,28.3C64.85,80.483,55.417,84.4,44.35,84.4c-11.066,0-20.516-3.917-28.35-11.75C8.2,64.85,4.3,55.417,4.3,44.35
			S8.2,23.833,16,16C23.833,8.2,33.283,4.3,44.35,4.3C55.417,4.3,64.85,8.2,72.65,16z"/>
		
			<path fill-rule="evenodd" clip-rule="evenodd" fill="none" stroke="#434092" stroke-width="8.65" stroke-linecap="round" stroke-linejoin="round" stroke-miterlimit="3" d="
			M72.65,16c7.833,7.833,11.75,17.283,11.75,28.35s-3.917,20.5-11.75,28.3C64.85,80.483,55.417,84.4,44.35,84.4
			c-11.066,0-20.516-3.917-28.35-11.75C8.2,64.85,4.3,55.417,4.3,44.35S8.2,23.833,16,16C23.833,8.2,33.283,4.3,44.35,4.3
			C55.417,4.3,64.85,8.2,72.65,16z"/>
	</g>
	<g>
		<path fill-rule="evenodd" clip-rule="evenodd" fill="#5990CE" d="M44.4,19.95c-4.167,0-7.717,0.65-10.65,1.95
			c-2.967,1.2-4.45,2.717-4.45,4.55c0,1.767,1.483,3.283,4.45,4.55c2.933,1.267,6.483,1.9,10.65,1.9c4.166,0,7.75-0.633,10.75-1.9
			c2.933-1.267,4.399-2.783,4.399-4.55c0-1.833-1.467-3.35-4.399-4.55C52.184,20.6,48.6,19.95,44.4,19.95z M56.45,21.3
			c3.333,1.434,5,3.15,5,5.15v35.2c0.033,0.433-0.017,0.899-0.15,1.399c-0.333,1.434-1.85,2.767-4.55,4
			c-3.533,1.4-7.65,2.101-12.35,2.101c-4.601,0-8.667-0.7-12.2-2.101c-2.9-1.3-4.5-2.85-4.8-4.649V26.45c0-2,1.667-3.717,5-5.15
			c3.3-1.433,7.3-2.15,12-2.15C49.1,19.15,53.116,19.867,56.45,21.3z"/>
		<path fill-rule="evenodd" clip-rule="evenodd" fill="#434092" d="M44.4,20.65c4,0,7.483,0.6,10.449,1.8
			c2.7,1.2,4.051,2.533,4.051,4c0,1.466-1.351,2.783-4.051,3.95c-2.966,1.233-6.449,1.85-10.449,1.85
			c-3.967,0-7.434-0.617-10.4-1.85c-2.667-1.167-4-2.483-4-3.95c0-1.467,1.333-2.8,4-4C36.967,21.25,40.433,20.65,44.4,20.65z"/>
	</g>
</g>
</svg>
