<?xml version="1.0" encoding="utf-8"?>
<!-- Generator: Adobe Illustrator 15.0.2, SVG Export Plug-In . SVG Version: 6.00 Build 0)  -->
<!DOCTYPE svg PUBLIC "-//W3C//DTD SVG 1.0//EN" "http://www.w3.org/TR/2001/REC-SVG-20010904/DTD/svg10.dtd">
<svg version="1.0" id="Selected_Items" xmlns="http://www.w3.org/2000/svg" xmlns:xlink="http://www.w3.org/1999/xlink" x="0px"
	 y="0px" width="63.25px" height="63.25px" viewBox="0 0 63.25 63.25" enable-background="new 0 0 63.25 63.25"
	 xml:space="preserve">
<g>
	<rect fill-rule="evenodd" clip-rule="evenodd" fill="#29A8ED" width="63.25" height="63.25"/>
	<path fill-rule="evenodd" clip-rule="evenodd" fill="#FFFFFF" d="M42.743,21.639c0.496-0.235,0.914-0.457,1.254-0.666
		c-0.209,0.627-0.522,1.188-0.94,1.685c-0.392,0.496-0.875,0.901-1.449,1.215l0.039,0.039c1.019-0.104,1.998-0.366,2.938-0.784
		c-0.262,0.575-0.614,1.084-1.059,1.528c-0.443,0.444-0.953,0.796-1.527,1.058c0.156,1.672-0.053,3.422-0.627,5.25
		c-0.601,1.88-1.528,3.591-2.781,5.132c-1.358,1.672-2.965,2.978-4.819,3.918c-2.063,1.019-4.336,1.541-6.817,1.567
		c-1.384,0-2.755-0.184-4.114-0.549c-1.253-0.366-2.468-0.888-3.643-1.567c0.026,0,0.261,0,0.705,0
		c0.575-0.026,1.149-0.104,1.724-0.234c1.881-0.34,3.565-1.059,5.054-2.155c-1.149-0.053-2.181-0.432-3.095-1.137
		c-0.914-0.679-1.541-1.554-1.881-2.625c0.34,0.079,0.706,0.131,1.098,0.157c0.548,0.052,1.031,0.013,1.449-0.117
		c-1.202-0.262-2.207-0.862-3.017-1.803c-0.836-0.966-1.293-2.076-1.371-3.33c0.679,0.287,1.397,0.444,2.155,0.47
		c-0.889-0.679-1.515-1.593-1.881-2.743c-0.497-1.489-0.339-2.964,0.47-4.427c1.306,1.671,2.886,2.977,4.741,3.917
		c1.933,0.993,3.983,1.515,6.151,1.567c-0.026-0.026-0.052-0.196-0.078-0.509c-0.026-0.314-0.039-0.51-0.039-0.588
		c0-1.384,0.47-2.599,1.41-3.644c1.045-1.123,2.351-1.685,3.918-1.685c0.757,0,1.488,0.157,2.193,0.47
		c0.653,0.313,1.229,0.731,1.725,1.253C41.28,22.2,41.985,21.978,42.743,21.639z"/>
</g>
</svg>
