<?xml version="1.0" encoding="utf-8"?>
<!-- Generator: Adobe Illustrator 15.0.2, SVG Export Plug-In . SVG Version: 6.00 Build 0)  -->
<!DOCTYPE svg PUBLIC "-//W3C//DTD SVG 1.1//EN" "http://www.w3.org/Graphics/SVG/1.1/DTD/svg11.dtd">
<svg version="1.1" id="Selected_Items" xmlns="http://www.w3.org/2000/svg" xmlns:xlink="http://www.w3.org/1999/xlink" x="0px"
	 y="0px" width="42px" height="24.125px" viewBox="-7.125 0 42 24.125" enable-background="new -7.125 0 42 24.125"
	 xml:space="preserve">
<text transform="matrix(1 0 0 1 306 396)" font-family="'MyriadPro-Regular'" font-size="12">#787878</text>
<text transform="matrix(1 0 0 1 306 396)" font-family="'MyriadPro-Regular'" font-size="12">#787878</text>
<g>
	<g id="XMLID_1_">
		<g>
			<path fill="#29A8ED" d="M26.585,3.55c-0.26,0.58-0.61,1.09-1.06,1.53c-0.44,0.45-0.95,0.8-1.53,1.06
				c0.16,1.67-0.05,3.42-0.62,5.25c-0.6,1.88-1.53,3.59-2.78,5.13c-1.36,1.67-2.97,2.98-4.82,3.92c-2.07,1.02-4.34,1.54-6.82,1.57
				c-1.38,0-2.75-0.19-4.11-0.55c-1.26-0.37-2.47-0.89-3.65-1.57c0.03,0,0.26,0,0.71,0c0.57-0.03,1.15-0.1,1.72-0.23
				c1.88-0.34,3.57-1.06,5.06-2.16c-1.15-0.05-2.18-0.43-3.1-1.14c-0.91-0.68-1.54-1.55-1.88-2.62c0.34,0.08,0.71,0.13,1.1,0.16
				c0.55,0.05,1.03,0.01,1.45-0.12c-1.21-0.26-2.21-0.86-3.02-1.8c-0.84-0.97-1.29-2.08-1.37-3.33c0.68,0.28,1.4,0.44,2.15,0.47
				c-0.89-0.68-1.51-1.6-1.88-2.75c-0.49-1.49-0.34-2.96,0.47-4.42c1.31,1.67,2.89,2.97,4.74,3.91c1.94,1,3.99,1.52,6.16,1.57
				c-0.03-0.03-0.06-0.2-0.08-0.51c-0.03-0.31-0.04-0.51-0.04-0.59c0-1.38,0.47-2.6,1.41-3.64c1.04-1.12,2.35-1.69,3.92-1.69
				c0.75,0,1.48,0.16,2.19,0.47c0.65,0.32,1.23,0.74,1.72,1.26c0.65-0.1,1.36-0.33,2.12-0.67c0.49-0.23,0.91-0.45,1.25-0.66
				c-0.21,0.63-0.52,1.19-0.94,1.68c-0.39,0.5-0.87,0.9-1.45,1.22l0.04,0.04C24.665,4.23,25.645,3.97,26.585,3.55z"/>
		</g>
		<g>
		</g>
	</g>
</g>
</svg>
